<?xml version="1.0" encoding="UTF-8"?> <svg xmlns="http://www.w3.org/2000/svg" width="162.708" height="49.856" viewBox="0 0 162.708 49.856"><g transform="translate(0 -0.2)"><path d="M174.471,66.167a1.835,1.835,0,0,0,1.871-1.954,1.8,1.8,0,0,0-1.871-1.913,1.835,1.835,0,0,0-1.871,1.954,1.8,1.8,0,0,0,1.871,1.913Zm-.042-.249c-1.123,0-1.289-1.081-1.289-1.7,0-.582.166-1.663,1.289-1.663s1.289,1.081,1.289,1.7c0,.582-.166,1.663-1.289,1.663Z" transform="translate(-100.83 -36.278)" fill="#003767"></path><path d="M318.44,53.281l3.742-8.649,3.909,8.607Zm12.267,3.742L323.971,41.8c-.166-.416-.291-.956-.624-.956-.208,0-.333-.083-.457,0-.291-.042.249.208-1.123.748a10.926,10.926,0,0,1-1.331.5V43.26c-.956-.042,1.164-.374.582.915-.25.541-4.907,11.809-4.907,11.809-.832,1.788-1.372,2.37-2.412,2.744V59.6h3.659v-.873c-.748-.125-1.164-1.164-.249-2.661l.582-1.372,9.19.042.956,2.037c.5,1.372-.125,1.788-.5,1.954v.915h5.489V58.77a3.652,3.652,0,0,1-2.121-1.746Z" transform="translate(-183.259 -23.724)" fill="#003767"></path><path d="M193.791,39.7l-.748.5H178.78l-.748-.5H177.2l.042,4.117h1.331c0-2.578,3.327-2.37,5.239-2.37h1.123V55.085c0,1.746.042,2.869-1.539,2.869l.042,1.081h4.948V57.954c-.042,0-1.289.249-1.289-2.578V41.488h1.164c1.913,0,4.99.208,4.99,2.37h1.331V39.742h-.79Z" transform="translate(-103.518 -23.075)" fill="#003767"></path><path d="M363.97,44.609c0-1.954,2.37-2.869,3.659-2.869,2.038,0,3.451,2.37,4.241,4.241h.749V41.324H371.5c-.083.249-.208.541-.5.541a4.319,4.319,0,0,1-1.247-.582,5.076,5.076,0,0,0-2.37-.582,5.222,5.222,0,0,0-5.2,5.406c0,6.32,9.855,3.2,9.855,9.481,0,2-2.245,3.077-3.742,3.077-3.41,0-5.322-3.618-5.78-4.823H361.6v5.78h1.5c.042-.333.166-.956.5-.956.582,0,2.121,1.206,4.283,1.206,3.285,0,6.071-1.455,6.071-6.154,0-6.861-9.98-4.117-9.98-9.106Z" transform="translate(-211.241 -23.66)" fill="#003767"></path><path d="M235.41,58.088H227.8V50.146H232c1.04,0,.915.5,1.164,1.663h.956V47.817h-.956c-.291.333-.166,1.247-1.164,1.247h-4.2v-7.4h5.572a3.544,3.544,0,0,1,3.576,2.412h.832V40h-.707s0,.374-.832.374H224.1v1.04a2.1,2.1,0,0,1,1.414,2.245V56.092a2.1,2.1,0,0,1-1.414,2.245v1.04h15.177V55.219h-.748a2.928,2.928,0,0,1-3.119,2.869Z" transform="translate(-130.916 -23.251)" fill="#003767"></path><path d="M281.38,57.748c-1-1.247-4.075-5.239-6.778-8.566,1.58-1.83,3.742-4.158,4.449-5.073,2.079-2.578,3.7-2.162,3.7-2.162V40.7h-5.031v1.206s1.331-.333,1.123.582c-.125.541-3.576,4.033-5.031,5.738-.748-.915-4.324-4.99-4.324-5.614s1.04-.541,1.04-.541V40.742l-6.32.042v1.206a3.226,3.226,0,0,1,2.245,1.247c.249.333,2.994,3.742,5.489,6.861-2.536,2.994-5.322,6.4-5.821,7.11a3.054,3.054,0,0,1-2.62,1.247v1.123h4.823V58.5s-.5.166-.665-.457c-.333-1.04,3.16-4.366,5.239-6.778,1.455,1.83,4.823,5.572,4.823,6.279s-.79.873-.79.873V59.62h6.778V58.331c-.457-.083-1.913-.042-2.329-.582Z" transform="translate(-153.933 -23.66)" fill="#003767"></path><path d="M181.9,66.109V65.9a.448.448,0,0,0,.291-.457V62.948a.448.448,0,0,0-.291-.457v-.208h2.453c.166,0,.166-.083.166-.083h.125v1h-.166a.64.64,0,0,0-.748-.541h-1.081v2.828c0,.416.291.416.291.416v.208Z" transform="translate(-106.263 -36.219)" fill="#003767"></path><path d="M183.5,66.224h.915c.208,0,.291.083.374.333H185V65.6h-.208a.336.336,0,0,1-.374.333H183.5Z" transform="translate(-107.198 -38.206)" fill="#003767"></path><path d="M12.973,34.214v-.457a5.024,5.024,0,0,0,2.7-2.37c.457-1.04,3.742-8.15,4.907-10.686-.249,0-1.04-.042-1.04-.042V18.33l.042-1.247,1.247.042a5.792,5.792,0,0,0,1.663-.416,4.558,4.558,0,0,0,1-.457,2.131,2.131,0,0,1,.748-.333,2.222,2.222,0,0,1,.707-.042h.042a1.924,1.924,0,0,1,1.746,1.5l.083.166c0,.042,1.123,2.287,2.453,5.073l11.1-7.942H24.949L20.209.2,15.427,14.629H0l12.474,8.94L7.693,38Z" transform="translate(0 0)" fill="#003767"></path><path d="M52.3,62.935c1.164,0,1.7,0,2.911-.042-.582-1.123-.832-1.663-1.5-2.994-.665,1.372-.915,1.954-1.414,3.035Z" transform="translate(-30.553 -34.876)" fill="#003767"></path><path d="M42.726,44c-.249.541-5.073,11.518-5.073,11.518-.873,1.746-1.414,2.287-2.453,2.7v.873h5.156v-.873c-.748-.125-2.2-1.04-1.289-2.495l.582-1.331,7.776-.042.956,2a1.355,1.355,0,0,1-1,1.913v.873h7.443v-.873a3.269,3.269,0,0,1-1.746-1.7L46.136,41.63c-.166-.416-.333-.956-.665-.956a1.654,1.654,0,0,0-.457,0c-.291-.042-.083.208-1.539.748a5.594,5.594,0,0,1-2.037.5v1.164c.042,0,1.7.042,1.289.915Zm.873,1.83,3.41,7.069-6.528.042Z" transform="translate(-20.563 -23.634)" fill="#58595b"></path><path d="M97.861,45.208h-1.04s-.5-2.952-4.823-2.952-4.616,4.366-4.616,7.443c0,3.742.582,7.984,5.572,7.984a6.5,6.5,0,0,0,5.156-2.245l.125-.166.915,1.289c-2.453,2.079-3.867,2.952-6.986,2.952-5.9,0-9.065-3.95-9.065-9.564A8.908,8.908,0,0,1,92.414,40.8c1.663,0,4.408,1.622,4.2.208H97.9Z" transform="translate(-48.546 -23.718)" fill="#58595b"></path><path d="M132.187,41.242v1.206s-1.247-.249-1.247,1.746v8.233c0,2.62,1.539,5.156,4.865,5.156,3.867,0,5.406-2,5.406-4.158V43.4c0-1.04-1.5-1-1.5-1V41.2H144v1.206s-1.372-.249-1.372,1.746v9.231c0,3.368-2.7,6.4-7.9,6.4-4.283,0-7.776-2.952-7.776-6.861V44.194c0-2-1.247-1.746-1.247-1.746V41.242Z" transform="translate(-73.432 -23.952)" fill="#58595b"></path><rect width="147.531" height="0.541" transform="translate(13.93 38.538)" fill="#003767"></rect><rect width="147.531" height="0.541" transform="translate(13.93 49.516)" fill="#003767"></rect><path d="M36.638,101.8h0l2.62.042V101.8l-1.289-2.744h-.042Zm-1.788,2a1.222,1.222,0,0,0,.333-.333.216.216,0,0,0,.083-.166c.042-.042.042-.125.083-.166l2.037-4.283c0-.042.042-.083.042-.166,0-.042.042-.125.042-.166s.042-.083.042-.166v-.166q0-.062-.125-.125a.617.617,0,0,0-.291-.042h-.083v-.374a2.365,2.365,0,0,0,.665-.125,1.818,1.818,0,0,0,.416-.249.089.089,0,0,0,.083-.083l.083-.083h.374l2.62,5.489c.208.416.374.707.5.915a1.588,1.588,0,0,0,.374.374h0v.374H39.257v-.374a.5.5,0,0,0,.541-.457v-.166l-.042-.083h0v-.125l-.291-.665h-3.2l-.249.582v.083c0,.042-.042.042-.042.083s-.042.083-.042.125v.166a.377.377,0,0,0,.125.291.938.938,0,0,0,.5.208v.374H34.6v-.374a.359.359,0,0,0,.249-.125Z" transform="translate(-20.213 -56.608)" fill="#003767"></path><path d="M58.649,99.388h-.374a1.59,1.59,0,0,0-.457-.873,1.952,1.952,0,0,0-.665-.416.708.708,0,0,0-.291-.042H56.57a1.126,1.126,0,0,0-.79.249.874.874,0,0,0-.291.582v.166a.689.689,0,0,0,.208.5,2.913,2.913,0,0,0,.416.333,2.027,2.027,0,0,1,.291.125.591.591,0,0,0,.249.083.145.145,0,0,1,.083.042c.042,0,.042.042.083.042a7.359,7.359,0,0,1,1.622.79,1.723,1.723,0,0,1,.707,1.539,2.107,2.107,0,0,1-.665,1.58,2.383,2.383,0,0,1-1.788.665,2.557,2.557,0,0,1-.582-.042,2.146,2.146,0,0,0-.457-.083h-.166c-.125-.042-.208-.042-.333-.083a.527.527,0,0,0-.249-.042c-.083,0-.125,0-.166.042s-.083.042-.125.083v.083h-.291l-.125-1.746h.333a2.559,2.559,0,0,0,.665.832,2.7,2.7,0,0,0,.915.457c.083,0,.125.042.208.042h.208a1.32,1.32,0,0,0,.956-.291,1.121,1.121,0,0,0,.457-.624.25.25,0,0,0,.042-.166v-.166a.732.732,0,0,0-.416-.707,5.634,5.634,0,0,0-.873-.416h0l-.083-.042-.083-.042a2.866,2.866,0,0,1-.416-.166,1.537,1.537,0,0,1-.457-.208,3.084,3.084,0,0,1-.832-.665,1.7,1.7,0,0,1-.374-1.164,1.887,1.887,0,0,1,.624-1.455,2.078,2.078,0,0,1,1.455-.582,1.714,1.714,0,0,1,.5.042,1.932,1.932,0,0,1,.374.125,2.026,2.026,0,0,1,.291.125c.083.042.125.083.208.125h.249a.145.145,0,0,0,.083-.042l.083-.083h.333Z" transform="translate(-31.663 -56.9)" fill="#003767"></path><path d="M72.849,99.388h-.374a1.59,1.59,0,0,0-.457-.873,1.952,1.952,0,0,0-.665-.416.707.707,0,0,0-.291-.042H70.77a1.126,1.126,0,0,0-.79.249.874.874,0,0,0-.291.582v.166a.689.689,0,0,0,.208.5,2.913,2.913,0,0,0,.416.333,2.027,2.027,0,0,1,.291.125.591.591,0,0,0,.249.083.145.145,0,0,1,.083.042c.042,0,.042.042.083.042a7.359,7.359,0,0,1,1.622.79,1.722,1.722,0,0,1,.707,1.539,2.107,2.107,0,0,1-.665,1.58,2.383,2.383,0,0,1-1.788.665,2.557,2.557,0,0,1-.582-.042,2.146,2.146,0,0,0-.457-.083h-.166c-.125-.042-.208-.042-.333-.083a.527.527,0,0,0-.249-.042c-.083,0-.125,0-.166.042s-.083.042-.125.083v.083h-.291l-.125-1.746h.374a2.559,2.559,0,0,0,.665.832,2.7,2.7,0,0,0,.915.457c.083,0,.125.042.208.042h.208a1.32,1.32,0,0,0,.956-.291,1.121,1.121,0,0,0,.457-.624.25.25,0,0,0,.042-.166v-.166a.732.732,0,0,0-.416-.707,5.634,5.634,0,0,0-.873-.416h0l-.083-.042-.083-.042a2.866,2.866,0,0,1-.416-.166,1.537,1.537,0,0,1-.457-.208,3.084,3.084,0,0,1-.832-.665,1.7,1.7,0,0,1-.374-1.164,1.887,1.887,0,0,1,.624-1.455A2.078,2.078,0,0,1,70.77,97.6a1.714,1.714,0,0,1,.5.042,1.932,1.932,0,0,1,.374.125,2.027,2.027,0,0,1,.291.125c.083.042.125.083.208.125h.249a.145.145,0,0,0,.083-.042l.083-.083h.333v1.5Z" transform="translate(-39.958 -56.9)" fill="#003767"></path><path d="M84.545,98.381A3.841,3.841,0,0,0,84,100.918a4.6,4.6,0,0,0,.457,2.412,1.664,1.664,0,0,0,1.414.665,1.613,1.613,0,0,0,1.414-.665,4.6,4.6,0,0,0,.457-2.412c0-1.331-.166-2.2-.541-2.536a1.756,1.756,0,0,0-1.331-.541,1.7,1.7,0,0,0-1.331.541Zm3.867.042a3.8,3.8,0,0,1,.956,2.453h0a3.479,3.479,0,0,1-3.534,3.576,3.643,3.643,0,0,1-2.453-.956,3.446,3.446,0,0,1-1.081-2.62h0a3.721,3.721,0,0,1,.956-2.453A3.194,3.194,0,0,1,85.834,97.3a3.138,3.138,0,0,1,2.578,1.123Z" transform="translate(-48.078 -56.724)" fill="#003767"></path><path d="M107.679,103.229a5.236,5.236,0,0,1-1.5.956,3.721,3.721,0,0,1-1.289.249,3.357,3.357,0,0,1-2.453-1,3.447,3.447,0,0,1-1.04-2.661,3.3,3.3,0,0,1,1.04-2.62,3.416,3.416,0,0,1,2.245-.956h.083a2.2,2.2,0,0,1,.541.042,1.23,1.23,0,0,1,.416.083c.083,0,.125.042.208.042.042,0,.083.042.125.042.083.042.208.042.291.083.083,0,.166.042.249.042a.153.153,0,0,0,.125-.042c.042,0,.083-.042.125-.083h.374v1.663h-.374a1.772,1.772,0,0,0-.624-.832,2.1,2.1,0,0,0-.956-.374h-.333a1.384,1.384,0,0,0-1.414.79,3.932,3.932,0,0,0-.374,1.7v1.331a3.205,3.205,0,0,0,.5,1.5,1.765,1.765,0,0,0,1.622.665,2.355,2.355,0,0,0,.748-.125,2.954,2.954,0,0,0,.748-.333,1.264,1.264,0,0,0,.291-.208c.125-.083.208-.166.333-.249Z" transform="translate(-59.236 -56.666)" fill="#003767"></path><path d="M121.095,97.5v.374a1.407,1.407,0,0,0-.333.125c-.083.083-.125.125-.125.208,0,.042-.042.125-.042.166V98.5h0v4.948h0v.125a.25.25,0,0,0,.042.166c.042.083.083.125.125.208a.409.409,0,0,0,.333.125v.374H118.6v-.374a.372.372,0,0,0,.333-.166.359.359,0,0,0,.125-.249V98.29c0-.083-.083-.166-.125-.249a.626.626,0,0,0-.333-.166V97.5h2.495Z" transform="translate(-69.284 -56.841)" fill="#003767"></path><path d="M127.5,101.8h0l2.62.042V101.8l-1.289-2.744h-.042Zm-1.746,2a1.222,1.222,0,0,0,.333-.333.216.216,0,0,0,.083-.166c.042-.042.042-.125.083-.166l2.037-4.283c0-.042.042-.083.042-.166,0-.042.042-.125.042-.166s.042-.083.042-.166v-.166q0-.062-.125-.125a.617.617,0,0,0-.291-.042h-.083v-.374a2.365,2.365,0,0,0,.665-.125,1.819,1.819,0,0,0,.416-.249.089.089,0,0,0,.083-.083l.083-.083h.374l2.62,5.489c.208.416.374.707.5.915a1.587,1.587,0,0,0,.374.374h0v.374h-2.869v-.374a.5.5,0,0,0,.541-.457v-.166l-.042-.083h0v-.125l-.291-.665h-3.2l-.249.582v.083c0,.042-.042.042-.042.083s-.042.083-.042.125v.166a.377.377,0,0,0,.125.291.938.938,0,0,0,.5.208v.374H125.5v-.374a.643.643,0,0,0,.25-.125Z" transform="translate(-73.315 -56.608)" fill="#003767"></path><path d="M144.374,97.1c.083.042.208.083.291.125a.811.811,0,0,0,.333.042H149.9c.042,0,.083-.042.125-.042s.083-.042.166-.083h.374V98.93H150.2a1.709,1.709,0,0,0-.333-.541,2.69,2.69,0,0,0-.374-.333,1.281,1.281,0,0,0-.5-.208,1.432,1.432,0,0,0-.374-.042h-.665v5.572a.993.993,0,0,0,.083.374.776.776,0,0,0,.416.208v.374h-2.495v-.374h.083a.583.583,0,0,0,.291-.166.783.783,0,0,0,.083-.333v-5.7h-.541a1.033,1.033,0,0,0-.333.042,1.214,1.214,0,0,0-.374.083,1.277,1.277,0,0,0-.541.333,1.455,1.455,0,0,0-.416.707H144V97.142h.374Z" transform="translate(-84.123 -56.608)" fill="#003767"></path><path d="M166.107,97.208c.125,0,.249,0,.291-.042.083,0,.125-.083.166-.166h.249v1.788h-.374a1.3,1.3,0,0,0-.582-.873,2.292,2.292,0,0,0-1.04-.208h-1.663v2.536h1.123a1.169,1.169,0,0,0,.624-.125c.166-.083.208-.249.208-.5h.374v1.788h-.374a.508.508,0,0,0-.125-.374c-.083-.083-.125-.166-.208-.208a.375.375,0,0,0-.208-.042H163.2v2.869h2.412a1.349,1.349,0,0,0,1-.374,1.851,1.851,0,0,0,.5-.873h.374v1.788H161.2v-.374a.527.527,0,0,0,.374-.166.378.378,0,0,0,.125-.291V98.081a.378.378,0,0,0-.125-.291.527.527,0,0,0-.374-.166v-.374h4.907Z" transform="translate(-94.171 -56.549)" fill="#003767"></path><path d="M180.828,103.987a2.024,2.024,0,0,0,.5-.042,3.314,3.314,0,0,0,.624-.125,2.324,2.324,0,0,0,1.04-.79,3.082,3.082,0,0,0,.457-1.954,2.99,2.99,0,0,0-.541-2.037,2.755,2.755,0,0,0-1.206-.832,2.106,2.106,0,0,0-.541-.083c-.166,0-.333-.042-.5-.042H180v5.946h.832Zm.166-6.487a4.727,4.727,0,0,1,2.578.582,3.143,3.143,0,0,1,1.164,1.331,2.811,2.811,0,0,1,.291.956,4.806,4.806,0,0,1,.042.707,3.885,3.885,0,0,1-.249,1.414,3.108,3.108,0,0,1-.915,1.206,2.524,2.524,0,0,1-.416.291,2.228,2.228,0,0,1-.457.208,2.708,2.708,0,0,1-1.081.249,5.642,5.642,0,0,1-.748.042H178v-.374c.249-.083.374-.166.416-.249a.923.923,0,0,0,.042-.374h0V98.54h0a1.151,1.151,0,0,0-.042-.374.547.547,0,0,0-.416-.249v-.374h2.994Z" transform="translate(-103.985 -56.841)" fill="#003767"></path><path d="M211.979,103.229a5.236,5.236,0,0,1-1.5.956,3.721,3.721,0,0,1-1.289.249,3.357,3.357,0,0,1-2.453-1,3.447,3.447,0,0,1-1.04-2.661,3.3,3.3,0,0,1,1.04-2.62,3.416,3.416,0,0,1,2.245-.956h.083a2.2,2.2,0,0,1,.541.042,1.23,1.23,0,0,1,.416.083c.083,0,.125.042.208.042.042,0,.083.042.125.042.083.042.208.042.291.083.083,0,.166.042.249.042a.153.153,0,0,0,.125-.042c.042,0,.083-.042.125-.083h.374v1.663h-.374a1.771,1.771,0,0,0-.624-.832,2.1,2.1,0,0,0-.956-.374h-.333a1.384,1.384,0,0,0-1.414.79,3.932,3.932,0,0,0-.374,1.7v1.331a3.205,3.205,0,0,0,.5,1.5,1.765,1.765,0,0,0,1.622.665,2.355,2.355,0,0,0,.748-.125,2.954,2.954,0,0,0,.748-.333,1.263,1.263,0,0,0,.291-.208c.125-.083.208-.166.333-.249Z" transform="translate(-120.167 -56.666)" fill="#003767"></path><path d="M224.8,100.743h.873a1.161,1.161,0,0,0,.832-.333,1.33,1.33,0,0,0,.333-.956,1.465,1.465,0,0,0-.249-.956,1.01,1.01,0,0,0-.582-.374.915.915,0,0,0-.333-.042h-.915v2.661Zm.956-3.243h.541a2.112,2.112,0,0,1,.707.125,2.282,2.282,0,0,1,1.04.541,1.834,1.834,0,0,1,.166,2.2,1.938,1.938,0,0,1-.582.582l-.249.125a.7.7,0,0,1-.208.083v.083l1.414,2.37a1.186,1.186,0,0,0,.291.333,1.245,1.245,0,0,0,.416.166v.374h-1.913l-1.663-2.828-.042-.083-.042-.083a.559.559,0,0,0-.291-.249,1.876,1.876,0,0,0-.541-.042v2.245h0a.923.923,0,0,0,.042.374.711.711,0,0,0,.374.249h.083v.374H222.8v-.374h.208l.083-.042c.042-.042.125-.083.166-.166a.831.831,0,0,0,.083-.374V98.54a.831.831,0,0,0-.083-.374c-.042-.083-.125-.125-.166-.166l-.083-.042H222.8v-.374h2.952Z" transform="translate(-130.156 -56.841)" fill="#003767"></path><path d="M244.648,97.208c.125,0,.249,0,.291-.042.083,0,.125-.083.166-.166h.249v1.788h-.374a1.3,1.3,0,0,0-.582-.873,2.291,2.291,0,0,0-1.04-.208H241.7v2.536h1.123a1.169,1.169,0,0,0,.624-.125c.166-.083.208-.249.208-.5h.374v1.788h-.374a.508.508,0,0,0-.125-.374c-.083-.083-.125-.166-.208-.208a.375.375,0,0,0-.208-.042H241.7v2.869h2.412a1.349,1.349,0,0,0,1-.374,1.561,1.561,0,0,0,.5-.873h.374v1.788H239.7v-.374a.527.527,0,0,0,.374-.166.377.377,0,0,0,.125-.291V98.081a.377.377,0,0,0-.125-.291.527.527,0,0,0-.374-.166v-.374h4.948Z" transform="translate(-140.029 -56.549)" fill="#003767"></path><path d="M259.369,103.987a2.024,2.024,0,0,0,.5-.042,3.314,3.314,0,0,0,.624-.125,2.324,2.324,0,0,0,1.04-.79,3.082,3.082,0,0,0,.457-1.954,2.99,2.99,0,0,0-.541-2.037,2.755,2.755,0,0,0-1.206-.832,2.106,2.106,0,0,0-.541-.083c-.166,0-.333-.042-.5-.042h-.665v5.946h.832Zm.166-6.487a4.727,4.727,0,0,1,2.578.582,2.921,2.921,0,0,1,1.164,1.331,2.812,2.812,0,0,1,.291.956,4.809,4.809,0,0,1,.042.707,3.191,3.191,0,0,1-.291,1.414,3.108,3.108,0,0,1-.915,1.206,2.524,2.524,0,0,1-.416.291,2.229,2.229,0,0,1-.457.208,2.708,2.708,0,0,1-1.081.249,5.643,5.643,0,0,1-.748.042h-3.2v-.374c.249-.083.374-.166.416-.249a.923.923,0,0,0,.042-.374h0V98.54h0a1.152,1.152,0,0,0-.042-.374.547.547,0,0,0-.416-.249v-.374h3.035Z" transform="translate(-149.843 -56.841)" fill="#003767"></path><path d="M278.195,97.5v.374a1.407,1.407,0,0,0-.333.125c-.083.083-.125.125-.125.208,0,.042-.042.125-.042.166V98.5h0v4.948h0v.125a.25.25,0,0,0,.042.166c.042.083.083.125.125.208a.409.409,0,0,0,.333.125v.374H275.7v-.374a.372.372,0,0,0,.333-.166.359.359,0,0,0,.125-.249V98.29c0-.083-.083-.166-.125-.249a.626.626,0,0,0-.333-.166V97.5h2.495Z" transform="translate(-161.06 -56.841)" fill="#003767"></path><path d="M283.2,97.1c.083.042.208.083.291.125a.81.81,0,0,0,.333.042h4.907c.042,0,.083-.042.125-.042s.083-.042.166-.083h.374V98.93h-.333a1.709,1.709,0,0,0-.333-.541,2.692,2.692,0,0,0-.374-.333,1.281,1.281,0,0,0-.5-.208,1.433,1.433,0,0,0-.374-.042h-.665v5.572a.993.993,0,0,0,.083.374.776.776,0,0,0,.416.208v.374h-2.495v-.374h.083a.583.583,0,0,0,.291-.166.783.783,0,0,0,.083-.333v-5.7h-.541a1.033,1.033,0,0,0-.333.042,1.214,1.214,0,0,0-.374.083,1.277,1.277,0,0,0-.541.333,1.455,1.455,0,0,0-.416.707H282.7V97.142h.5Z" transform="translate(-165.149 -56.608)" fill="#003767"></path><path d="M310.953,97.442v.374c-.208.042-.333.083-.374.208a.979.979,0,0,0-.083.333v3.451a2.944,2.944,0,0,0,.416,1.331c.25.416.748.582,1.58.582a2.081,2.081,0,0,0,1.5-.416,1.541,1.541,0,0,0,.5-.956c0-.125.042-.208.042-.333V98.4h0v-.249a.73.73,0,0,0-.166-.208.782.782,0,0,0-.416-.166V97.4h1.663v.374a1.932,1.932,0,0,0-.374.125.731.731,0,0,0-.166.208c0,.042-.042.125-.042.166v3.41a3.588,3.588,0,0,1-.166,1.164,1.839,1.839,0,0,1-.624.956c-.083.042-.125.125-.208.166s-.125.083-.208.125a2.872,2.872,0,0,1-1.04.374,4.907,4.907,0,0,1-.665.042,3.625,3.625,0,0,1-1.247-.166,2.82,2.82,0,0,1-.79-.333,1.761,1.761,0,0,1-.291-.208l-.166-.166-.125-.125a.574.574,0,0,1-.125-.166,4.463,4.463,0,0,1-.291-.624,3.245,3.245,0,0,1-.125-1V98.232a.6.6,0,0,0-.083-.291.4.4,0,0,0-.374-.166V97.4h2.453Z" transform="translate(-180.221 -56.783)" fill="#003767"></path><path d="M329.53,97.442l3.7,4.449h.125V98.273a.314.314,0,0,0-.042-.166.73.73,0,0,0-.166-.208.508.508,0,0,0-.374-.125V97.4h1.7v.374a1.932,1.932,0,0,0-.374.125.73.73,0,0,0-.166.208c0,.042-.042.125-.042.166v6.154h-.541l-4.491-5.406h-.083V103.6a.153.153,0,0,0,.042.125.87.87,0,0,0,.166.249.782.782,0,0,0,.416.166v.374h-1.7v-.374a.784.784,0,0,0,.374-.166.87.87,0,0,0,.166-.249c0-.042.042-.083.042-.125V98.315a.153.153,0,0,0-.042-.125c0-.083-.083-.166-.166-.249a.373.373,0,0,0-.374-.083v-.374h1.83Z" transform="translate(-191.437 -56.783)" fill="#003767"></path><path d="M348.395,97.5v.374a1.406,1.406,0,0,0-.333.125c-.083.083-.125.125-.125.208,0,.042-.042.125-.042.166V98.5h0v4.948h0v.125a.25.25,0,0,0,.042.166c.042.083.083.125.125.208a.409.409,0,0,0,.333.125v.374H345.9v-.374a.372.372,0,0,0,.333-.166.359.359,0,0,0,.125-.249V98.29c0-.083-.083-.166-.125-.249a.626.626,0,0,0-.333-.166V97.5h2.495Z" transform="translate(-202.07 -56.841)" fill="#003767"></path><path d="M356.1,98.381a3.841,3.841,0,0,0-.541,2.536,4.6,4.6,0,0,0,.457,2.412,1.664,1.664,0,0,0,1.414.665,1.613,1.613,0,0,0,1.414-.665,4.6,4.6,0,0,0,.457-2.412c0-1.331-.166-2.2-.541-2.536a1.908,1.908,0,0,0-2.661,0Zm3.909.042a3.8,3.8,0,0,1,.956,2.453h0a3.479,3.479,0,0,1-3.534,3.576,3.642,3.642,0,0,1-2.453-.956,3.446,3.446,0,0,1-1.081-2.62h0a3.721,3.721,0,0,1,.956-2.453,3.521,3.521,0,0,1,5.156,0Z" transform="translate(-206.743 -56.724)" fill="#003767"></path><path d="M374.93,97.442l3.7,4.449h.125V98.273a.315.315,0,0,0-.042-.166.731.731,0,0,0-.166-.208.508.508,0,0,0-.374-.125V97.4h1.7v.374a1.934,1.934,0,0,0-.374.125.73.73,0,0,0-.166.208c0,.042-.042.125-.042.166v6.154h-.541l-4.491-5.406h-.083V103.6a.153.153,0,0,0,.042.125.87.87,0,0,0,.166.249.782.782,0,0,0,.416.166v.374h-1.7v-.374a.784.784,0,0,0,.374-.166.87.87,0,0,0,.166-.249.153.153,0,0,1,.042-.125V98.315a.153.153,0,0,0-.042-.125c0-.083-.083-.166-.166-.249a.373.373,0,0,0-.374-.083v-.374h1.83Z" transform="translate(-217.959 -56.783)" fill="#003767"></path></g></svg> 