<?xml version="1.0" encoding="UTF-8"?> <svg xmlns="http://www.w3.org/2000/svg" viewBox="0 0 1044.9 183.2"><g id="Layer_2" data-name="Layer 2"><g id="Layer_1-2" data-name="Layer 1"><g><path d="M300.1,131.3A35,35,0,0,1,287,118.8a33.13,33.13,0,0,1-4.9-17.4,33.48,33.48,0,0,1,4.8-17.6A35.23,35.23,0,0,1,300,71.2a37.63,37.63,0,0,1,18.2-4.7,36.48,36.48,0,0,1,18.2,4.6,35,35,0,0,1,13.1,12.5,33.23,33.23,0,0,1,4.8,17.6,33.73,33.73,0,0,1-4.7,17.5,35.46,35.46,0,0,1-13,12.5,37.63,37.63,0,0,1-18.2,4.7A35.83,35.83,0,0,1,300.1,131.3Zm27-14.7A18.55,18.55,0,0,0,333.4,92a15.91,15.91,0,0,0-6.3-6.3,17.6,17.6,0,0,0-8.9-2.3,17.87,17.87,0,0,0-8.9,2.3,16.16,16.16,0,0,0-6.3,6.4,18.76,18.76,0,0,0,0,18,17.51,17.51,0,0,0,15.3,8.9A16.62,16.62,0,0,0,327.1,116.6Z" style="fill: #0058bf"></path><path d="M602.1,131.5A35,35,0,0,1,589,119a33.13,33.13,0,0,1-4.9-17.4A33.48,33.48,0,0,1,588.9,84,35.23,35.23,0,0,1,602,71.4a37.63,37.63,0,0,1,18.2-4.7,36.48,36.48,0,0,1,18.2,4.6,35,35,0,0,1,13.1,12.5,33.23,33.23,0,0,1,4.8,17.6,33.73,33.73,0,0,1-4.7,17.5,35.46,35.46,0,0,1-13,12.5,37.63,37.63,0,0,1-18.2,4.7A36.08,36.08,0,0,1,602.1,131.5Zm27.1-14.7a18.55,18.55,0,0,0,6.3-24.6,15.91,15.91,0,0,0-6.3-6.3,17.6,17.6,0,0,0-8.9-2.3,17.87,17.87,0,0,0-8.9,2.3,16.16,16.16,0,0,0-6.3,6.4,18.76,18.76,0,0,0,0,18,17.51,17.51,0,0,0,15.3,8.9A16.87,16.87,0,0,0,629.2,116.8Z" style="fill: #0058bf"></path><path d="M837.4,131.5A35,35,0,0,1,824.3,119a33.13,33.13,0,0,1-4.9-17.4A33.48,33.48,0,0,1,824.2,84a35.23,35.23,0,0,1,13.1-12.6,37.63,37.63,0,0,1,18.2-4.7,36.48,36.48,0,0,1,18.2,4.6,35,35,0,0,1,13.1,12.5,33.23,33.23,0,0,1,4.8,17.6,33.73,33.73,0,0,1-4.7,17.5,35.46,35.46,0,0,1-13,12.5,37.63,37.63,0,0,1-18.2,4.7A36.08,36.08,0,0,1,837.4,131.5Zm27.1-14.7a18.55,18.55,0,0,0,6.3-24.6,15.91,15.91,0,0,0-6.3-6.3,17.6,17.6,0,0,0-8.9-2.3,17.87,17.87,0,0,0-8.9,2.3,16.16,16.16,0,0,0-6.3,6.4,18.76,18.76,0,0,0,0,18,17.51,17.51,0,0,0,15.3,8.9A16.62,16.62,0,0,0,864.5,116.8Z" style="fill: #0058bf"></path><path d="M239.2,131.3a35.21,35.21,0,0,1-13-12.4,34.61,34.61,0,0,1-.1-35A33.43,33.43,0,0,1,239,71.5a38,38,0,0,1,18.1-4.6,44.18,44.18,0,0,1,20.3,5.4l-5.8,14.9a28.25,28.25,0,0,0-13.3-3.7,18.26,18.26,0,0,0-9.4,2.4,17.36,17.36,0,0,0-6.4,6.5,18.25,18.25,0,0,0-2.3,9,17.87,17.87,0,0,0,2.3,8.9,16,16,0,0,0,6.5,6.4,17.63,17.63,0,0,0,9.5,2.3,29.61,29.61,0,0,0,14-4l6.1,14.8s-10.7,6-21.5,6A34.55,34.55,0,0,1,239.2,131.3Z" style="fill: #0058bf"></path><path d="M39.1,38C9.8,38,0,47.8,0,77.1v33.5H0v72.6H79c29.3,0,39.1-9.8,39.1-39.1V110.6h0V38Z" style="fill: #f8ad9e"></path><path d="M90.7,0C61.4,0,51.6,9.8,51.6,39.1V72.6h0v72.6h79c29.3,0,39.1-9.8,39.1-39.1V72.6h0V0Z" style="fill: #0058bf"></path><path d="M463.3,92.5v41.3H443.7V95c0-7.5-4.2-11.7-10.1-11.7-6.4,0-10.8,4.8-10.8,12.4v38.1H403V95c0-7.5-4-11.7-10-11.7-6.4,0-11,4.8-11,12.4v38.1H362.4V69.3L381.5,67v7.8a23,23,0,0,1,18.3-8.4c8.2,0,14.4,3.5,18.3,9.5,4.8-6.1,12.3-9.5,21.2-9.5C454.7,66.4,463.3,76.7,463.3,92.5Z" style="fill: #0058bf"></path><path d="M576,92.5v41.3H556.4V95c0-7.5-4.2-11.7-10.1-11.7-6.4,0-10.8,4.8-10.8,12.4v38.1H515.7V95c0-7.5-4-11.7-10-11.7-6.4,0-11,4.8-11,12.4v38.1H475.1V69.3L494.2,67v7.8a23,23,0,0,1,18.3-8.4c8.2,0,14.4,3.5,18.3,9.5,4.8-6.1,12.3-9.5,21.2-9.5C567.4,66.4,576,76.7,576,92.5Z" style="fill: #0058bf"></path><path d="M728.8,93.6v40.3H709V96.1c0-8.1-4.8-12.7-11.7-12.7-7.4,0-12.6,5.2-12.6,13.4v37.1H665.1V69.4l19-2.3v7.8c4.8-5.3,11.7-8.4,19.9-8.4C719.7,66.4,728.8,77,728.8,93.6Z" style="fill: #0058bf"></path><path d="M963.8,93.6v40.3H944V96.1c0-8.1-4.8-12.7-11.7-12.7-7.4,0-12.6,5.2-12.6,13.4v37.1H900.1V69.4l19-2.3v7.8c4.8-5.3,11.7-8.4,19.9-8.4C954.7,66.4,963.8,77,963.8,93.6Z" style="fill: #0058bf"></path><path d="M812.1,101.5c0,20.1-15.4,34.9-36.5,34.9-20.8,0-36.1-14.4-36.1-35.4V34.3l19.8-4.2V74.6a27.77,27.77,0,0,1,19.6-7.5C797.4,67.1,812.1,82,812.1,101.5Zm-18.6.1c0-10.1-7.5-17.8-17.5-17.8a17.49,17.49,0,0,0-17.8,17.9c0,10.1,7.5,17.8,17.5,17.8A17.49,17.49,0,0,0,793.5,101.6Z" style="fill: #0058bf"></path><path d="M1005.5,67.1a27.6,27.6,0,0,1,19.6,7.5V30.1l19.8,4.2V101c0,20.9-15.3,35.4-36.1,35.4-21.1,0-36.5-14.9-36.5-34.9C972.3,82,987,67.1,1005.5,67.1Zm3.2,52.4c10,0,17.5-7.6,17.5-17.8a17.49,17.49,0,0,0-17.8-17.9c-10,0-17.5,7.7-17.5,17.8A17.49,17.49,0,0,0,1008.7,119.5Z" style="fill: #0058bf"></path></g></g></g></svg> 