<?xml version="1.0" encoding="UTF-8"?> <svg xmlns="http://www.w3.org/2000/svg" xmlns:xlink="http://www.w3.org/1999/xlink" width="139px" height="42px" viewBox="0 0 139 42" version="1.1"><title>Group</title><desc>Created with Sketch.</desc><g id="I" stroke="none" stroke-width="1" fill="none" fill-rule="evenodd"><g id="0002" transform="translate(-651.000000, -887.000000)" fill="#D29B4E"><g id="Group" transform="translate(651.000000, 887.000000)"><path d="M18.4210101,23.4466323 C20.6393939,23.4466323 22.5769697,22.2220283 23.559798,20.4223293 L29.6392929,20.4223293 C28.4037374,25.382804 23.8546465,29.0647596 18.4210101,29.0647596 C12.0466667,29.0647596 6.86575758,23.9878899 6.86575758,17.7262909 C6.86575758,11.4649727 12.0466667,6.38824343 18.4210101,6.38824343 C23.8686869,6.38824343 28.4318182,10.0939273 29.6533333,15.0786919 L23.5878788,15.0786919 C22.6050505,13.2527374 20.6674747,12.0062303 18.4210101,12.0062303 C15.2057576,12.0062303 12.5942424,14.5669192 12.5942424,17.7262909 C12.5942424,20.8859434 15.2057576,23.4466323 18.4210101,23.4466323 Z M18.2946465,0.0520803253 C8.28383838,0.0616373737 0.168484848,8.03490202 0.168484848,17.868801 C0.168484848,25.3559869 4.8720202,31.7655717 11.5412121,34.401096 L11.5412121,41.999903 L23.9529293,35.1491687 C24.9217172,34.6079111 26.1432323,33.8636293 27.140101,33.3406242 C32.8264646,30.3334505 36.4629293,24.657898 36.4629293,17.868801 C36.4629293,8.03897374 28.3054545,0.0419808081 18.2946465,0.0520803253 Z" id="Shape"></path><path d="M62.1287879,9.15336061 C61.6514141,9.15336061 61.230202,9.22524747 60.8791919,9.36719596 C60.5141414,9.50703838 60.2052525,9.70992222 59.9665657,9.97009091 C59.7278788,10.231804 59.5313131,10.5575414 59.4049495,10.9377556 C59.2645455,11.3237263 59.1943434,11.7662798 59.1943434,12.2527798 C59.1943434,12.7443343 59.2645455,13.1892747 59.4049495,13.5752455 C59.5313131,13.9554596 59.7278788,14.2809162 59.9665657,14.5426293 C60.2052525,14.802798 60.5141414,15.0044182 60.8651515,15.1417333 C61.230202,15.2814354 61.6514141,15.3523394 62.1287879,15.3523394 C62.5921212,15.3523394 63.0133333,15.2817162 63.3643434,15.1420141 C63.7153535,15.0044182 64.0242424,14.802798 64.2629293,14.5426293 C64.5156566,14.281197 64.6981818,13.9557404 64.8385859,13.5752455 C64.9649495,13.1889939 65.0351515,12.7440535 65.0351515,12.2527798 C65.0351515,11.7665606 64.9649495,11.3240071 64.8385859,10.9374747 C64.6981818,10.5572606 64.5156566,10.231804 64.2629293,9.97009091 C64.0242424,9.70992222 63.7153535,9.50675758 63.3643434,9.36691515 C63.0133333,9.22524747 62.5921212,9.15336061 62.1287879,9.15336061 Z M62.1287879,17.7807677 C61.2442424,17.7807677 60.4158586,17.6393808 59.6857576,17.3606788 C58.9556566,17.0811343 58.3238384,16.6881434 57.790303,16.1933596 C57.2708081,15.6974525 56.8636364,15.1060707 56.5687879,14.4352202 C56.2879798,13.7645101 56.1335354,13.030197 56.1335354,12.2527798 C56.1335354,11.475503 56.2879798,10.7413303 56.5687879,10.0704798 C56.8636364,9.39948889 57.2708081,8.80894949 57.790303,8.3155697 C58.3238384,7.82303232 58.9556566,7.43186667 59.6857576,7.15232222 C60.4158586,6.8736202 61.2442424,6.73223333 62.1287879,6.73223333 C63.0133333,6.73223333 63.8276768,6.87474343 64.5577778,7.15639394 C65.2878788,7.43818485 65.919697,7.83089495 66.4391919,8.32301111 C66.9727273,8.8161101 67.379899,9.40636869 67.6607071,10.0777808 C67.9555556,10.7484909 68.0959596,11.4804172 68.0959596,12.2527798 C68.0959596,13.030197 67.9555556,13.7645101 67.6607071,14.4352202 C67.379899,15.1060707 66.9727273,15.6974525 66.4391919,16.1930788 C65.919697,16.6881434 65.2878788,17.0808535 64.5577778,17.360398 C63.8276768,17.6393808 63.0133333,17.7807677 62.1287879,17.7807677 Z" id="Shape"></path><path d="M51.8371717,13.6534505 C51.7108081,14.0002485 51.5282828,14.2993091 51.3036364,14.5429101 C51.0649495,14.8030788 50.7560606,15.004699 50.4050505,15.1420141 C50.04,15.2817162 49.6187879,15.3523394 49.1554545,15.3523394 C48.6921212,15.3523394 48.2709091,15.2817162 47.9058586,15.1420141 C47.5548485,15.0044182 47.2459596,14.8030788 47.0072727,14.5429101 C46.7545455,14.2809162 46.5720202,13.9554596 46.4316162,13.5752455 C46.3052525,13.1892747 46.2350505,12.7443343 46.2350505,12.2530606 C46.2350505,11.7662798 46.3052525,11.3237263 46.4316162,10.9377556 C46.5720202,10.5575414 46.7545455,10.2320848 47.0072727,9.97037172 C47.2459596,9.71020303 47.5548485,9.50703838 47.9058586,9.36719596 C48.2709091,9.22552828 48.6921212,9.15336061 49.1554545,9.15336061 C49.6187879,9.15336061 50.04,9.22524747 50.4050505,9.36719596 C50.7560606,9.50703838 51.0649495,9.70992222 51.3036364,9.97037172 C51.5142424,10.1948778 51.6827273,10.4669808 51.8090909,10.7799414 L54.940101,10.7799414 C54.869899,10.5395697 54.799697,10.3050949 54.7014141,10.0777808 C54.4065657,9.40664949 53.9993939,8.81639091 53.479899,8.32301111 C52.960404,7.83089495 52.3285859,7.43846566 51.5984848,7.15639394 C50.8683838,6.87502424 50.04,6.73223333 49.1554545,6.73223333 C48.2709091,6.73223333 47.4565657,6.8736202 46.7264646,7.15260303 C45.9963636,7.43186667 45.3505051,7.82331313 44.8310101,8.3155697 C44.3115152,8.8092303 43.890303,9.39948889 43.6094949,10.0707606 C43.3146465,10.7416111 43.1742424,11.4757838 43.1742424,12.2530606 C43.1742424,13.030197 43.3146465,13.7647909 43.6094949,14.4352202 C43.890303,15.1060707 44.3115152,15.6977333 44.8310101,16.1936404 C45.3505051,16.6884242 45.9963636,17.0811343 46.7264646,17.3606788 C47.4565657,17.6396616 48.2709091,17.7810485 49.1554545,17.7810485 C50.04,17.7810485 50.8683838,17.6393808 51.5984848,17.3606788 C52.3285859,17.0808535 52.960404,16.6881434 53.479899,16.1930788 C53.9993939,15.6974525 54.4065657,15.1060707 54.7014141,14.4352202 C54.799697,14.1833354 54.8979798,13.9223242 54.9681818,13.6534505 L51.8371717,13.6534505 Z" id="Path"></path><path d="M83.0068687,27.3318929 C82.8664646,27.6785505 82.6979798,27.9777515 82.4592929,28.2213525 C82.2206061,28.4812404 81.9257576,28.6828606 81.5607071,28.8204566 C81.209697,28.9601586 80.7884848,29.0307818 80.3251515,29.0307818 C79.8477778,29.0307818 79.4265657,28.9601586 79.0755556,28.8204566 C78.7105051,28.6828606 78.4156566,28.4812404 78.1629293,28.2213525 C77.9242424,27.9593586 77.7276768,27.633902 77.6013131,27.2536879 C77.4609091,26.8675768 77.4047475,26.4227768 77.4047475,25.931503 C77.4047475,25.4447222 77.4609091,25.0021687 77.6013131,24.616198 C77.7276768,24.2359838 77.9242424,23.9105273 78.1629293,23.6488141 C78.4156566,23.3886455 78.7105051,23.1854808 79.0755556,23.0456384 C79.4265657,22.9039707 79.8477778,22.831803 80.3251515,22.831803 C80.7884848,22.831803 81.209697,22.9036899 81.5607071,23.0456384 C81.9257576,23.1854808 82.2206061,23.3883646 82.4592929,23.6488141 C82.669899,23.8733202 82.8383838,24.145002 82.9787879,24.4583838 L86.0957576,24.4583838 C86.039596,24.2180121 85.9553535,23.9835374 85.8570707,23.7560828 C85.5762626,23.0850919 85.1690909,22.4948333 84.6355556,22.0014535 C84.1160606,21.5093374 83.4842424,21.1169081 82.7541414,20.8348364 C82.0240404,20.5534667 81.209697,20.4106758 80.3251515,20.4106758 C79.4406061,20.4106758 78.6262626,20.5520626 77.8821212,20.8307646 C77.1520202,21.1103091 76.520202,21.5017556 75.9866667,21.9940121 C75.4671717,22.4876727 75.06,23.0779313 74.7651515,23.7489222 C74.4843434,24.4197727 74.3439394,25.1542263 74.3439394,25.931503 C74.3439394,26.7086394 74.4843434,27.4432333 74.7651515,28.1136626 C75.06,28.7843727 75.4671717,29.3761758 75.9866667,29.8720828 C76.520202,30.3668667 77.1520202,30.7595768 77.8821212,31.0391212 C78.6262626,31.318104 79.4406061,31.4594909 80.3251515,31.4594909 C81.209697,31.4594909 82.0240404,31.3178232 82.7541414,31.0391212 C83.4842424,30.759296 84.1160606,30.3665859 84.6355556,29.8715212 C85.1690909,29.3758949 85.5762626,28.7843727 85.8570707,28.1136626 C85.9693939,27.8617778 86.0536364,27.6007667 86.1238384,27.3318929 L83.0068687,27.3318929 Z" id="Path"></path><path d="M78.429697,17.6666192 C78.2050505,17.6666192 77.9944444,17.6322202 77.8259596,17.5651071 C77.6574747,17.4949051 77.4889899,17.3688222 77.3345455,17.1909303 L72.350202,11.4972657 C72.3642424,11.6323343 72.3642424,11.7615061 72.3642424,11.8821131 L72.3642424,17.6666192 L69.570202,17.6666192 L69.570202,6.84610101 L71.1988889,6.84610101 C71.3252525,6.84610101 71.4235354,6.85157677 71.5218182,6.86196667 C71.620101,6.87404141 71.7043434,6.89706768 71.7885859,6.93090505 C71.8728283,6.96516364 71.9570707,7.01346263 72.0272727,7.07453838 C72.0974747,7.12873434 72.1676768,7.20090202 72.2519192,7.28893535 L77.2643434,13.0303374 C77.250303,12.8670475 77.250303,12.7089525 77.250303,12.5592818 L77.250303,6.84610101 L80.0443434,6.84610101 L80.0443434,17.6666192 L78.429697,17.6666192 Z" id="Path"></path><path d="M85.4639394,17.7810485 C85.0988889,17.7810485 84.7057576,17.7463687 84.3266667,17.6777111 C83.9475758,17.6093343 83.5825253,17.5116131 83.2174747,17.3869343 C82.8664646,17.2622556 82.5294949,17.112304 82.2065657,16.9408707 C81.8976768,16.7669101 81.6028283,16.5699232 81.3781818,16.3549646 L81.2377778,16.2280394 L82.1223232,14.9472737 C82.2065657,14.8331253 82.3188889,14.7393354 82.4592929,14.6701162 C82.5856566,14.6025818 82.740101,14.5681828 82.8945455,14.5681828 C83.0911111,14.5681828 83.2876768,14.6236424 83.4842424,14.7324556 C83.6386869,14.8216121 83.8212121,14.9217202 84.0177778,15.0301121 C84.2143434,15.1334495 84.4389899,15.2292051 84.6776768,15.3148515 C84.9163636,15.3965667 85.2112121,15.4381263 85.5341414,15.4381263 C85.9693939,15.4381263 86.3063636,15.3550071 86.5310101,15.1911556 C86.7416162,15.0402212 86.8539394,14.797603 86.8539394,14.449401 C86.8539394,14.2626636 86.7977778,14.1176263 86.6854545,14.0060051 C86.5590909,13.8761313 86.3906061,13.7659141 86.18,13.6781616 C85.9553535,13.5832485 85.6885859,13.4978828 85.3937374,13.4248727 C85.0988889,13.3490545 84.7759596,13.2634081 84.4530303,13.169899 C84.130101,13.0747051 83.7931313,12.9560636 83.4842424,12.8170636 C83.1613131,12.6724475 82.8664646,12.4792515 82.6137374,12.2429515 C82.3469697,12.0025798 82.1363636,11.7002899 81.9819192,11.3447869 C81.8274747,10.9891434 81.7432323,10.5485556 81.7432323,10.0356596 C81.7432323,9.61641313 81.8415152,9.20208081 82.0240404,8.80487778 C82.2065657,8.40823636 82.4873737,8.05048687 82.8383838,7.74173838 C83.2034343,7.43537677 83.6386869,7.18756364 84.1441414,7.0054596 C84.6636364,6.82433838 85.2533333,6.73223333 85.8991919,6.73223333 C86.2642424,6.73223333 86.6152525,6.75848889 86.9662626,6.80987677 C87.3032323,6.86126465 87.640202,6.93820606 87.9490909,7.03929697 C88.2579798,7.14024747 88.5528283,7.26253939 88.819596,7.40308384 C89.100404,7.54531313 89.3390909,7.70860303 89.5637374,7.88916263 L89.7041414,8.00597879 L88.9459596,9.28140909 C88.8476768,9.4277101 88.7353535,9.53652323 88.6230303,9.60925253 C88.5107071,9.68998485 88.3562626,9.73126364 88.1737374,9.73126364 C88.0192929,9.73126364 87.8508081,9.68858081 87.6823232,9.60461919 C87.5419192,9.53596162 87.3874747,9.4588798 87.2049495,9.37379495 C87.0505051,9.29362424 86.8539394,9.21977172 86.6433333,9.15448384 C86.4327273,9.09242525 86.1940404,9.06111515 85.9272727,9.06111515 C85.4920202,9.06111515 85.1550505,9.14212828 84.9584848,9.30218889 C84.7619192,9.45284242 84.6776768,9.65333939 84.6776768,9.91449091 C84.6776768,10.0655657 84.719798,10.1812586 84.8180808,10.2785586 C84.9584848,10.397902 85.1269697,10.5034859 85.3375758,10.5926424 C85.5622222,10.6885384 85.8289899,10.7776949 86.1238384,10.8578657 C86.4467677,10.9418273 86.7556566,11.0361788 87.0785859,11.1385333 C87.4155556,11.2429939 87.7384848,11.3673919 88.0473737,11.5075152 C88.370303,11.6543778 88.6651515,11.844204 88.9178788,12.0720798 C89.1846465,12.3044485 89.3952525,12.5897495 89.549697,12.9206818 C89.7181818,13.254703 89.7883838,13.6589263 89.7883838,14.1211364 C89.7883838,14.6288374 89.690101,15.1109848 89.5075758,15.5543808 C89.3110101,15.9991808 89.0161616,16.3924525 88.6511111,16.723104 C88.2720202,17.0524919 87.8227273,17.3142051 87.2751515,17.5012232 C86.7416162,17.6869778 86.1378788,17.7810485 85.4639394,17.7810485 Z" id="Path"></path><path d="M96.4575758,17.7806273 C95.6713131,17.7806273 94.9552525,17.668304 94.3234343,17.4470273 C93.6916162,17.2243465 93.1440404,16.9073141 92.6947475,16.5042141 C92.2454545,16.0991485 91.8944444,15.6106828 91.6557576,15.0521556 C91.4311111,14.496296 91.3047475,13.8779566 91.3047475,13.2152495 L91.3047475,6.84610101 L94.4076768,6.84610101 L94.4076768,13.2080889 C94.4076768,13.5482879 94.4638384,13.8540879 94.5480808,14.1172051 C94.6463636,14.3745657 94.7727273,14.5958424 94.9552525,14.7747172 C95.1237374,14.9520475 95.3343434,15.0903455 95.5870707,15.1849778 C95.839798,15.2818566 96.1346465,15.3308576 96.4575758,15.3308576 C96.7945455,15.3308576 97.0893939,15.2818566 97.3421212,15.1849778 C97.5808081,15.0900646 97.8054545,14.9528899 97.9739394,14.7772444 C98.1424242,14.6007566 98.2828283,14.3811646 98.3670707,14.1243657 C98.4653535,13.8609677 98.5074747,13.5551677 98.5074747,13.2152495 L98.5074747,6.84610101 L101.610404,6.84610101 L101.610404,13.2152495 C101.610404,13.8779566 101.498081,14.4965768 101.259394,15.0531384 C101.006667,15.6116657 100.669697,16.0997101 100.220404,16.5042141 C99.7711111,16.9070333 99.2235354,17.2243465 98.5917172,17.4470273 C97.959899,17.668304 97.2438384,17.7806273 96.4575758,17.7806273 Z" id="Path"></path><path d="M114.260808,17.667602 C114.260808,17.667602 114.260808,11.4571101 114.260808,11.447001 L111.677374,15.9813495 C111.565051,16.1829697 111.396566,16.3385374 111.2,16.4435596 C111.017475,16.5461949 110.792828,16.5981444 110.554141,16.5981444 L110.189091,16.5981444 C109.950404,16.5981444 109.725758,16.5461949 109.543232,16.4435596 C109.346667,16.3385374 109.178182,16.1829697 109.065859,15.9810687 L106.482424,11.4645515 L106.482424,17.667602 L103.702424,17.667602 L103.702424,6.85424444 L106.257778,6.85424444 C106.370101,6.85424444 106.468384,6.87039091 106.552626,6.90254343 C106.650909,6.9362404 106.749192,6.98847071 106.819394,7.05797071 C106.889596,7.12227576 106.959798,7.2105899 107.03,7.31996465 L109.978485,12.5977525 C110.090808,12.7784525 110.189091,12.9713677 110.287374,13.1707414 C110.315455,13.2249374 110.343535,13.280397 110.371616,13.336699 C110.399697,13.2766061 110.427778,13.2172152 110.455859,13.1589475 C110.554141,12.9584505 110.666465,12.7618848 110.764747,12.5752879 L113.713232,7.32277273 C113.783434,7.21143232 113.853636,7.12255657 113.923838,7.05797071 C113.99404,6.9881899 114.092323,6.9359596 114.176566,6.90254343 C114.274848,6.87039091 114.373131,6.85424444 114.485455,6.85424444 L117.040808,6.85424444 L117.040808,17.667602 L114.260808,17.667602 Z" id="Path"></path><polygon id="Path" points="119.287273 17.6666192 119.287273 6.84610101 127.121818 6.84610101 127.121818 9.13187879 122.404242 9.13187879 122.404242 11.1242121 126.012626 11.1242121 126.012626 13.3388051 122.404242 13.3388051 122.404242 15.3808414 127.121818 15.3808414 127.121818 17.6666192"></polygon><path d="M132.934545,11.7314596 C133.271515,11.7314596 133.566364,11.6931293 133.79101,11.6178727 C134.015657,11.5448626 134.198182,11.4439121 134.338586,11.3181101 C134.47899,11.1951162 134.577273,11.0495172 134.633434,10.8855253 C134.703636,10.7133899 134.731717,10.5235636 134.731717,10.321803 C134.731717,9.93119899 134.605354,9.63663131 134.324545,9.42111111 C134.029697,9.19702626 133.566364,9.08329899 132.934545,9.08329899 L132.078081,9.08329899 L132.078081,11.7314596 L132.934545,11.7314596 Z M136.177879,17.6680232 C135.658384,17.6680232 135.265253,17.4801626 135.040606,17.1103384 L133.131111,14.0934768 C133.060909,13.9944919 132.990707,13.9249919 132.920505,13.8862404 C132.836263,13.8462253 132.709899,13.8248838 132.541414,13.8248838 L132.078081,13.8248838 L132.078081,17.6680232 L128.975152,17.6680232 L128.975152,6.84750505 L132.934545,6.84750505 C133.77697,6.84750505 134.521111,6.92795657 135.110808,7.08661313 C135.728586,7.24765657 136.23404,7.47693636 136.627172,7.76827475 C137.020303,8.06522929 137.315152,8.42241717 137.497677,8.83029091 C137.680202,9.23156566 137.778485,9.67355758 137.778485,10.1436303 C137.778485,10.5019414 137.722323,10.8460717 137.61,11.1660525 C137.511717,11.4874374 137.343232,11.7883232 137.132626,12.0604263 C136.92202,12.3309848 136.669293,12.5750071 136.360404,12.786596 C136.177879,12.9163293 135.967273,13.0334263 135.742626,13.1353596 C135.798788,13.1662485 135.840909,13.1985414 135.88303,13.2316768 C136.051515,13.3646394 136.20596,13.5279293 136.332323,13.7174747 L139,17.6680232 L136.177879,17.6680232 Z" id="Shape"></path><path d="M48.6219192,31.3447808 L43.820101,20.5245434 L46.3052525,20.5245434 C46.5860606,20.5245434 46.8107071,20.5842152 46.9932323,20.7024354 C47.1757576,20.8222 47.3161616,20.9835242 47.3863636,21.1813535 L49.6187879,26.7434596 C49.7170707,26.9855162 49.8153535,27.2543899 49.9276768,27.5416566 C49.9417172,27.603996 49.969798,27.6674586 49.9838384,27.7314828 C50.0119192,27.668301 50.0259596,27.606102 50.0540404,27.5451667 C50.1523232,27.2563556 50.2506061,26.987201 50.3348485,26.7448636 L52.5532323,21.1826172 C52.6093939,21.0103414 52.749798,20.8563182 52.9323232,20.7250404 C53.1148485,20.5919374 53.3535354,20.5245434 53.620303,20.5245434 L56.1194949,20.5245434 L51.3176768,31.3447808 L48.6219192,31.3447808 Z" id="Path"></path><path d="M62.1147475,22.831803 C61.6373737,22.831803 61.2021212,22.9036899 60.8230303,23.0456384 C60.4579798,23.1854808 60.1350505,23.3883646 59.8823232,23.6488141 C59.629596,23.9102465 59.4330303,24.2359838 59.3066667,24.616198 C59.1662626,25.0021687 59.0960606,25.4447222 59.0960606,25.931503 C59.0960606,26.4227768 59.1662626,26.8675768 59.3066667,27.2536879 C59.4330303,27.633902 59.629596,27.9593586 59.8823232,28.2209313 C60.1350505,28.4812404 60.4579798,28.6828606 60.8230303,28.8201758 C61.2021212,28.9598778 61.6373737,29.0307818 62.1147475,29.0307818 C62.6061616,29.0307818 63.0273737,28.9601586 63.4064646,28.8204566 C63.7715152,28.6828606 64.080404,28.4812404 64.3331313,28.2209313 C64.5858586,27.9596394 64.7824242,27.6341828 64.9228283,27.2536879 C65.0632323,26.867296 65.1334343,26.422496 65.1334343,25.931503 C65.1334343,25.445003 65.0632323,25.0024495 64.9228283,24.616198 C64.7824242,24.235703 64.5858586,23.9102465 64.3331313,23.6485333 C64.080404,23.3883646 63.7715152,23.1852 63.4064646,23.0452172 C63.0273737,22.9036899 62.6061616,22.831803 62.1147475,22.831803 Z M62.1147475,31.4592101 C61.2021212,31.4592101 60.359697,31.3178232 59.6015152,31.0391212 C58.8433333,30.7595768 58.1834343,30.3665859 57.6358586,29.871802 C57.1023232,29.3758949 56.6670707,28.7845131 56.3722222,28.1136626 C56.0773737,27.4429525 55.9229293,26.7086394 55.9229293,25.931503 C55.9229293,25.1539455 56.0773737,24.4197727 56.3722222,23.7489222 C56.6670707,23.0779313 57.1023232,22.4873919 57.6358586,21.9940121 C58.1834343,21.5014747 58.8433333,21.1103091 59.6015152,20.8307646 C60.359697,20.5520626 61.2021212,20.4106758 62.1147475,20.4106758 C63.0414141,20.4106758 63.8838384,20.5531859 64.6420202,20.8348364 C65.3861616,21.1166273 66.0460606,21.5093374 66.5936364,22.0014535 C67.1271717,22.4945525 67.5483838,23.0850919 67.8432323,23.7560828 C68.1521212,24.4269333 68.2925253,25.1588596 68.2925253,25.931503 C68.2925253,26.7086394 68.1521212,27.4429525 67.8432323,28.1136626 C67.5483838,28.7845131 67.1271717,29.3758949 66.5936364,29.8715212 C66.0460606,30.3665859 65.3861616,30.759296 64.6420202,31.0388404 C63.8838384,31.3178232 63.0414141,31.4592101 62.1147475,31.4592101 Z" id="Shape"></path><polygon id="Path" points="69.6544444 31.3447808 72.7714141 31.3447808 72.7714141 20.5245434 69.6544444 20.5245434"></polygon><polygon id="Path" points="87.4857576 31.3447808 87.4857576 20.5245434 95.320303 20.5245434 95.320303 22.8100404 90.6027273 22.8100404 90.6027273 24.8023737 94.2111111 24.8023737 94.2111111 27.0169667 90.6027273 27.0169667 90.6027273 29.059003 95.320303 29.059003 95.320303 31.3447808"></polygon></g></g></g></svg> 