<svg width="24" height="24" viewBox="0 0 24 24" fill="none" xmlns="http://www.w3.org/2000/svg">
<path d="M14 7.99993L11.828 10.1719C11.0779 10.9218 10.0607 11.3431 9 11.3431C7.93934 11.3431 6.92211 10.9218 6.172 10.1719L6 9.99993L10.929 5.07093C12.2552 3.74507 14.0537 3.00024 15.929 3.00024C17.8043 3.00024 19.6028 3.74507 20.929 5.07093V5.07093C22.0427 6.18473 22.7528 7.63836 22.9468 9.20145C23.1408 10.7645 22.8076 12.3477 22 13.6999" stroke="#1E1E1E" stroke-width="1.5" stroke-miterlimit="10" stroke-linecap="square"/>
<path d="M15.2659 11.266L18.8789 14.879C19.4413 15.4416 19.7573 16.2045 19.7573 17C19.7573 17.7955 19.4413 18.5584 18.8789 19.121L17.2429 20.757C16.6858 21.3143 16.0243 21.7563 15.2963 22.0579C14.5682 22.3595 13.7879 22.5147 12.9999 22.5147C12.2119 22.5147 11.4316 22.3595 10.7036 22.0579C9.97557 21.7563 9.31409 21.3143 8.75693 20.757L3.07093 15.071C1.74507 13.7448 1.00024 11.9463 1.00024 10.071C1.00024 8.19571 1.74507 6.3972 3.07093 5.071V5.071C4.37817 3.76011 6.1487 3.01619 7.99993 3" stroke="#1E1E1E" stroke-width="1.5" stroke-miterlimit="10" stroke-linecap="square"/>
<path d="M18.391 19.609L14.5 15.719" stroke="#1E1E1E" stroke-width="1.5" stroke-miterlimit="10"/>
<path d="M15.5128 21.965L11.8828 18.335" stroke="#1E1E1E" stroke-width="1.5" stroke-miterlimit="10"/>
</svg>
