<?xml version="1.0" encoding="UTF-8"?> <svg xmlns="http://www.w3.org/2000/svg" xmlns:xlink="http://www.w3.org/1999/xlink" height="90" viewBox="0 0 90 90" width="90"><clipPath id="a"><path d="m0 0h90v90h-90z"></path></clipPath><g clip-path="url(#a)"><g transform="translate(-2249.467 -668.422)"><g fill="#252424"><path d="m2319 748.352h-51.443a.97.97 0 0 1 -.956-.8l-5.1-29.268a2.313 2.313 0 0 1 2.278-2.707h58.992a2.311 2.311 0 0 1 2.277 2.707l-5.1 29.268a.97.97 0 0 1 -.948.8zm-50.628-1.94h49.813l4.957-28.464a.363.363 0 0 0 -.082-.3.368.368 0 0 0 -.285-.133h-58.995a.369.369 0 0 0 -.286.133.363.363 0 0 0 -.081.3z"></path><path d="m2309.365 714.126a.969.969 0 0 1 -.969-.969v-12.7c0-7.6-6.783-13.779-15.121-13.779a.969.969 0 0 1 0-1.939c9.407 0 17.059 7.051 17.059 15.718v12.7a.968.968 0 0 1 -.969.969z"></path><path d="m2277.186 714.126a.968.968 0 0 1 -.969-.969v-12.7a.969.969 0 0 1 1.938 0v12.7a.969.969 0 0 1 -.969.969z"></path><path d="m2304 714.126a.969.969 0 0 1 -.969-.969v-7.086c-.434-.707-2.349-3.307-7.076-3.307-6.1 0-10.355-2.6-10.355-6.332a.969.969 0 0 1 1.939 0c0 2.546 3.539 4.394 8.416 4.394 6.62 0 8.826 4.381 8.917 4.568a.972.972 0 0 1 .1.424v7.339a.968.968 0 0 1 -.972.969z"></path><path d="m2282.549 714.126a.968.968 0 0 1 -.969-.969v-6c0-3.715 4-7.038 5.714-8.458a.969.969 0 0 1 1.237 1.491c-1.37 1.139-5.012 4.162-5.012 6.967v6a.969.969 0 0 1 -.97.969z"></path><path d="m2290.594 711.445h-4.022a.969.969 0 1 1 0-1.938h4.022a.969.969 0 1 1 0 1.938z"></path><path d="m2299.979 711.445h-4.022a.969.969 0 0 1 0-1.938h4.022a.969.969 0 1 1 0 1.938z"></path></g><path d="m2293.275 736.285a4.992 4.992 0 1 1 4.992-4.992 5 5 0 0 1 -4.992 4.992zm0-8.045a3.053 3.053 0 1 0 3.054 3.053 3.056 3.056 0 0 0 -3.054-3.053z" fill="#6ead2f"></path><path d="m2275.286 668.422a13.5 13.5 0 1 1 -13.5 13.5 13.5 13.5 0 0 1 13.5-13.5z" fill="#256e2f"></path><path d="m4.72-11.2v11.2h-2.192v-8.976l-2.192.9v-1.9l2.992-1.224z" fill="#fff" transform="translate(2271.746 687.612)"></path></g></g></svg> 