<svg fill="none" height="30" viewBox="0 0 30 30" width="30" xmlns="http://www.w3.org/2000/svg"><g clip-rule="evenodd" fill="#1e1e1e" fill-rule="evenodd"><path d="m6.875 6.75c-.62175 0-1.125.50325-1.125 1.125s.50325 1.125 1.125 1.125 1.125-.50325 1.125-1.125-.50325-1.125-1.125-1.125zm-2.875 1.125c0-1.58825 1.28675-2.875 2.875-2.875s2.875 1.28675 2.875 2.875-1.28675 2.875-2.875 2.875-2.875-1.28675-2.875-2.875z"/><path d="m5.875 13.75c-.62175 0-1.125.5032-1.125 1.125v4.125h2v4h3v1.75h-4.75v-4h-2v-5.875c0-1.5882 1.28675-2.875 2.875-2.875h1.875v1.75z"/><path d="m20 7.875c0-1.58825 1.2868-2.875 2.875-2.875s2.875 1.28675 2.875 2.875-1.2868 2.875-2.875 2.875-2.875-1.28675-2.875-2.875zm2.875-1.125c-.6218 0-1.125.50325-1.125 1.125s.5032 1.125 1.125 1.125 1.125-.50325 1.125-1.125-.5032-1.125-1.125-1.125z"/><path d="m22 12h1.875c1.5882 0 2.875 1.2868 2.875 2.875v5.875h-2v4h-4.75v-1.75h3v-4h2v-4.125c0-.6218-.5032-1.125-1.125-1.125h-1.875z"/><path d="m14.875 4.75c-1.1738 0-2.125.95125-2.125 2.125s.9512 2.125 2.125 2.125 2.125-.95125 2.125-2.125-.9512-2.125-2.125-2.125zm-3.875 2.125c0-2.14025 1.7348-3.875 3.875-3.875s3.875 1.73475 3.875 3.875-1.7348 3.875-3.875 3.875-3.875-1.73475-3.875-3.875z"/><path d="m11.875 13.75c-.6218 0-1.125.5032-1.125 1.125v4.125h2v6h4.25v-5h2v-5.125c0-.6218-.5032-1.125-1.125-1.125zm-2.875 1.125c0-1.5882 1.2868-2.875 2.875-2.875h6c1.5882 0 2.875 1.2868 2.875 2.875v6.875h-2v5h-7.75v-6h-2z"/></g></svg>