<?xml version="1.0" encoding="UTF-8"?> <svg xmlns="http://www.w3.org/2000/svg" xmlns:xlink="http://www.w3.org/1999/xlink" width="90" height="90" viewBox="0 0 90 90"><defs><clipPath id="b"><rect width="90" height="90"></rect></clipPath></defs><g id="a" clip-path="url(#b)"><g transform="translate(3.995 0.469)"><g transform="translate(0 23.6)"><g transform="translate(0 0)"><path d="M1273.894,230.747h-66.8a8.006,8.006,0,0,1-8-8v-3.516a.965.965,0,0,1,.966-.966h31.641a.961.961,0,0,1,.535.162l5.03,3.354h8.1l3.233-3.233a.968.968,0,0,1,.683-.282h31.64a.965.965,0,0,1,.966.966v3.516A8.005,8.005,0,0,1,1273.894,230.747ZM1201.032,220.2v2.55a6.073,6.073,0,0,0,6.065,6.065h66.8a6.072,6.072,0,0,0,6.065-6.065V220.2h-30.275l-3.233,3.233a.969.969,0,0,1-.683.283h-8.788a.963.963,0,0,1-.536-.163l-5.029-3.353Z" transform="translate(-1199.1 -169.05)" fill="#252424"></path><path d="M1207.573,200.841a.966.966,0,0,1-.966-.966v-45.7a.966.966,0,1,1,1.932,0v45.7A.966.966,0,0,1,1207.573,200.841Z" transform="translate(-1201.334 -149.69)" fill="#252424"></path><path d="M1290.9,199.352a.966.966,0,0,1-.966-.966v-45.7a2.552,2.552,0,0,0-2.55-2.55H1251.3a.966.966,0,0,1,0-1.932h36.083a4.487,4.487,0,0,1,4.482,4.482v45.7A.966.966,0,0,1,1290.9,199.352Z" transform="translate(-1214.344 -148.201)" fill="#252424"></path><g transform="translate(34.36 11.67)"><path d="M1278.21,166.746h-29.23a.966.966,0,0,1,0-1.932h29.23a.966.966,0,0,1,0,1.932Z" transform="translate(-1248.015 -164.814)" fill="#252424"></path><path d="M1272.435,174.31h-23.454a.966.966,0,0,1,0-1.932h23.454a.966.966,0,1,1,0,1.932Z" transform="translate(-1248.015 -167.065)" fill="#252424"></path></g><path d="M1227.457,173.518a6.155,6.155,0,1,1,0-12.31.878.878,0,0,1,0,1.756,4.4,4.4,0,1,0,4.4,4.4.878.878,0,0,1,1.756,0A6.162,6.162,0,0,1,1227.457,173.518Z" transform="translate(-1205.706 -152.071)" fill="#6ead2f"></path><path d="M1228.9,170.247a.877.877,0,0,1-.621-.257l-2.467-2.467a.878.878,0,0,1,1.242-1.242l1.8,1.8,4.315-5.034a.878.878,0,1,1,1.333,1.143l-4.932,5.754a.88.88,0,0,1-.634.306Z" transform="translate(-1206.971 -152.526)" fill="#6ead2f"></path><path d="M1227.457,200.926a6.156,6.156,0,1,1,0-12.311.878.878,0,0,1,0,1.756,4.4,4.4,0,1,0,4.4,4.4.878.878,0,0,1,1.756,0A6.162,6.162,0,0,1,1227.457,200.926Z" transform="translate(-1205.706 -160.226)" fill="#6ead2f"></path><path d="M1228.9,197.654a.877.877,0,0,1-.621-.257l-2.467-2.467a.878.878,0,1,1,1.242-1.241l1.8,1.8,4.315-5.034a.878.878,0,1,1,1.333,1.143l-4.932,5.754a.88.88,0,0,1-.634.306Z" transform="translate(-1206.971 -160.681)" fill="#6ead2f"></path><g transform="translate(34.36 31.307)"><path d="M1278.21,194.7h-29.23a.966.966,0,0,1,0-1.932h29.23a.966.966,0,0,1,0,1.932Z" transform="translate(-1248.015 -192.769)" fill="#252424"></path><path d="M1272.435,202.265h-23.454a.966.966,0,0,1,0-1.932h23.454a.966.966,0,1,1,0,1.932Z" transform="translate(-1248.015 -195.02)" fill="#252424"></path></g></g></g><g transform="translate(6.63 0)"><g transform="translate(0 0)"><path d="M1221.84,114.6a13.3,13.3,0,1,1-13.3,13.3h0A13.3,13.3,0,0,1,1221.84,114.6Z" transform="translate(-1208.539 -114.604)" fill="#256e2f"></path><g transform="translate(8.61 7.674)" style="isolation:isolate"><g style="isolation:isolate"><path d="M1229.766,133.838a2.686,2.686,0,0,1-.339,1.321,3.166,3.166,0,0,1-.942,1.047,4.793,4.793,0,0,1-1.433.684,6.265,6.265,0,0,1-1.812.25,6.657,6.657,0,0,1-2.48-.467,5.5,5.5,0,0,1-1.965-1.288l1.481-1.37a3.672,3.672,0,0,0,2.947,1.225,2.936,2.936,0,0,0,1.674-.436,1.312,1.312,0,0,0,.645-1.127,1.132,1.132,0,0,0-.588-1,2.886,2.886,0,0,0-1.554-.37h-1.031v-1.755h.805a2.239,2.239,0,0,0,1.45-.467,1.449,1.449,0,0,0,.579-1.176,1.253,1.253,0,0,0-.571-1.046,2.373,2.373,0,0,0-1.441-.419,3.356,3.356,0,0,0-1.45.3,5.094,5.094,0,0,0-1.352,1.023l-1.5-1.368a5.887,5.887,0,0,1,1.981-1.37,6.015,6.015,0,0,1,2.4-.5,5.7,5.7,0,0,1,1.666.233,4.123,4.123,0,0,1,1.312.653,3.026,3.026,0,0,1,.853,1,2.8,2.8,0,0,1-.144,2.794,3.208,3.208,0,0,1-1.224,1.087,3.252,3.252,0,0,1,1.474,1A2.371,2.371,0,0,1,1229.766,133.838Z" transform="translate(-1220.796 -125.529)" fill="#fff"></path></g></g></g></g></g></g></svg> 