<svg fill="none" height="30" viewBox="0 0 30 30" width="30" xmlns="http://www.w3.org/2000/svg"><path clip-rule="evenodd" d="m8.06136 5.24353c.9285-.25393 1.89997-.31005 2.85154-.16473.9516.14532 1.862.48884 2.6724 1.00833.4788.30695.9164.67129 1.3035 1.08389.0451-.04784.0909-.09505.1374-.14161 1.2893-1.28886 3.0382-2.01348 4.8612-2.01348s3.5714.72405 4.8606 2.01291l.8588.85852-.0986.04929c.8083 1.14995 1.2504 2.52895 1.2504 3.95355 0 1.8227-.7238 3.5708-2.0123 4.86l-9.8599 9.8599-9.85665-9.8577c-.00035-.0003-.0007-.0007-.00105-.001-.6824-.6782-1.21487-1.4921-1.56296-2.389-.34826-.8974-.5042-1.8579-.45772-2.8194.04649-.9615.29436-1.90247.72757-2.76207.43322-.85961 1.04211-1.61866 1.78728-2.22802.74517-.60935 1.60999-1.05544 2.53849-1.30938zm15.34514 2.92158c-.95-.89731-2.2087-1.39918-3.5191-1.39918-1.3587 0-2.6618.53953-3.6228 1.49997-.2422.24255-.4597.50852-.6494.794l-.7321 1.1019-.7275-1.10499c-.3946-.59934-.9106-1.10914-1.5148-1.4964-.6041-.38726-1.2827-.64334-1.9921-.75167-.70934-.10833-1.43353-.06649-2.12569.1228-.69215.1893-1.33684.52184-1.89232.97609-.55549.45425-1.0094 1.02008-1.33234 1.66088-.32294.64079-.50772 1.34229-.54237 2.05899s.08159 1.4328.34121 2.1017c.25962.669.65682 1.276 1.1659 1.7817l.00208.0021 8.62133 8.6222 8.622-8.6221c.0001-.0001 0 .0001 0 0 .9605-.961 1.5001-2.2643 1.5001-3.6229 0-1.3588-.5395-2.66195-1.5001-3.623z" fill="#1e1e1e" fill-rule="evenodd"/></svg>