<?xml version="1.0" encoding="UTF-8"?> <svg xmlns="http://www.w3.org/2000/svg" xmlns:xlink="http://www.w3.org/1999/xlink" width="50" height="50" viewBox="0 0 50 50"><defs><clipPath id="b"><rect width="50" height="50"></rect></clipPath></defs><g id="a" clip-path="url(#b)"><g transform="translate(-1098.914 -1262.677)"><path d="M1148.085,1277.518a.828.828,0,0,1-.828-.828v-3.157a7.97,7.97,0,0,0-9.33,0v3.157a.828.828,0,0,1-1.657,0v-3.3c0-1.642,3.884-3.027,6.322-3.027s6.322,1.385,6.322,3.027v3.3A.829.829,0,0,1,1148.085,1277.518Z" fill="#252424"></path><path d="M1142.592,1272.025a4.288,4.288,0,0,1-4.125-4.125v-1.1a4.125,4.125,0,0,1,8.25,0v1.1A4.288,4.288,0,0,1,1142.592,1272.025Zm0-7.691a2.673,2.673,0,0,0-2.468,2.468v1.1a2.468,2.468,0,0,0,4.936,0v-1.1A2.673,2.673,0,0,0,1142.592,1264.334Z" fill="#252424"></path><path d="M1148.085,1312.677a.829.829,0,0,1-.828-.829v-3.156a7.965,7.965,0,0,0-9.33,0v3.156a.828.828,0,1,1-1.657,0v-3.3c0-1.641,3.884-3.026,6.322-3.026s6.322,1.385,6.322,3.026v3.3A.829.829,0,0,1,1148.085,1312.677Z" fill="#252424"></path><path d="M1142.592,1307.183a4.288,4.288,0,0,1-4.125-4.125v-1.1a4.125,4.125,0,0,1,8.25,0v1.1A4.288,4.288,0,0,1,1142.592,1307.183Zm0-7.691a2.673,2.673,0,0,0-2.468,2.467v1.1a2.468,2.468,0,0,0,4.936,0v-1.1A2.673,2.673,0,0,0,1142.592,1299.492Z" fill="#252424"></path><path d="M1123.969,1303.89a15.153,15.153,0,0,1-15.127-15.09,15.046,15.046,0,0,1,15.054-15.094,15.154,15.154,0,0,1,15.127,15.09,15.048,15.048,0,0,1-15.054,15.094Zm-.073-28.527a13.389,13.389,0,0,0-13.4,13.433,13.492,13.492,0,0,0,13.469,13.437,13.389,13.389,0,0,0,13.4-13.433A13.493,13.493,0,0,0,1123.9,1275.363Z" fill="#252424"></path><path d="M1144.79,1296.546a.83.83,0,0,1-.787-1.088,21.209,21.209,0,0,0-1.818-17.251.829.829,0,1,1,1.432-.835,22.858,22.858,0,0,1,1.96,18.6A.829.829,0,0,1,1144.79,1296.546Z" fill="#6ead2f"></path><path d="M1110.73,1277.518a.829.829,0,0,1-.829-.828v-3.157a7.968,7.968,0,0,0-9.329,0v3.157a.829.829,0,0,1-1.658,0v-3.3c0-1.642,3.884-3.027,6.322-3.027s6.323,1.385,6.323,3.027v3.3A.829.829,0,0,1,1110.73,1277.518Z" fill="#252424"></path><path d="M1105.236,1272.025a4.288,4.288,0,0,1-4.124-4.125v-1.1a4.124,4.124,0,1,1,8.249,0v1.1A4.288,4.288,0,0,1,1105.236,1272.025Zm0-7.691a2.672,2.672,0,0,0-2.467,2.468v1.1a2.467,2.467,0,0,0,4.935,0v-1.1A2.673,2.673,0,0,0,1105.236,1264.334Z" fill="#252424"></path><path d="M1110.73,1312.677a.829.829,0,0,1-.829-.829v-3.156a7.964,7.964,0,0,0-9.329,0v3.156a.829.829,0,0,1-1.658,0v-3.3c0-1.641,3.884-3.026,6.322-3.026s6.323,1.385,6.323,3.026v3.3A.829.829,0,0,1,1110.73,1312.677Z" fill="#252424"></path><path d="M1105.236,1307.183a4.287,4.287,0,0,1-4.124-4.125v-1.1a4.124,4.124,0,0,1,8.249,0v1.1A4.288,4.288,0,0,1,1105.236,1307.183Zm0-7.691a2.672,2.672,0,0,0-2.467,2.467v1.1a2.467,2.467,0,1,0,4.935,0v-1.1A2.673,2.673,0,0,0,1105.236,1299.492Z" fill="#252424"></path><path d="M1103,1296.546a.83.83,0,0,1-.788-.57,22.859,22.859,0,0,1,1.96-18.6.829.829,0,1,1,1.432.835,21.2,21.2,0,0,0-1.817,17.25.83.83,0,0,1-.528,1.047A.842.842,0,0,1,1103,1296.546Z" fill="#6ead2f"></path><path d="M1123.989,1311.578h-.188a22.521,22.521,0,0,1-10.186-2.4.829.829,0,1,1,.744-1.482,20.861,20.861,0,0,0,9.442,2.224h.188a20.867,20.867,0,0,0,9.442-2.224.828.828,0,1,1,.743,1.481A22.508,22.508,0,0,1,1123.989,1311.578Z" fill="#6ead2f"></path><path d="M1112.894,1270.61a.829.829,0,0,1-.417-1.546,22.825,22.825,0,0,1,11.39-3.091h.056a22.806,22.806,0,0,1,11.389,3.081.829.829,0,0,1-.832,1.434,21,21,0,0,0-21.171.01A.835.835,0,0,1,1112.894,1270.61Z" fill="#6ead2f"></path><path d="M1123.894,1303.89c-4.788,0-8.54-6.637-8.54-15.11s3.751-15.111,8.54-15.111,8.54,6.637,8.54,15.111S1128.683,1303.89,1123.894,1303.89Zm0-28.564c-3.731,0-6.883,6.161-6.883,13.454s3.153,13.453,6.883,13.453,6.882-6.161,6.882-13.453S1127.624,1275.326,1123.894,1275.326Z" fill="#252424"></path><path d="M1137.1,1284.11H1110.73a.828.828,0,1,1,0-1.657H1137.1a.828.828,0,0,1,0,1.657Z" fill="#252424"></path><path d="M1137.1,1295.1H1110.73a.829.829,0,0,1,0-1.658H1137.1a.829.829,0,0,1,0,1.658Z" fill="#252424"></path><path d="M1123.914,1303.887a.829.829,0,0,1-.829-.829v-28.566a.829.829,0,0,1,1.658,0v28.566A.829.829,0,0,1,1123.914,1303.887Z" fill="#252424"></path></g></g></svg> 