<?xml version="1.0" encoding="UTF-8"?> <svg xmlns="http://www.w3.org/2000/svg" xmlns:xlink="http://www.w3.org/1999/xlink" width="50" height="50" viewBox="0 0 50 50"><defs><clipPath id="b"><rect width="50" height="50"></rect></clipPath></defs><g id="a" clip-path="url(#b)"><g transform="translate(1.077 2.469)"><g transform="translate(0 0)"><path d="M193.984,620.278v-4.189h28.389v4.189" transform="translate(-191.019 -616.088)" fill="none" stroke="#252424" stroke-linecap="round" stroke-linejoin="round" stroke-width="1.6"></path><rect width="5.244" height="8.379" transform="translate(17.786 36.656)" fill="none" stroke="#252424" stroke-linecap="round" stroke-linejoin="round" stroke-width="1.6"></rect><rect width="5.244" height="8.379" transform="translate(12.542 36.656)" fill="none" stroke="#252424" stroke-linecap="round" stroke-linejoin="round" stroke-width="1.6"></rect><rect width="5.244" height="8.379" transform="translate(38.929 36.656)" fill="none" stroke="#252424" stroke-linecap="round" stroke-linejoin="round" stroke-width="1.6"></rect><path d="M220.4,657.96v-4.189h4.2v4.189" transform="translate(-204.937 -635.941)" fill="none" stroke="#252424" stroke-linecap="round" stroke-linejoin="round" stroke-width="1.6"></path><path d="M220.4,675.668v-4.189h4.2v4.189" transform="translate(-204.937 -645.271)" fill="none" stroke="#252424" stroke-linecap="round" stroke-linejoin="round" stroke-width="1.6"></path><path d="M240.352,657.96v-4.189h4.2v4.189" transform="translate(-215.448 -635.941)" fill="none" stroke="#252424" stroke-linecap="round" stroke-linejoin="round" stroke-width="1.6"></path><path d="M220.4,640.252v-4.189h4.2v4.189" transform="translate(-204.937 -626.612)" fill="none" stroke="#252424" stroke-linecap="round" stroke-linejoin="round" stroke-width="1.6"></path><path d="M198.8,657.96v-4.189H203v4.189" transform="translate(-193.557 -635.941)" fill="none" stroke="#252424" stroke-linecap="round" stroke-linejoin="round" stroke-width="1.6"></path><path d="M198.8,675.668v-4.189H203v4.189" transform="translate(-193.557 -645.271)" fill="none" stroke="#252424" stroke-linecap="round" stroke-linejoin="round" stroke-width="1.6"></path><path d="M198.8,640.252v-4.189H203v4.189" transform="translate(-193.557 -626.612)" fill="none" stroke="#252424" stroke-linecap="round" stroke-linejoin="round" stroke-width="1.6"></path><path d="M271.142,684.072v-3.849h4.2v3.849" transform="translate(-231.67 -649.878)" fill="none" stroke="#252424" stroke-linecap="round" stroke-linejoin="round" stroke-width="1.6"></path><path d="M240.352,640.252v-4.189h4.2v4.189" transform="translate(-215.448 -626.612)" fill="none" stroke="#252424" stroke-linecap="round" stroke-linejoin="round" stroke-width="1.6"></path><path d="M240.352,675.668v-4.189h4.2v4.189" transform="translate(-215.448 -645.271)" fill="none" stroke="#252424" stroke-linecap="round" stroke-linejoin="round" stroke-width="1.6"></path><path d="M266.953,691.443h9.7v-17.8h-9.7" transform="translate(-229.462 -646.409)" fill="none" stroke="#252424" stroke-linecap="round" stroke-linejoin="round" stroke-width="1.6"></path><path d="M274.56,668.974v-4.189h-7.607" transform="translate(-229.462 -641.744)" fill="none" stroke="#252424" stroke-linecap="round" stroke-linejoin="round" stroke-width="1.6"></path><rect width="34.344" height="40.845" transform="translate(0 4.189)" fill="none" stroke="#252424" stroke-linecap="round" stroke-linejoin="round" stroke-width="1.6"></rect><rect width="25.235" height="3.627" transform="translate(4.385 32.913)" fill="none" stroke="#252424" stroke-linecap="round" stroke-linejoin="round" stroke-width="1.6"></rect></g><g transform="translate(38.463 5.756)"><path d="M269.219,639.211a.417.417,0,0,1-.073-.673l.234-.336a.446.446,0,0,1,.687-.088,3.642,3.642,0,0,0,.373.256,4.176,4.176,0,0,0,.512.264,3.654,3.654,0,0,0,.629.2,3.175,3.175,0,0,0,.724.081,2.249,2.249,0,0,0,.688-.1,1.852,1.852,0,0,0,.57-.292,1.383,1.383,0,0,0,.4-.476,1.406,1.406,0,0,0,.146-.651,1.177,1.177,0,0,0-.373-.885,3.866,3.866,0,0,0-.936-.644q-.564-.285-1.221-.563a7.791,7.791,0,0,1-1.222-.643,3.454,3.454,0,0,1-.936-.885,2.189,2.189,0,0,1-.373-1.309,2.642,2.642,0,0,1,.2-1.009,2.772,2.772,0,0,1,.549-.856,3.084,3.084,0,0,1,.848-.629,3.488,3.488,0,0,1,1.112-.344v-.892a.42.42,0,0,1,.468-.483h.117q.454,0,.454.424v.936a3.682,3.682,0,0,1,1.331.292,5.554,5.554,0,0,1,.834.454.4.4,0,0,1,.212.285.649.649,0,0,1-.08.373l-.19.366q-.234.41-.673.132a5.608,5.608,0,0,0-.754-.38,2.768,2.768,0,0,0-1.1-.2,2.323,2.323,0,0,0-.753.117,1.787,1.787,0,0,0-.592.329,1.584,1.584,0,0,0-.388.483,1.246,1.246,0,0,0-.139.578,1.094,1.094,0,0,0,.373.848,3.911,3.911,0,0,0,.936.607q.563.271,1.221.534a6.489,6.489,0,0,1,1.222.643,3.53,3.53,0,0,1,.936.922,2.345,2.345,0,0,1,.373,1.36,2.864,2.864,0,0,1-.19,1.046,2.718,2.718,0,0,1-.541.871,2.963,2.963,0,0,1-.863.636,3.462,3.462,0,0,1-1.17.329v.863q0,.483-.454.483h-.117q-.468,0-.468-.424v-.922a4.676,4.676,0,0,1-.871-.161,4.467,4.467,0,0,1-.717-.271,4.752,4.752,0,0,1-.556-.315Q269.365,639.328,269.219,639.211Z" transform="translate(-269.008 -628.254)" fill="#6ead2f"></path></g></g></g></svg> 