<?xml version="1.0" encoding="UTF-8"?> <svg xmlns="http://www.w3.org/2000/svg" xmlns:xlink="http://www.w3.org/1999/xlink" width="50" height="50" viewBox="0 0 50 50"><defs><clipPath id="b"><rect width="50" height="50"></rect></clipPath></defs><g id="a" clip-path="url(#b)"><g transform="translate(-133.735 -287.95)"><path d="M178.72,302.023a2.777,2.777,0,0,1-.707-.1,4.252,4.252,0,0,1-1.947-1.205h0l-.186-.2a4.243,4.243,0,0,1-1.1-2.007,2.164,2.164,0,0,1,.531-2.065l2.652-2.5a3.136,3.136,0,0,1,2.35-.857,3.385,3.385,0,0,1,2.3,1.061l.186.2a3.294,3.294,0,0,1-.04,4.653l-2.652,2.5A1.967,1.967,0,0,1,178.72,302.023Zm-1.452-2.441a2.618,2.618,0,0,0,1.166.743.624.624,0,0,0,.527-.022l2.654-2.5a1.637,1.637,0,0,0-.024-2.307l-.186-.2a1.735,1.735,0,0,0-1.176-.547,1.524,1.524,0,0,0-1.129.406l-2.652,2.5a.628.628,0,0,0-.047.523,2.622,2.622,0,0,0,.681,1.2Z" fill="#252424"></path><path d="M153.939,337.388a.829.829,0,0,1-.6-1.4c.066-.069,1.635-1.686,2.8-2.788a.832.832,0,0,1,.63-.224,12.792,12.792,0,0,0,12.174-5.794c.177-.244.319-.438.427-.564a.829.829,0,1,1,1.259,1.078c-.087.1-.2.259-.342.457a14.282,14.282,0,0,1-13.27,6.5c-1.108,1.064-2.475,2.474-2.49,2.489A.823.823,0,0,1,153.939,337.388Z" fill="#252424"></path><path d="M179.149,322.47a3.678,3.678,0,0,1-2.335-.959h0l-.186-.161a3.9,3.9,0,0,1-1.2-1.769,2.073,2.073,0,0,1,.324-2l2.224-2.558a3.1,3.1,0,0,1,4.366-.275l.186.161a3.134,3.134,0,0,1,1.084,2.112,3.016,3.016,0,0,1-.718,2.249l-2.224,2.558A1.952,1.952,0,0,1,179.149,322.47Zm-1.253-2.214c.692.6,1.394.631,1.519.488l2.224-2.558a1.361,1.361,0,0,0,.319-1.02,1.487,1.487,0,0,0-.515-1l-.186-.16a1.44,1.44,0,0,0-2.03.105L177,318.667a.549.549,0,0,0,.009.432,2.275,2.275,0,0,0,.7,1Z" fill="#252424"></path><path d="M134.563,332.838a.829.829,0,0,1-.605-1.394c3.775-4.042,9.469-10.167,10.126-10.953a12.042,12.042,0,0,0,.214-2.609,19.7,19.7,0,0,1,.894-6.43c.715-1.858,1.1-3.128,1.788-5.435.372-1.238.827-2.757,1.465-4.8a2.54,2.54,0,0,1,2.081-1.7,2.726,2.726,0,0,1,2.683,1.055,7.561,7.561,0,0,1,1.583,5.156,32.309,32.309,0,0,1-1.493,7.7,18.086,18.086,0,0,1,1.983,16.212.828.828,0,1,1-1.564-.547,16.247,16.247,0,0,0-1.991-15,.828.828,0,0,1-.136-.776,30.83,30.83,0,0,0,1.551-7.746,5.964,5.964,0,0,0-1.282-4.037,1.106,1.106,0,0,0-1.072-.382.93.93,0,0,0-.761.559c-.635,2.033-1.089,3.546-1.459,4.78-.681,2.268-1.091,3.637-1.829,5.554a18.447,18.447,0,0,0-.783,5.875,9.687,9.687,0,0,1-.4,3.336c-.072.154-.18.386-10.39,11.316A.825.825,0,0,1,134.563,332.838Z" fill="#252424"></path><path d="M179.2,315.521a3.731,3.731,0,0,1-2.366-.973h0l-.19-.163c-1.343-1.159-1.735-2.834-.891-3.813l2.262-2.6a3.138,3.138,0,0,1,4.422-.278l.19.164a3.179,3.179,0,0,1,1.1,2.138,3.044,3.044,0,0,1-.727,2.278l-2.262,2.6A1.974,1.974,0,0,1,179.2,315.521Zm-1.283-2.228c.742.639,1.442.637,1.565.495l2.262-2.6a1.4,1.4,0,0,0,.329-1.048,1.533,1.533,0,0,0-.529-1.029l-.19-.164a1.481,1.481,0,0,0-2.086.109l-2.262,2.6c-.121.14-.021.833.721,1.473Z" fill="#252424"></path><path d="M179.2,308.733a3.726,3.726,0,0,1-2.365-.973h0l-.19-.164a3.952,3.952,0,0,1-1.217-1.792,2.1,2.1,0,0,1,.326-2.02l2.263-2.6a3.051,3.051,0,0,1,2.145-1.051,3.186,3.186,0,0,1,2.277.773l.189.163a3.18,3.18,0,0,1,1.1,2.139,3.054,3.054,0,0,1-.727,2.278l-2.263,2.6A1.972,1.972,0,0,1,179.2,308.733Zm-1.283-2.228c.742.64,1.443.637,1.565.495l2.263-2.6a1.407,1.407,0,0,0,.329-1.048,1.533,1.533,0,0,0-.529-1.029l-.19-.163a1.542,1.542,0,0,0-1.1-.373,1.4,1.4,0,0,0-.99.481l-2.263,2.6a.573.573,0,0,0,.006.453,2.337,2.337,0,0,0,.715,1.02Z" fill="#252424"></path><path d="M166.683,323.9h-3.322a.829.829,0,0,1,0-1.658h3.322a.829.829,0,0,1,0,1.658Z" fill="#252424"></path><path d="M152.006,300.086h-1.658V292.1a4.15,4.15,0,0,1,4.151-4.15h19.937a4.156,4.156,0,0,1,4.151,4.151v2.93a.828.828,0,1,1-1.657,0V292.1a2.5,2.5,0,0,0-2.494-2.494H154.5a2.494,2.494,0,0,0-2.494,2.493Z" fill="#252424"></path><path d="M174.437,327.98H155.513a.829.829,0,1,1,0-1.657h18.924a2.5,2.5,0,0,0,2.494-2.494v-2.216a.828.828,0,0,1,1.657,0v2.216A4.156,4.156,0,0,1,174.437,327.98Z" fill="#252424"></path><path d="M153.939,336.559" fill="none" stroke="#252424" stroke-linecap="round" stroke-linejoin="round" stroke-width="1.657"></path><path d="M160.381,304.873a3.922,3.922,0,1,1,3.923-3.922A3.927,3.927,0,0,1,160.381,304.873Zm0-6.187a2.265,2.265,0,1,0,2.265,2.265A2.267,2.267,0,0,0,160.381,298.686Z" fill="#6ead2f"></path><path d="M169.663,315.186a3.923,3.923,0,1,1,3.922-3.923A3.928,3.928,0,0,1,169.663,315.186Zm0-6.188a2.266,2.266,0,1,0,2.265,2.265A2.267,2.267,0,0,0,169.663,309Z" fill="#6ead2f"></path><path d="M159.35,314.155a.828.828,0,0,1-.651-1.341l11.343-14.438a.829.829,0,1,1,1.3,1.024L160,313.838A.828.828,0,0,1,159.35,314.155Z" fill="#6ead2f"></path></g></g></svg> 