<?xml version="1.0" encoding="UTF-8"?> <svg xmlns="http://www.w3.org/2000/svg" xmlns:xlink="http://www.w3.org/1999/xlink" width="50" height="50" viewBox="0 0 50 50"><defs><clipPath id="b"><rect width="50" height="50"></rect></clipPath></defs><g id="a" clip-path="url(#b)"><g transform="translate(0.778 4.952)"><path d="M699.659,151.332h18.98a24.115,24.115,0,0,0-48.222,0h18.612" transform="translate(-670.417 -127.645)" fill="none" stroke="#252424" stroke-linecap="round" stroke-linejoin="round" stroke-width="1.6"></path><g transform="translate(28.578 11.5)"><path d="M745.424,165.769l7.941-7.941h-3.677" transform="translate(-745.424 -157.828)" fill="none" stroke="#6ead2f" stroke-linecap="round" stroke-linejoin="round" stroke-width="1.6"></path><line y1="3.677" transform="translate(7.94)" fill="none" stroke="#6ead2f" stroke-linecap="round" stroke-linejoin="round" stroke-width="1.6"></line></g><path d="M682.463,208.386l1.371,2.777,3.065.445-2.218,2.162.523,3.052-2.741-1.441-2.741,1.441.523-3.052-2.218-2.162,3.065-.445Z" transform="translate(-675.128 -177.624)" fill="none" stroke="#6ead2f" stroke-linecap="round" stroke-linejoin="round" stroke-width="1.6"></path><path d="M712.1,208.386l1.371,2.777,3.065.445-2.218,2.162.523,3.052-2.741-1.441-2.741,1.441.523-3.052-2.218-2.162,3.065-.445Z" transform="translate(-693.476 -177.624)" fill="none" stroke="#6ead2f" stroke-linecap="round" stroke-linejoin="round" stroke-width="1.6"></path><path d="M741.824,208.386l1.371,2.777,3.065.445-2.218,2.162.523,3.052-2.741-1.441-2.741,1.441.524-3.052-2.218-2.162,3.065-.445Z" transform="translate(-711.872 -177.624)" fill="none" stroke="#6ead2f" stroke-linecap="round" stroke-linejoin="round" stroke-width="1.6"></path><path d="M771.544,208.386l1.37,2.777,3.065.445-2.218,2.162.523,3.052-2.741-1.441-2.741,1.441.524-3.052-2.218-2.162,3.065-.445Z" transform="translate(-730.269 -177.624)" fill="none" stroke="#252424" stroke-linecap="round" stroke-linejoin="round" stroke-width="1.6"></path><line y2="17.678" transform="translate(24.274)" fill="none" stroke="#252424" stroke-linecap="round" stroke-linejoin="round" stroke-width="1.6"></line><line x2="12.209" y2="12.209" transform="translate(7.443 6.972)" fill="none" stroke="#252424" stroke-linecap="round" stroke-linejoin="round" stroke-width="1.6"></line><ellipse cx="3.626" cy="3.626" rx="3.626" ry="3.626" transform="translate(20.488 19.785)" fill="none" stroke="#252424" stroke-linecap="round" stroke-linejoin="round" stroke-width="1.6"></ellipse></g></g></svg> 