<?xml version="1.0" encoding="UTF-8"?> <svg xmlns="http://www.w3.org/2000/svg" xmlns:xlink="http://www.w3.org/1999/xlink" width="50" height="50" viewBox="0 0 50 50"><defs><clipPath id="b"><rect width="50" height="50"></rect></clipPath></defs><g id="a" clip-path="url(#b)"><g transform="translate(1.282 5.713)"><path d="M1233.884,170.243a15.666,15.666,0,1,1,15.666-15.666" transform="translate(-1209.216 -138.911)" fill="none" stroke="#252424" stroke-linecap="round" stroke-linejoin="round" stroke-width="1.6"></path><ellipse cx="8.966" cy="8.966" rx="8.966" ry="8.966" transform="translate(28.71 20.216)" fill="none" stroke="#252424" stroke-linecap="round" stroke-linejoin="round" stroke-width="1.6"></ellipse><line x1="3.574" transform="translate(4.644 16.017)" fill="none" stroke="#252424" stroke-linecap="round" stroke-linejoin="round" stroke-width="1.6"></line><line x1="3.38" transform="translate(6.528 21.292)" fill="none" stroke="#252424" stroke-linecap="round" stroke-linejoin="round" stroke-width="1.6"></line><line x1="2.484" transform="translate(1.702 21.292)" fill="none" stroke="#252424" stroke-linecap="round" stroke-linejoin="round" stroke-width="1.6"></line><line x1="4.827" transform="translate(2.363 10.746)" fill="none" stroke="#252424" stroke-linecap="round" stroke-linejoin="round" stroke-width="1.6"></line><line x1="2.484" transform="translate(0 16.017)" fill="none" stroke="#252424" stroke-linecap="round" stroke-linejoin="round" stroke-width="1.6"></line><g transform="translate(11.879 16.017)"><line x1="2.484" fill="none" stroke="#252424" stroke-linecap="round" stroke-linejoin="round" stroke-width="1.6"></line><line x1="2.484" transform="translate(22.555)" fill="none" stroke="#252424" stroke-linecap="round" stroke-linejoin="round" stroke-width="1.6"></line></g><g transform="translate(15.545 7.165)"><line x1="1.757" y2="1.757" transform="translate(0 15.948)" fill="none" stroke="#252424" stroke-linecap="round" stroke-linejoin="round" stroke-width="1.6"></line><line x1="1.757" y2="1.757" transform="translate(15.948)" fill="none" stroke="#252424" stroke-linecap="round" stroke-linejoin="round" stroke-width="1.6"></line></g><g transform="translate(15.545 7.165)"><line x1="1.757" y1="1.757" fill="none" stroke="#252424" stroke-linecap="round" stroke-linejoin="round" stroke-width="1.6"></line></g><g transform="translate(24.398 26.052)"><line y2="2.484" fill="none" stroke="#252424" stroke-linecap="round" stroke-linejoin="round" stroke-width="1.6"></line></g><path d="M1280.841,208.585l2.354,2.354,6.6-6.6" transform="translate(-1246.996 -178.382)" fill="none" stroke="#6ead2f" stroke-linecap="round" stroke-linejoin="round" stroke-width="1.6"></path><path d="M1256.781,146.822V160.55l4.968-4.707" transform="translate(-1232.481 -143.683)" fill="none" stroke="#6ead2f" stroke-linecap="round" stroke-linejoin="round" stroke-width="1.6"></path></g></g></svg> 