<?xml version="1.0" encoding="UTF-8"?> <svg xmlns="http://www.w3.org/2000/svg" xmlns:xlink="http://www.w3.org/1999/xlink" width="90" height="90" viewBox="0 0 90 90"><defs><clipPath id="b"><rect width="90" height="90"></rect></clipPath></defs><g id="a" clip-path="url(#b)"><g transform="translate(8.442 -0.056)"><g transform="translate(0 6.542)"><g transform="translate(0 0)"><path d="M755.5,218.216H686.783a1,1,0,0,1-.966-1.035V169.429a1,1,0,0,1,.966-1.035H723.2a1.037,1.037,0,0,1,0,2.07H687.749v45.683h66.787v-45.57h-5.883a1.037,1.037,0,0,1,0-2.07H755.5a1,1,0,0,1,.966,1.035v47.64A1,1,0,0,1,755.5,218.216Z" transform="translate(-685.817 -141.855)" fill="#252424"></path><path d="M744.315,221.988H701.824a1.037,1.037,0,0,1,0-2.07h42.491a1.037,1.037,0,0,1,0,2.07Z" transform="translate(-690.292 -154.597)" fill="#6ead2f"></path><path d="M740.53,212.309H725.98a1.037,1.037,0,0,1,0-2.07h14.55a1.037,1.037,0,0,1,0,2.07Z" transform="translate(-697.48 -152.203)" fill="#252424"></path><path d="M740.53,202.564H725.98a1.037,1.037,0,0,1,0-2.07h14.55a1.037,1.037,0,0,1,0,2.07Z" transform="translate(-697.48 -149.793)" fill="#252424"></path><path d="M740.53,192.78H725.98a1.037,1.037,0,0,1,0-2.07h14.55a1.037,1.037,0,0,1,0,2.07Z" transform="translate(-697.48 -147.374)" fill="#252424"></path><g transform="translate(42.651)"><path d="M766.016,187.741H755.51a1,1,0,0,1-.966-1.035V141.593a1,1,0,0,1,.966-1.035h10.507a1,1,0,0,1,.966,1.035v45.113A1,1,0,0,1,766.016,187.741Zm-9.541-2.07h8.575V142.628h-8.575Z" transform="translate(-748.918 -134.971)" fill="#252424"></path><path d="M764.716,140.875h-5.993a1,1,0,0,1-.966-1.035v-5.67a1,1,0,0,1,.966-1.035h5.993a1,1,0,0,1,.966,1.035v5.67A1,1,0,0,1,764.716,140.875Zm-5.027-2.07h4.061v-3.6h-4.061Z" transform="translate(-749.874 -133.135)" fill="#252424"></path><path d="M764.805,209.986h-6.3a1,1,0,0,1-.966-1.035v-7.422a1,1,0,0,1,.966-1.035h6.3a1,1,0,0,1,.966,1.035v7.422A1,1,0,0,1,764.805,209.986Zm-5.339-2.07h4.373v-5.352h-4.373Z" transform="translate(-749.808 -149.793)" fill="#252424"></path><path d="M762.989,219.577a1,1,0,0,1-.966-1.035v-6.895a.968.968,0,1,1,1.932,0v6.895A1,1,0,0,1,762.989,219.577Z" transform="translate(-751.143 -152.295)" fill="#252424"></path><path d="M747.52,174.681a1,1,0,0,1-.966-1.035v-20.6c-.028-.381-.135-2.71.738-3.956a3.962,3.962,0,0,1,2.507-1.654.887.887,0,0,1,.133-.011H752.5a1.037,1.037,0,0,1,0,2.07h-2.478a2.126,2.126,0,0,0-1.185.837,5.728,5.728,0,0,0-.354,2.64l0,20.671A1,1,0,0,1,747.52,174.681Z" transform="translate(-746.534 -136.669)" fill="#252424"></path></g></g><g transform="translate(10.535 33.606)"><path d="M701.22,197.825a.8.8,0,0,1-.141-1.3l.452-.648a.86.86,0,0,1,1.325-.169,7.024,7.024,0,0,0,.719.493,7.925,7.925,0,0,0,.988.508,6.951,6.951,0,0,0,1.212.395,6.1,6.1,0,0,0,1.4.155,4.321,4.321,0,0,0,1.326-.2,3.551,3.551,0,0,0,1.1-.563,2.661,2.661,0,0,0,.761-.917,2.705,2.705,0,0,0,.282-1.255,2.269,2.269,0,0,0-.719-1.706,7.435,7.435,0,0,0-1.8-1.241q-1.086-.55-2.354-1.085a15,15,0,0,1-2.355-1.241,6.642,6.642,0,0,1-1.805-1.706,4.221,4.221,0,0,1-.719-2.523,5.093,5.093,0,0,1,.381-1.946,5.343,5.343,0,0,1,1.058-1.649,5.949,5.949,0,0,1,1.635-1.212,6.73,6.73,0,0,1,2.143-.663v-1.72a.809.809,0,0,1,.9-.93h.225q.875,0,.875.817v1.8a7.1,7.1,0,0,1,2.565.564,10.666,10.666,0,0,1,1.608.875.773.773,0,0,1,.408.55,1.247,1.247,0,0,1-.155.719l-.367.7q-.452.789-1.3.254a10.663,10.663,0,0,0-1.453-.732,5.327,5.327,0,0,0-2.128-.4,4.479,4.479,0,0,0-1.452.225,3.436,3.436,0,0,0-1.142.635,3.04,3.04,0,0,0-.748.93,2.4,2.4,0,0,0-.267,1.113,2.107,2.107,0,0,0,.719,1.635,7.541,7.541,0,0,0,1.8,1.17q1.085.523,2.354,1.03a12.5,12.5,0,0,1,2.355,1.24,6.812,6.812,0,0,1,1.805,1.776,4.525,4.525,0,0,1,.719,2.622,5.521,5.521,0,0,1-.367,2.017,5.244,5.244,0,0,1-1.044,1.678,5.719,5.719,0,0,1-1.663,1.226,6.673,6.673,0,0,1-2.255.634v1.663q0,.93-.875.931H707q-.9,0-.9-.818V199.8a9,9,0,0,1-1.678-.31,8.661,8.661,0,0,1-1.382-.522,9.257,9.257,0,0,1-1.072-.606Q701.5,198.051,701.22,197.825Z" transform="translate(-700.814 -176.706)" fill="#252424"></path></g></g><g transform="translate(7.877 0)"><g transform="translate(0 0)"><ellipse cx="13.301" cy="13.301" rx="13.301" ry="13.301" fill="#256e2f"></ellipse><g transform="translate(8.63 7.706)" style="isolation:isolate"><g style="isolation:isolate"><path d="M709.768,146.21v-1.546l4.445-3.977a6.124,6.124,0,0,0,1.078-1.217,2.039,2.039,0,0,0,.322-1.087,1.524,1.524,0,0,0-.579-1.224,2.187,2.187,0,0,0-1.449-.483,3.558,3.558,0,0,0-1.506.322,6.243,6.243,0,0,0-1.522,1.062l-1.24-1.481a7.184,7.184,0,0,1,2.078-1.336,5.867,5.867,0,0,1,2.254-.452,5.352,5.352,0,0,1,1.668.25,3.9,3.9,0,0,1,1.3.7,3.106,3.106,0,0,1,.837,1.094,3.3,3.3,0,0,1,.3,1.4,3.46,3.46,0,0,1-.483,1.788,8.522,8.522,0,0,1-1.675,1.885l-2.754,2.447H717.9v1.852Z" transform="translate(-709.317 -134.792)" fill="#fff"></path></g></g></g></g></g></g></svg> 