<svg width="24" height="24" viewBox="0 0 24 24" fill="none" xmlns="http://www.w3.org/2000/svg">
<path d="M12 5C13.1046 5 14 4.10457 14 3C14 1.89543 13.1046 1 12 1C10.8954 1 10 1.89543 10 3C10 4.10457 10.8954 5 12 5Z" stroke="#1E1E1E" stroke-width="1.5" stroke-miterlimit="10" stroke-linecap="square"/>
<path d="M3.34009 20C4.44466 20 5.34009 19.1046 5.34009 18C5.34009 16.8954 4.44466 16 3.34009 16C2.23552 16 1.34009 16.8954 1.34009 18C1.34009 19.1046 2.23552 20 3.34009 20Z" stroke="#1E1E1E" stroke-width="1.5" stroke-miterlimit="10" stroke-linecap="square"/>
<path d="M20.6602 20C21.7647 20 22.6602 19.1046 22.6602 18C22.6602 16.8954 21.7647 16 20.6602 16C19.5556 16 18.6602 16.8954 18.6602 18C18.6602 19.1046 19.5556 20 20.6602 20Z" stroke="#1E1E1E" stroke-width="1.5" stroke-miterlimit="10" stroke-linecap="square"/>
<path d="M6.27916 4.80591C4.50445 6.03901 3.1787 7.81562 2.50176 9.8679C1.82482 11.9202 1.83339 14.1369 2.52616 16.1839" stroke="#1E1E1E" stroke-width="1.5" stroke-miterlimit="10" stroke-linecap="square"/>
<path d="M19.49 19.6101C18.0622 21.2376 16.1428 22.3554 14.0227 22.7939C11.9025 23.2324 9.69719 22.9678 7.74097 22.0401" stroke="#1E1E1E" stroke-width="1.5" stroke-miterlimit="10" stroke-linecap="square"/>
<path d="M21.963 12.155C21.7798 9.99973 20.9028 7.96199 19.4635 6.34741C18.0241 4.73283 16.1001 3.62846 13.98 3.19995" stroke="#1E1E1E" stroke-width="1.5" stroke-miterlimit="10" stroke-linecap="square"/>
<path d="M12 8V19" stroke="#1E1E1E" stroke-width="1.5" stroke-miterlimit="10" stroke-linecap="square"/>
<path d="M15 9.56694C13.6812 8.8899 9.52719 8.38459 9.52719 10.7166C9.52719 13.5084 14.8023 12.5228 14.8023 14.9863C14.8023 17.4498 11.374 17.2644 9 16.4673" stroke="#1E1E1E" stroke-width="1.5" stroke-miterlimit="10" stroke-linecap="square"/>
</svg>
