<?xml version="1.0" encoding="UTF-8"?> <svg xmlns="http://www.w3.org/2000/svg" width="148.227" height="145.604" viewBox="0 0 148.227 145.604"><g transform="translate(26.077 57.289)"><path d="M1107.424,743.669a2.468,2.468,0,0,1-.307-.021l-83.4-10.425a2.455,2.455,0,0,1-1.43-4.174l13.9-13.9-47.771-47.778a2.458,2.458,0,0,1,3.475-3.475l49.517,49.516a2.455,2.455,0,0,1,0,3.475l-12.084,12.084,75.276,9.41-9.41-75.278-14.69,14.69a2.456,2.456,0,0,1-3.475,0L1066.6,667.369a2.458,2.458,0,1,1,3.475-3.477l8.69,8.687,16.505-16.505a2.458,2.458,0,0,1,4.177,1.43l10.425,83.4a2.46,2.46,0,0,1-2.437,2.765Z" transform="translate(-987.741 -655.353)" fill="#fff"></path></g><g transform="translate(16.13 55.226)"><path d="M988.347,663.211a2.451,2.451,0,0,1-1.738-.718l-4.26-4.26a2.458,2.458,0,0,1,3.475-3.475l4.26,4.26a2.458,2.458,0,0,1-1.738,4.2Z" transform="translate(-981.673 -654.082)" fill="#fff"></path></g><g transform="translate(5.137 44.228)"><path d="M982.685,657.547a2.45,2.45,0,0,1-1.738-.718l-5.2-5.2a2.458,2.458,0,1,1,3.475-3.475l5.2,5.2a2.458,2.458,0,0,1-1.737,4.2Z" transform="translate(-974.979 -647.386)" fill="#fff"></path></g><g transform="translate(0 65.155)"><path d="M1005.515,696.29a2.45,2.45,0,0,1-1.738-.72L972.5,664.3a2.458,2.458,0,0,1,3.475-3.475l31.274,31.273a2.458,2.458,0,0,1-1.737,4.2Z" transform="translate(-971.826 -660.143)" fill="#fff"></path></g><g transform="translate(46.238 33.179)"><path d="M1013.583,667.688a13.509,13.509,0,0,1-9.558-23.064l1.738,1.737-1.738-1.737a13.525,13.525,0,1,1,9.556,23.065Zm0-22.107a8.534,8.534,0,0,0-6.079,2.52h0a8.583,8.583,0,1,0,6.078-2.52Z" transform="translate(-1000.064 -640.639)" fill="#70ba44"></path></g><g transform="translate(90.523 28.179)"><path d="M1013.583,667.688a13.509,13.509,0,0,1-9.558-23.064l1.738,1.737-1.738-1.737a13.525,13.525,0,1,1,9.556,23.065Zm0-22.107a8.534,8.534,0,0,0-6.079,2.52h0a8.583,8.583,0,1,0,6.078-2.52Z" transform="translate(-1000.064 -640.639)" fill="#70ba44"></path></g><g transform="translate(75.555 10.443)"><path d="M1028.219,696.747a2.458,2.458,0,0,1-2.437-2.164l-7.818-65.155a2.458,2.458,0,0,1,4.879-.585L1030.661,694a2.456,2.456,0,0,1-2.148,2.731,2.2,2.2,0,0,1-.294.018Z" transform="translate(-1017.953 -626.741)" fill="#70ba44"></path></g><g transform="translate(39.095 0)"><path d="M1016.349,643.483a2.45,2.45,0,0,1-1.738-.718l-18.243-18.242a2.458,2.458,0,0,1,3.475-3.475l18.243,18.242a2.456,2.456,0,0,1-1.738,4.193Z" transform="translate(-995.69 -620.37)" fill="#fff"></path></g></svg> 