<?xml version="1.0" encoding="UTF-8"?> <svg xmlns="http://www.w3.org/2000/svg" xmlns:xlink="http://www.w3.org/1999/xlink" width="50" height="50" viewBox="0 0 50 50"><defs><clipPath id="b"><rect width="50" height="50"></rect></clipPath></defs><g id="a" clip-path="url(#b)"><g transform="translate(-136.008 -1265.176)"><path d="M163.694,1314.548a.828.828,0,0,1-.828-.828v-5.583h-3.633v5.583a.829.829,0,0,1-1.658,0v-6.412a.829.829,0,0,1,.829-.828h5.29a.829.829,0,0,1,.829.828v6.412A.829.829,0,0,1,163.694,1314.548Z" fill="#6ead2f"></path><path d="M179.294,1303.36h-2.432a.829.829,0,1,1,0-1.658h2.432a.829.829,0,0,1,0,1.658Z" fill="#252424"></path><path d="M145.154,1303.36h-2.431a.829.829,0,1,1,0-1.658h2.431a.829.829,0,1,1,0,1.658Z" fill="#252424"></path><path d="M173.8,1314.548a.829.829,0,0,1-.829-.828v-43.366H149.128v43.366a.829.829,0,0,1-1.657,0v-44.195a.828.828,0,0,1,.828-.829h25.5a.829.829,0,0,1,.829.829v44.195A.829.829,0,0,1,173.8,1314.548Z" fill="#252424"></path><path d="M170.322,1270.354a.829.829,0,0,1-.829-.829v-2.692H152.6v2.692a.828.828,0,1,1-1.657,0v-3.52a.829.829,0,0,1,.829-.829h18.545a.829.829,0,0,1,.829.829v3.52A.829.829,0,0,1,170.322,1270.354Z" fill="#252424"></path><path d="M158.731,1291.247a.829.829,0,0,1-.829-.829v-3.807h-2.979v3.807a.828.828,0,1,1-1.657,0v-4.636a.829.829,0,0,1,.829-.829h4.636a.829.829,0,0,1,.829.829v4.636A.829.829,0,0,1,158.731,1291.247Z" fill="#6ead2f"></path><path d="M168,1291.247a.829.829,0,0,1-.829-.829v-3.807H164.2v3.807a.828.828,0,1,1-1.657,0v-4.636a.829.829,0,0,1,.828-.829H168a.829.829,0,0,1,.828.829v4.636A.829.829,0,0,1,168,1291.247Z" fill="#6ead2f"></path><path d="M158.731,1281.314a.829.829,0,0,1-.829-.828v-3.808h-2.979v3.808a.828.828,0,0,1-1.657,0v-4.637a.829.829,0,0,1,.829-.828h4.636a.829.829,0,0,1,.829.828v4.637A.829.829,0,0,1,158.731,1281.314Z" fill="#6ead2f"></path><path d="M168,1281.314a.829.829,0,0,1-.829-.828v-3.808H164.2v3.808a.828.828,0,0,1-1.657,0v-4.637a.828.828,0,0,1,.828-.828H168a.828.828,0,0,1,.828.828v4.637A.828.828,0,0,1,168,1281.314Z" fill="#6ead2f"></path><path d="M158.731,1301.18a.83.83,0,0,1-.829-.829v-3.808h-2.979v3.808a.828.828,0,1,1-1.657,0v-4.636a.829.829,0,0,1,.829-.829h4.636a.829.829,0,0,1,.829.829v4.636A.83.83,0,0,1,158.731,1301.18Z" fill="#6ead2f"></path><path d="M168,1301.18a.83.83,0,0,1-.829-.829v-3.808H164.2v3.808a.828.828,0,1,1-1.657,0v-4.636a.829.829,0,0,1,.828-.829H168a.829.829,0,0,1,.828.829v4.636A.829.829,0,0,1,168,1301.18Z" fill="#6ead2f"></path><path d="M179.294,1294.087h-2.432a.829.829,0,0,1,0-1.658h2.432a.829.829,0,0,1,0,1.658Z" fill="#252424"></path><path d="M179.294,1298.724h-2.432a.829.829,0,1,1,0-1.658h2.432a.829.829,0,0,1,0,1.658Z" fill="#252424"></path><path d="M182.417,1314.548a.828.828,0,0,1-.829-.826l-.058-24.271H173.8a.829.829,0,0,1,0-1.658h8.557a.829.829,0,0,1,.829.827l.061,25.1a.829.829,0,0,1-.827.831Z" fill="#252424"></path><path d="M178.879,1289.451a.829.829,0,0,1-.828-.829v-4.967H173.8a.828.828,0,1,1,0-1.657h5.08a.829.829,0,0,1,.829.829v5.795A.829.829,0,0,1,178.879,1289.451Z" fill="#252424"></path><path d="M145.154,1294.087h-2.431a.829.829,0,0,1,0-1.658h2.431a.829.829,0,0,1,0,1.658Z" fill="#252424"></path><path d="M145.154,1298.724h-2.431a.829.829,0,1,1,0-1.658h2.431a.829.829,0,1,1,0,1.658Z" fill="#252424"></path><path d="M139.6,1314.548h0a.829.829,0,0,1-.827-.831l.06-25.1a.829.829,0,0,1,.829-.827h8.557a.829.829,0,0,1,0,1.658h-7.73l-.059,24.271A.828.828,0,0,1,139.6,1314.548Z" fill="#252424"></path><path d="M143.137,1289.451a.83.83,0,0,1-.829-.829v-5.795a.829.829,0,0,1,.829-.829h5.08a.828.828,0,1,1,0,1.657h-4.251v4.967A.83.83,0,0,1,143.137,1289.451Z" fill="#252424"></path><path d="M185.18,1315.176H136.837a.829.829,0,0,1,0-1.658H185.18a.829.829,0,0,1,0,1.658Z" fill="#252424"></path></g></g></svg> 