<?xml version="1.0" encoding="UTF-8"?> <svg xmlns="http://www.w3.org/2000/svg" xmlns:xlink="http://www.w3.org/1999/xlink" width="50" height="50" viewBox="0 0 50 50"><defs><clipPath id="b"><rect width="50" height="50"></rect></clipPath></defs><g id="a" clip-path="url(#b)"><g transform="translate(-1098.914 -1086.074)"><path d="M1128.118,1135.079h-8.408a.834.834,0,0,1-.587-.243l-1.853-1.859h-17.527a.829.829,0,0,1-.829-.828v-33.862a.829.829,0,0,1,.829-.829h1.384a.828.828,0,0,1,0,1.657h-.555v32.2h17.042a.83.83,0,0,1,.587.243l1.853,1.858h7.72l1.856-1.858a.829.829,0,0,1,.587-.243h17.04v-32.2h-.583a.828.828,0,0,1,0-1.657h1.411a.829.829,0,0,1,.829.829v33.862a.829.829,0,0,1-.829.828h-17.524l-1.857,1.859A.83.83,0,0,1,1128.118,1135.079Z" fill="#252424"></path><path d="M1126.016,1130.737h-2.1a.83.83,0,0,1-.829-.829v-28.469c0-4.334,2.8-7.134,7.135-7.134h3.153a.828.828,0,0,1,0,1.657h-3.153c-4.038,0-5.477,2.83-5.477,5.477v27.641h.8a5.175,5.175,0,0,1,4.68-2.1h12.833v-31.016h-3.375a.828.828,0,0,1,0-1.657h4.2a.829.829,0,0,1,.829.829v32.672a.829.829,0,0,1-.829.829H1130.22c-1.835,0-2.871.494-3.467,1.652A.829.829,0,0,1,1126.016,1130.737Z" fill="#252424"></path><path d="M1123.914,1130.737h-2.1a.827.827,0,0,1-.737-.45c-.6-1.158-1.633-1.652-3.468-1.652h-13.661a.829.829,0,0,1-.829-.829v-32.672a.829.829,0,0,1,.829-.829h1.383a.828.828,0,1,1,0,1.657h-.554v31.016h12.832a5.176,5.176,0,0,1,4.681,2.1h1.625a.829.829,0,1,1,0,1.657Z" fill="#252424"></path><path d="M1123.914,1130.737h-2.1a.828.828,0,0,1-.809-.649l-.036-.16c-.365-1.646-.778-3.511-2.148-4.046l-.073-.032-10.97-5.535a.829.829,0,0,1-.455-.74V1086.9a.828.828,0,0,1,1.2-.739l10.921,5.51c3.639,1.288,5.3,5.956,5.3,9.766v28.469A.829.829,0,0,1,1123.914,1130.737Zm-1.437-1.657h.608v-27.641c0-3.363-1.454-7.266-4.233-8.218a.867.867,0,0,1-.105-.044l-9.768-4.928v30.816l10.482,5.288C1121.437,1125.149,1122.072,1127.312,1122.477,1129.08Z" fill="#252424"></path><path d="M1136.525,1106.58a.806.806,0,0,1-.223-.031l-3.153-.881a.83.83,0,0,1-.605-.8v-11.838a.829.829,0,0,1,.829-.829h6.3a.829.829,0,0,1,.829.829v11.838a.83.83,0,0,1-.6.8l-3.153.881A.818.818,0,0,1,1136.525,1106.58Zm-2.324-2.339,2.324.65,2.325-.65v-10.38H1134.2Zm5.477.629h0Z" fill="#6ead2f"></path></g></g></svg> 