<?xml version="1.0" encoding="UTF-8"?> <svg xmlns="http://www.w3.org/2000/svg" xmlns:xlink="http://www.w3.org/1999/xlink" width="50" height="50" viewBox="0 0 50 50"><defs><clipPath id="b"><rect width="50" height="50"></rect></clipPath></defs><g id="a" clip-path="url(#b)"><g transform="translate(0 -4)"><g transform="translate(-133.733 -562.633)"><path d="M134.562,611.378a.829.829,0,0,1-.829-.828v-1.076c0-1.624,1.1-2.981,3.184-3.924a12.947,12.947,0,0,1,5-1.084c2.855,0,8.186,1.476,8.186,5.033a.829.829,0,0,1-1.658,0c0-2.216-4.249-3.375-6.528-3.375s-6.527,1.151-6.527,3.35v1.076A.829.829,0,0,1,134.562,611.378Z" fill="#6ead2f"></path><path d="M165.039,616.633a.829.829,0,0,1-.829-.829v-1.05c0-2.216-4.249-3.376-6.528-3.376s-6.527,1.151-6.527,3.351V615.8a.829.829,0,0,1-1.658,0v-1.075c0-1.625,1.1-2.982,3.184-3.925a12.944,12.944,0,0,1,5-1.083c2.855,0,8.186,1.476,8.186,5.033v1.05A.829.829,0,0,1,165.039,616.633Z" fill="#6ead2f"></path><path d="M179.752,607.175a.829.829,0,0,1-.829-.829v-1.051c0-2.216-4.25-3.375-6.528-3.375s-6.527,1.15-6.527,3.35v1.076a.829.829,0,0,1-1.658,0V605.27c0-1.624,1.1-2.981,3.184-3.924a12.944,12.944,0,0,1,5-1.083c2.854,0,8.186,1.476,8.186,5.032v1.051A.829.829,0,0,1,179.752,607.175Z" fill="#6ead2f"></path><path d="M152.439,598.77a1.908,1.908,0,0,1-.672-.123,1.864,1.864,0,0,1-1.219-1.759v-5.477H148.23a2.939,2.939,0,0,1-2.936-2.936V569.561a2.931,2.931,0,0,1,2.928-2.928H180.8a2.931,2.931,0,0,1,2.928,2.928V588.48a2.934,2.934,0,0,1-2.93,2.931h-2.1a.828.828,0,1,1,0-1.657h2.1a1.275,1.275,0,0,0,1.273-1.274V569.561a1.272,1.272,0,0,0-1.271-1.271H148.222a1.272,1.272,0,0,0-1.271,1.271v18.914a1.281,1.281,0,0,0,1.279,1.279h3.147a.829.829,0,0,1,.829.828v6.306a.222.222,0,0,0,.389.146l6.585-7.019a.83.83,0,0,1,.6-.261h6.305a.828.828,0,1,1,0,1.657h-5.946l-6.32,6.736A1.834,1.834,0,0,1,152.439,598.77Z" fill="#252424"></path><path d="M141.918,606.124a5.134,5.134,0,0,1-5.032-5.333v-1.5a5.041,5.041,0,1,1,10.065,0v1.5A5.134,5.134,0,0,1,141.918,606.124Zm0-10.509a3.5,3.5,0,0,0-3.374,3.674v1.5a3.387,3.387,0,1,0,6.75,0v-1.5A3.5,3.5,0,0,0,141.918,595.615Z" fill="#252424"></path><path d="M157.682,611.378a5.134,5.134,0,0,1-5.032-5.332v-1.5a5.041,5.041,0,1,1,10.065,0v1.5A5.134,5.134,0,0,1,157.682,611.378Zm0-10.509a3.5,3.5,0,0,0-3.374,3.675v1.5a3.387,3.387,0,1,0,6.749,0v-1.5A3.5,3.5,0,0,0,157.682,600.869Z" fill="#252424"></path><path d="M172.4,601.92a5.134,5.134,0,0,1-5.032-5.332v-1.5a5.041,5.041,0,1,1,10.065,0v1.5A5.134,5.134,0,0,1,172.4,601.92Zm0-10.509a3.5,3.5,0,0,0-3.375,3.675v1.5a3.387,3.387,0,1,0,6.75,0v-1.5A3.5,3.5,0,0,0,172.4,591.411Z" fill="#252424"></path><path d="M159.784,579.85h-2.1a.828.828,0,0,1,0-1.657h2.1a.828.828,0,1,1,0,1.657Z" fill="#6ead2f"></path><path d="M165.039,579.85h-2.1a.828.828,0,1,1,0-1.657h2.1a.828.828,0,1,1,0,1.657Z" fill="#6ead2f"></path><path d="M170.294,579.85h-2.1a.828.828,0,1,1,0-1.657h2.1a.828.828,0,0,1,0,1.657Z" fill="#6ead2f"></path></g></g></g></svg> 