<?xml version="1.0" encoding="UTF-8"?> <svg xmlns="http://www.w3.org/2000/svg" xmlns:xlink="http://www.w3.org/1999/xlink" width="50" height="50" viewBox="0 0 50 50"><defs><clipPath id="b"><rect width="50" height="50"></rect></clipPath></defs><g id="a" clip-path="url(#b)"><g transform="translate(6.401 2)"><path d="M717.807,662.285a5.578,5.578,0,0,0,1.384-4.219" transform="translate(-705.319 -636.735)" fill="none" stroke="#252424" stroke-linecap="round" stroke-linejoin="round" stroke-width="1.6"></path><path d="M691.426,690.906V680.622s-.262-1.5,1.593-3.351c1.342-1.342,4.833-3.067,7.7-4.693" transform="translate(-691.413 -644.381)" fill="none" stroke="#252424" stroke-linecap="round" stroke-linejoin="round" stroke-width="1.6"></path><path d="M736.294,663.021a5.471,5.471,0,0,1-1.337-4.232" transform="translate(-714.339 -637.116)" fill="none" stroke="#252424" stroke-linecap="round" stroke-linejoin="round" stroke-width="1.6"></path><path d="M753.56,690.906V680.622s.262-1.5-1.593-3.351c-1.314-1.314-5.11-3.088-7.969-4.693" transform="translate(-719.117 -644.381)" fill="none" stroke="#252424" stroke-linecap="round" stroke-linejoin="round" stroke-width="1.6"></path><path d="M717.3,669.957c-.222-.148-4.038-4.15-4.038-4.15l-2.7,2.239,4.041,5.56,2.335-1.816,1.816,2.595v7.12" transform="translate(-701.498 -640.813)" fill="none" stroke="#252424" stroke-linecap="round" stroke-linejoin="round" stroke-width="1.6"></path><path d="M731.2,670.146c.222-.149,3.91-4.339,3.91-4.339l2.705,2.239-4.041,5.56-2.335-1.816" transform="translate(-712.377 -640.813)" fill="none" stroke="#252424" stroke-linecap="round" stroke-linejoin="round" stroke-width="1.6"></path><line y2="7.852" transform="translate(6.653 38.659)" fill="none" stroke="#252424" stroke-linecap="round" stroke-linejoin="round" stroke-width="1.6"></line><line y2="7.852" transform="translate(27.405 38.659)" fill="none" stroke="#252424" stroke-linecap="round" stroke-linejoin="round" stroke-width="1.6"></line><path d="M727.319,647.511s3.526,0,5.128-1.843c1.34-1.542,2.243-4.968,2.644-8.893" transform="translate(-710.33 -625.518)" fill="none" stroke="#252424" stroke-linecap="round" stroke-linejoin="round" stroke-width="1.6"></path><path d="M716.05,648.142a4.588,4.588,0,0,1-1.724-1.174c-1.34-1.542-2.271-3.8-2.671-7.726" transform="translate(-702.078 -626.818)" fill="none" stroke="#252424" stroke-linecap="round" stroke-linejoin="round" stroke-width="1.6"></path><path d="M723.394,615.427s-1.442-2.444-5.769-2.444c-4.15,0-5.693,1.214-7.091,3.886-1.362,2.6-.08,6.37-.08,6.37a3.587,3.587,0,0,1,2.844-2.6c2.484-.6,4.845,0,5.969-.321a10.064,10.064,0,0,0,2.684-1.4" transform="translate(-701.157 -612.983)" fill="none" stroke="#252424" stroke-linecap="round" stroke-linejoin="round" stroke-width="1.6"></path><path d="M740.935,626.961a10.25,10.25,0,0,0,.761-6.089c-.544-2.062-3.285-2.724-3.285-2.724" transform="translate(-716.174 -615.704)" fill="none" stroke="#252424" stroke-linecap="round" stroke-linejoin="round" stroke-width="1.6"></path><path d="M735.355,625.514s-.2,2.363,1.522,2.884a5.074,5.074,0,0,1,2.4,2.083" transform="translate(-714.56 -619.585)" fill="none" stroke="#252424" stroke-linecap="round" stroke-linejoin="round" stroke-width="1.6"></path><path d="M750.3,617.87a8.681,8.681,0,1,1-1.413,15.344" transform="translate(-721.692 -615.22)" fill="none" stroke="#6ead2f" stroke-linecap="round" stroke-linejoin="round" stroke-width="1.6"></path><path d="M752.71,633.449l2,2,5.574-5.574" transform="translate(-723.707 -621.884)" fill="none" stroke="#6ead2f" stroke-linecap="round" stroke-linejoin="round" stroke-width="1.6"></path></g></g></svg> 