<svg height="90" viewBox="0 0 90 90" width="90" xmlns="http://www.w3.org/2000/svg" xmlns:xlink="http://www.w3.org/1999/xlink"><clipPath id="a"><path d="m0 0h90v90h-90z"/></clipPath><g clip-path="url(#a)"><g fill="#252424"><path d="m250.361 219.04h-59.291a.966.966 0 0 1 -.952-.8l-5.874-33.732a2.511 2.511 0 0 1 2.475-2.941h67.991a2.511 2.511 0 0 1 2.476 2.941l-5.874 33.732a.965.965 0 0 1 -.951.8zm-58.479-1.932h57.667l5.734-32.933a.579.579 0 0 0 -.573-.677h-67.991a.579.579 0 0 0 -.573.677z" transform="translate(-175.996 -129.06)"/><path d="m257.486 175.156a.985.985 0 0 1 -.306-.049.967.967 0 0 1 -.611-1.222c.016-.051 1.134-3.521-.092-5.8a3.623 3.623 0 0 0 -2.394-1.8.966.966 0 1 1 .509-1.863 5.527 5.527 0 0 1 3.591 2.751c1.62 3.027.277 7.147.219 7.32a.965.965 0 0 1 -.916.663z" transform="translate(-196.577 -123.949)"/><path d="m211.724 175.244a1.119 1.119 0 0 1 -1.06-.764c-.059-.176-1.421-4.356.229-7.44a5.674 5.674 0 0 1 3.685-2.826 1.117 1.117 0 1 1 .588 2.155 3.48 3.48 0 0 0 -2.3 1.725c-1 1.863-.4 4.731-.079 5.679a1.118 1.118 0 0 1 -.707 1.413 1.131 1.131 0 0 1 -.356.058z" transform="translate(-183.695 -123.885)"/><path d="m237.213 156.738c-6.591 0-13.408-2.7-13.408-7.206a.966.966 0 1 1 1.932 0c0 2.81 5.363 5.275 11.477 5.275a.966.966 0 1 1 0 1.932z" transform="translate(-187.779 -119.241)"/><path d="m253.37 172.462a.966.966 0 0 1 -.966-.966v-12.935a.966.966 0 0 1 1.932 0v12.939a.965.965 0 0 1 -.966.962z" transform="translate(-196.289 -121.927)"/><path d="m218.171 171.247a.965.965 0 0 1 -.966-.966v-6.915c0-4.116 4.037-9.189 6.939-9.831a.966.966 0 1 1 .417 1.887c-1.9.419-5.424 4.666-5.424 7.945v6.915a.965.965 0 0 1 -.966.965z" transform="translate(-185.816 -120.713)"/><path d="m229.407 173.54h-4.636a.966.966 0 1 1 0-1.932h4.636a.966.966 0 0 1 0 1.932z" transform="translate(-187.779 -126.097)"/><path d="m244.807 173.54h-4.637a.966.966 0 1 1 0-1.932h4.637a.966.966 0 1 1 0 1.932z" transform="translate(-192.362 -126.097)"/><path d="m218.277 164.185a1.117 1.117 0 0 1 -1.117-1.117v-9.343a1.117 1.117 0 1 1 2.234 0v9.343a1.117 1.117 0 0 1 -1.117 1.117z" transform="translate(-185.802 -120.444)"/><path d="m239.211 154.112c-1.4 0-2.86-.019-4.281-.07a.966.966 0 0 1 -.931-1 .979.979 0 0 1 1-.931c4 .143 8.339.031 10.507-.045-1.2-2.493-4.591-8.08-11.392-9.834-12.055-3.113-14.18 3.8-14.265 4.1a.966.966 0 0 1 -1.862-.513c.025-.091 2.633-9.062 16.61-5.454 9.836 2.537 13.129 11.9 13.264 12.3a.966.966 0 0 1 -.868 1.276c-.047.002-3.615.171-7.782.171z" transform="translate(-186.038 -116.545)"/></g><path d="m233.807 210.368a5.6 5.6 0 1 1 5.6-5.6 5.608 5.608 0 0 1 -5.6 5.6zm0-9.272a3.67 3.67 0 1 0 3.67 3.67 3.674 3.674 0 0 0 -3.67-3.666z" fill="#6ead2f" transform="translate(-189.088 -134.296)"/><path d="m198.615 107.764a13.3 13.3 0 1 1 -13.3 13.3 13.3 13.3 0 0 1 13.3-13.3z" fill="#256e2f" transform="translate(-176.326 -107.1)"/><path d="m204.832 118.941v11.273h-2.206v-9.035l-2.206.9v-1.916l3.011-1.224z" fill="#fff" transform="translate(-180.821 -110.426)"/></g></svg>