<svg fill="none" height="30" viewBox="0 0 30 30" width="30" xmlns="http://www.w3.org/2000/svg"><g clip-rule="evenodd" fill="#1e1e1e" fill-rule="evenodd"><path d="m19.875 13.75c-.2984 0-.5845.1185-.7955.3295s-.3295.4971-.3295.7955v.875h-6.1364c-.1383.4328-.3785.8307-.7057 1.1579-.5391.5392-1.2704.8421-2.0329.8421s-1.49377-.3029-2.03293-.8421c-.32721-.3272-.56741-.7251-.70569-1.1579h-3.13638v-1.75h4.75v.875c0 .2984.11853.5845.3295.7955.21098.211.49713.3295.7955.3295.2984 0 .5845-.1185.7955-.3295s.3295-.4971.3295-.7955v-.875h6.1364c.1383-.4328.3785-.8307.7057-1.1579.5391-.5392 1.2704-.8421 2.0329-.8421s1.4938.3029 2.0329.8421c.3272.3272.5674.7251.7057 1.1579h3.1364v1.75h-4.75v-.875c0-.2984-.1185-.5845-.3295-.7955s-.4971-.3295-.7955-.3295z"/><path d="m15.75 4v4.75h-.875c-.2984 0-.5845.11853-.7955.3295-.211.21098-.3295.49713-.3295.7955 0 .2984.1185.5845.3295.7955s.4971.3295.7955.3295h.875v6.1364c.4328.1383.8307.3785 1.1579.7057.5392.5391.8421 1.2704.8421 2.0329s-.3029 1.4938-.8421 2.0329c-.3272.3272-.7251.5674-1.1579.7057v3.1364h-1.75v-4.75h.875c.2984 0 .5845-.1185.7955-.3295s.3295-.4971.3295-.7955-.1185-.5845-.3295-.7955-.4971-.3295-.7955-.3295h-.875v-6.1364c-.4328-.1383-.8307-.3785-1.1579-.7057-.5392-.5391-.8421-1.2704-.8421-2.0329s.3029-1.49377.8421-2.03293c.3272-.32721.7251-.56741 1.1579-.70569v-3.13638z"/><path d="m4 4h21.75v21.75h-21.75zm1.75 1.75v18.25h18.25v-18.25z"/></g></svg>