<?xml version="1.0" encoding="UTF-8"?> <svg xmlns="http://www.w3.org/2000/svg" xmlns:xlink="http://www.w3.org/1999/xlink" width="50" height="50" viewBox="0 0 50 50"><defs><clipPath id="b"><rect width="50" height="50"></rect></clipPath></defs><g id="a" clip-path="url(#b)"><g transform="translate(-136.008 -1090.175)"><path d="M178.874,1131.768h-4.2a.829.829,0,0,1-.829-.829v-14.712a2.324,2.324,0,1,0-4.648,0v14.712a.829.829,0,0,1-.828.829h-4.2a.829.829,0,0,1-.829-.829v-14.712a2.324,2.324,0,1,0-4.648,0v14.712a.829.829,0,0,1-.828.829h-4.2a.829.829,0,0,1-.829-.829v-14.712a2.324,2.324,0,1,0-4.648,0v14.712a.829.829,0,0,1-.829.829h-4.2a.828.828,0,0,1,0-1.657h3.375v-13.884a3.981,3.981,0,1,1,7.963,0v13.884h2.547v-13.884a3.982,3.982,0,1,1,7.963,0v13.884h2.546v-13.884a3.981,3.981,0,1,1,7.963,0v13.884h3.375a.828.828,0,1,1,0,1.657Z" fill="#252424"></path><path d="M183.078,1113.9h-5.255a.828.828,0,1,1,0-1.657h4.426V1109.7H139.768v2.546h4.425a.828.828,0,1,1,0,1.657h-5.254a.829.829,0,0,1-.829-.828v-4.2a.829.829,0,0,1,.829-.829h44.139a.829.829,0,0,1,.828.829v4.2A.828.828,0,0,1,183.078,1113.9Z" fill="#252424"></path><path d="M184.129,1105.495h-5.255a.829.829,0,0,1-.829-.828v-1.532l-17.037-11.141-17.037,11.141v1.532a.829.829,0,0,1-.829.828h-5.254a.829.829,0,0,1-.829-.828v-1.759l-.808-.809a.829.829,0,0,1-.243-.585v-5.255a.829.829,0,0,1,.829-.829H152.6a.846.846,0,0,1,.113.008l7.841-5.127a.825.825,0,0,1,.907,0l7.841,5.127a.834.834,0,0,1,.113-.008H185.18a.829.829,0,0,1,.828.829v5.255a.828.828,0,0,1-.242.585l-.809.809v1.759A.828.828,0,0,1,184.129,1105.495Zm-4.426-1.657h3.6v-1.273a.825.825,0,0,1,.243-.586l.808-.809v-4.082H171.826l7.5,4.905a.827.827,0,0,1,.376.693Zm-40.986,0h3.6v-1.152a.828.828,0,0,1,.375-.693l7.5-4.905H137.666v4.082l.808.809a.83.83,0,0,1,.243.586Z" fill="#252424"></path><path d="M139.99,1137.023a.829.829,0,0,1-.829-.829v-23.12a.829.829,0,0,1,.829-.829h4.2a.828.828,0,1,1,0,1.657h-3.375v22.292A.829.829,0,0,1,139.99,1137.023Z" fill="#252424"></path><path d="M182.027,1137.023a.829.829,0,0,1-.829-.829V1113.9h-3.375a.828.828,0,1,1,0-1.657h4.2a.829.829,0,0,1,.829.829v23.12A.829.829,0,0,1,182.027,1137.023Z" fill="#252424"></path><path d="M161.008,1104.444a3.982,3.982,0,1,1,3.982-3.982A3.986,3.986,0,0,1,161.008,1104.444Zm0-6.3a2.324,2.324,0,1,0,2.324,2.323A2.326,2.326,0,0,0,161.008,1098.139Z" fill="#6ead2f"></path><path d="M178.874,1135.972H143.142a.829.829,0,0,1,0-1.657h35.732a.829.829,0,1,1,0,1.657Z" fill="#6ead2f"></path><path d="M185.18,1140.176H136.837a.829.829,0,0,1,0-1.658H185.18a.829.829,0,0,1,0,1.658Z" fill="#6ead2f"></path></g></g></svg> 