<svg fill="none" height="30" viewBox="0 0 30 30" width="30" xmlns="http://www.w3.org/2000/svg"><g clip-rule="evenodd" fill="#1e1e1e" fill-rule="evenodd"><path d="m20 26h-16v-3.3893c0-1.6132 1.02199-3.0742 2.60826-3.6956 1.23968-.4848 3.01367-.9151 5.39174-.9151 2.378 0 4.1516.4299 5.3919.916 1.5867.6208 2.6081 2.0821 2.6081 3.6947zm-3.1492-5.8524c-1.0682-.4187-2.6579-.8143-4.8508-.8143-2.19294 0-3.78259.3956-4.85082.8134-1.05506.4133-1.73742 1.3857-1.73742 2.464v2.056h13.17644v-2.056c0-1.0783-.6823-2.0507-1.7374-2.4631z"/><path d="m12 8.58197c-1.7259 0-3.125 1.39911-3.125 3.12503 0 1.7259 1.3991 3.125 3.125 3.125s3.125-1.3991 3.125-3.125c0-1.72592-1.3991-3.12503-3.125-3.12503zm-4.875 3.12503c0-2.69242 2.18261-4.87503 4.875-4.87503 2.6924 0 4.875 2.18261 4.875 4.87503 0 2.6924-2.1826 4.875-4.875 4.875-2.69239 0-4.875-2.1826-4.875-4.875z"/><path d="m21.0784 7.82697.5788.65613c.7578.85889 1.2179 1.9889 1.2179 3.2239 0 1.2357-.4616 2.3653-1.2185 3.2244l-.5784.6566-1.3131-1.1569.5785-.6565c.4871-.5529.7815-1.2753.7815-2.0676 0-.793-.2939-1.515-.7801-2.06612l-.5789-.65614z"/><path d="m23.9328 3.76447.652.5836c2.0186 1.80699 3.2904 4.43478 3.2904 7.35893 0 2.9241-1.2717 5.5529-3.2904 7.36l-.652.5836-1.1672-1.3039.652-.5836c1.6633-1.489 2.7076-3.6502 2.7076-6.0561 0-2.40582-1.0442-4.56603-2.7076-6.05504l-.652-.5836z"/></g></svg>