<?xml version="1.0" encoding="UTF-8"?> <svg xmlns="http://www.w3.org/2000/svg" xmlns:xlink="http://www.w3.org/1999/xlink" width="90" height="90" viewBox="0 0 90 90"><defs><clipPath id="b"><rect width="90" height="90"></rect></clipPath></defs><g id="a" clip-path="url(#b)"><g transform="translate(8.289 -0.097)"><path d="M1780.316,208.288a.965.965,0,0,1-.966-.966V150.248h-36.891a.966.966,0,0,1,0-1.932h37.857a.965.965,0,0,1,.966.966v58.04A.965.965,0,0,1,1780.316,208.288Z" transform="translate(-1712.114 -133.575)" fill="#252424"></path><path d="M1769.534,214.522h-60.682a.965.965,0,0,1-.966-.966V167.708a.966.966,0,1,1,1.932,0V212.59h59.716a.966.966,0,1,1,0,1.932Z" transform="translate(-1702.115 -139.058)" fill="#252424"></path><path d="M1774.052,161.661h-52.645a.966.966,0,0,1,0-1.932h52.645a.966.966,0,0,1,0,1.932Z" transform="translate(-1705.85 -136.971)" fill="#252424"></path><path d="M1716.7,155.954h-2.145a.966.966,0,0,1,0-1.932h2.145a.966.966,0,1,1,0,1.932Z" transform="translate(-1703.813 -135.273)" fill="#252424"></path><path d="M1725.063,155.954h-2.146a.966.966,0,0,1,0-1.932h2.146a.966.966,0,1,1,0,1.932Z" transform="translate(-1706.3 -135.273)" fill="#252424"></path><path d="M1777.63,216.1h-14.7a.965.965,0,0,1-.966-.966V201.774a.965.965,0,0,1,.966-.966h10.69a.966.966,0,0,1,0,1.932H1763.9v11.43h12.766v-4.378a.966.966,0,1,1,1.932,0v5.344A.965.965,0,0,1,1777.63,216.1Z" transform="translate(-1718.206 -149.194)" fill="#252424"></path><path d="M1772.647,212.093a.969.969,0,0,1-.684-.282l-4.009-4.009a.967.967,0,0,1,1.367-1.367l3.271,3.272,7.339-8.561a.966.966,0,1,1,1.467,1.257l-8.017,9.354a.963.963,0,0,1-.7.336Z" transform="translate(-1719.904 -149.194)" fill="#6ead2f"></path><path d="M1768.558,174.975h-47.652a.966.966,0,1,1,0-1.932h47.652a.966.966,0,0,1,0,1.932Z" transform="translate(-1705.701 -140.933)" fill="#6ead2f"></path><path d="M1767.033,184.219h-46.127a.966.966,0,1,1,0-1.932h46.127a.966.966,0,0,1,0,1.932Z" transform="translate(-1705.701 -143.683)" fill="#6ead2f"></path><path d="M1767.033,193.462h-46.127a.966.966,0,1,1,0-1.932h46.127a.966.966,0,0,1,0,1.932Z" transform="translate(-1705.701 -146.434)" fill="#6ead2f"></path><path d="M1744.321,202.706h-23.415a.966.966,0,1,1,0-1.932h23.415a.966.966,0,1,1,0,1.932Z" transform="translate(-1705.701 -149.184)" fill="#6ead2f"></path><path d="M1744.321,211.95h-23.415a.966.966,0,1,1,0-1.932h23.415a.966.966,0,1,1,0,1.932Z" transform="translate(-1705.701 -151.935)" fill="#6ead2f"></path><path d="M1744.321,221.193h-23.415a.966.966,0,1,1,0-1.932h23.415a.966.966,0,1,1,0,1.932Z" transform="translate(-1705.701 -154.685)" fill="#6ead2f"></path><g transform="translate(0 0)"><g transform="translate(0 0)"><path d="M1712.971,127.331a13.3,13.3,0,1,1-13.3,13.3h0A13.3,13.3,0,0,1,1712.971,127.331Z" transform="translate(-1699.67 -127.331)" fill="#256e2f"></path><g transform="translate(8.053 7.851)" style="isolation:isolate"><g style="isolation:isolate"><path d="M1719.7,138.507v6.78h1.385v1.852H1719.7v2.642H1717.5v-2.642h-6.361v-1.771l6.023-6.861Zm-6.023,6.78h3.817v-4.332Z" transform="translate(-1711.134 -138.507)" fill="#fff"></path></g></g></g></g></g></g></svg> 