<?xml version="1.0" encoding="UTF-8"?> <svg xmlns="http://www.w3.org/2000/svg" height="144.833" viewBox="0 0 131.973 144.833" width="131.973"><path d="m2867.77 1055.384a35.361 35.361 0 1 1 0-70.722 33.5 33.5 0 0 1 14.616 3.213 2.167 2.167 0 0 1 -1.873 3.909 29.192 29.192 0 0 0 -12.74-2.784 31.029 31.029 0 1 0 31.029 31.029 29.188 29.188 0 0 0 -2.787-12.742 2.167 2.167 0 1 1 3.909-1.873 33.472 33.472 0 0 1 3.219 14.614 35.4 35.4 0 0 1 -35.373 35.361z" fill="#fff" transform="translate(-2771.171 -984.66)"></path><path d="m2957.574 1009.964a2.174 2.174 0 0 1 -1.667-.776 20.282 20.282 0 0 0 -2.558-2.557 2.169 2.169 0 1 1 2.776-3.333 25.548 25.548 0 0 1 3.115 3.11 2.172 2.172 0 0 1 -.28 3.058 2.15 2.15 0 0 1 -1.386.5z" fill="#fff" transform="translate(-2836.117 -994.457)"></path><path d="m2893.494 1059.592a2.166 2.166 0 0 1 -1.754-.9l-7.006-9.679a2.167 2.167 0 1 1 3.511-2.541l5.217 7.2 11.267-16.184a2.168 2.168 0 1 1 3.556 2.482l-13.012 18.689a2.073 2.073 0 0 1 -1.778.928z" fill="#70ba44" transform="translate(-2799.231 -1012.717)"></path><g fill="#fff"><path d="m2811.755 1061.225h-.332a2.166 2.166 0 1 1 0-4.323 2.319 2.319 0 0 1 2.337 2.166 2.034 2.034 0 0 1 -2 2.156z" transform="translate(-2758.695 -1023.699)"></path><path d="m2788.887 1061.225h-.332a2.166 2.166 0 1 1 0-4.323 2.319 2.319 0 0 1 2.337 2.166 2.033 2.033 0 0 1 -2.005 2.156z" transform="translate(-2746.336 -1023.699)"></path><path d="m2766.18 1061.225h-.5a2.166 2.166 0 1 1 0-4.323 2.4 2.4 0 0 1 2.418 2.166 1.967 1.967 0 0 1 -1.917 2.157z" transform="translate(-2733.975 -1023.699)"></path><path d="m2765.6 1106.134a1.973 1.973 0 0 1 -2.167-1.92v-.5a2.169 2.169 0 0 1 4.339 0 2.4 2.4 0 0 1 -2.171 2.421z" transform="translate(-2733.897 -1047.832)"></path><path d="m2765.6 1083.272a1.973 1.973 0 0 1 -2.167-1.92v-.5a2.169 2.169 0 0 1 4.339 0 2.4 2.4 0 0 1 -2.171 2.421z" transform="translate(-2733.897 -1035.476)"></path><path d="m2860.884 1246.738a2.319 2.319 0 0 1 -2.337-2.166 2.033 2.033 0 0 1 2-2.167h.332a2.166 2.166 0 1 1 0 4.323z" transform="translate(-2785.304 -1123.964)"></path><path d="m2883.758 1246.738a2.319 2.319 0 0 1 -2.336-2.166 2.032 2.032 0 0 1 2-2.167h.332a2.166 2.166 0 1 1 0 4.323z" transform="translate(-2797.666 -1123.964)"></path><path d="m2906.626 1246.738a2.319 2.319 0 0 1 -2.337-2.166 2.032 2.032 0 0 1 2-2.167h.332a2.166 2.166 0 1 1 0 4.323z" transform="translate(-2810.025 -1123.964)"></path><path d="m2906.817 1201.784a2.171 2.171 0 0 1 -2.172-2.166 2.4 2.4 0 0 1 2.172-2.419 1.97 1.97 0 0 1 2.17 1.92v.5a2.169 2.169 0 0 1 -2.171 2.164z" transform="translate(-2810.222 -1099.531)"></path><path d="m2906.817 1224.394a2.171 2.171 0 0 1 -2.172-2.166 2.319 2.319 0 0 1 2.172-2.334 2.031 2.031 0 0 1 2.17 2v.332a2.169 2.169 0 0 1 -2.171 2.169z" transform="translate(-2810.222 -1111.795)"></path><path d="m2906.816 1178.922a2.168 2.168 0 0 1 -2.17-2.166 2.4 2.4 0 0 1 2.17-2.419 1.972 1.972 0 0 1 2.17 1.92v.5a2.169 2.169 0 0 1 -2.17 2.165z" transform="translate(-2810.221 -1087.176)"></path><path d="m2906.816 1156.048a2.168 2.168 0 0 1 -2.17-2.166 2.4 2.4 0 0 1 2.17-2.419 1.973 1.973 0 0 1 2.17 1.921v.5a2.169 2.169 0 0 1 -2.171 2.164z" transform="translate(-2810.221 -1074.813)"></path><path d="m2838.011 1246.738a2.319 2.319 0 0 1 -2.336-2.166 2.033 2.033 0 0 1 2-2.167h.332a2.166 2.166 0 1 1 0 4.323z" transform="translate(-2772.949 -1123.964)"></path></g><path d="m17.319 66.733h23.51v12.791h-23.51z" fill="#70ba44"></path><path d="m2750.2 1198.367c-4.98-2.55-9.283-4.753-9.283-9.089v-2.168c4.573-4.3 5.964-12.009 5.964-16.589a2.1 2.1 0 0 0 -4.2 0 24.113 24.113 0 0 1 -2.074 9.8 8.991 8.991 0 0 1 -6.7 5.665 2.1 2.1 0 0 0 .243 4.186 1.557 1.557 0 0 0 .245-.013 11.649 11.649 0 0 0 2.332-.521 10.223 10.223 0 0 0 3.414 7.3l-7.115 3.64-7.108-3.64a10.211 10.211 0 0 0 3.414-7.658v-3.11a2.094 2.094 0 0 0 -1.026-1.795c-.043-.043-.078-.091-.123-.132-3.326-2.91-4.814-8.987-4.814-13.719a2.1 2.1 0 0 0 -4.2 0c0 5.151 1.575 12.514 5.964 16.609v2.15a7.507 7.507 0 0 1 -4.073 6.191 2.158 2.158 0 0 0 -.266.175 55.653 55.653 0 0 1 -4.905 2.73c-5.513 2.835-11.761 6.047-11.761 13.208v15.128a2.1 2.1 0 1 0 4.2 0v-15.135c0-4.6 4.391-6.855 9.48-9.474 1.443-.742 2.938-1.51 4.353-2.371l9.906 5.071.052.023.125.055.125.045.125.039c.05.014.1.023.155.032l.1.018a2.009 2.009 0 0 0 .269.019 2.055 2.055 0 0 0 .268-.018l.1-.018a.629.629 0 0 0 .155-.032l.127-.039.123-.045.127-.055.052-.023 9.92-5.078c1.424.863 2.931 1.636 4.385 2.38 5.11 2.617 9.522 4.874 9.522 9.472v15.128a2.1 2.1 0 1 0 4.2 0v-15.129c.003-7.161-6.272-10.38-11.797-13.213z" fill="#fff" transform="translate(-2704.118 -1083.977)"></path><path d="m2728.977 1263.594a2.1 2.1 0 0 0 -2.1 2.1v12.447a2.1 2.1 0 1 0 4.2 0v-12.448a2.1 2.1 0 0 0 -2.1-2.1z" fill="#fff" transform="translate(-2716.422 -1135.413)"></path><path d="m2800.267 1263.594a2.1 2.1 0 0 0 -2.1 2.1v12.448a2.1 2.1 0 1 0 4.2 0v-12.448a2.1 2.1 0 0 0 -2.1-2.1z" fill="#fff" transform="translate(-2754.945 -1135.413)"></path><path d="m2722.778 1130.155h5.333v10.693a2.1 2.1 0 0 0 2.1 2.1h23.51a2.1 2.1 0 0 0 2.1-2.1v-10.693h3.185v4.814a2.1 2.1 0 1 0 4.2 0c.1-4.778.059-5.759.059-6.917a2.1 2.1 0 0 0 -2.1-2.1h-38.386a2.1 2.1 0 1 0 0 4.2zm9.535 0h19.308v8.591h-19.308z" fill="#fff" transform="translate(-2713.058 -1061.025)"></path></svg> 