<svg fill="none" height="30" viewBox="0 0 30 30" width="30" xmlns="http://www.w3.org/2000/svg"><g clip-rule="evenodd" fill="#1e1e1e" fill-rule="evenodd"><path d="m21.23 5.75c-.6213 0-1.125.50368-1.125 1.125s.5037 1.125 1.125 1.125 1.125-.50368 1.125-1.125-.5037-1.125-1.125-1.125zm-2.875 1.125c0-1.58782 1.2872-2.875 2.875-2.875s2.875 1.28718 2.875 2.875-1.2872 2.875-2.875 2.875-2.875-1.28718-2.875-2.875z"/><path d="m11.0936 13.5079 3.968-4.69754 1.3369 1.12925-3.9721 4.70239c-.1058.1244-.1833.2704-.2271.4277-.0437.1574-.0527.3224-.0263.4836.0265.1611.0877.3146.1794.4497.0918.1352.2119.2487.3519.3327l2.1834 1.3109c.4029.2428.6998.6283.8318 1.0798s.0894.9361-.1193 1.3577l-.0013.0028-2.586 5.179-1.5657-.7818 2.5846-5.1762c.0001-.0003-.0001.0002 0 0 .0136-.028.0167-.0607.008-.0905-.0088-.03-.0285-.0556-.0552-.0718-.0001-.0001.0002 0 0 0l-2.1808-1.3094c-.3579-.2147-.6647-.5049-.8992-.8502-.2344-.3453-.3909-.7375-.4585-1.1494-.0675-.4119-.0446-.8336.0672-1.2357.1117-.4016.3093-.7741.5792-1.0917.0004-.0004.0008-.0008.0011-.0013z"/><path d="m10.6962 8.90817c-.0254-.00704-.0524-.00588-.0771.00333-.0247.0092-.0458.02598-.0604.04792l-2.08601 3.12898-1.45609-.9707 2.08474-3.12713c.00012-.00019-.00012.00018 0 0 .21884-.32893.53637-.58088.90656-.71887.3698-.13782.7736-.15546 1.1539-.05044.0007.00019.0014.00037.002.00056l4.9576 1.353 4.2827 3.21198 2.1906 3.9378c.0141.0255.0369.0455.0641.0561.0271.0105.057.0113.0846.0022l3.0394-1.015.5543 1.6599-3.0399 1.0151c-.4148.1382-.8656.1272-1.273-.0313-.4073-.1585-.7465-.4543-.9588-.8362-.0001-.0001 0 .0001 0 0l-2.0095-3.6122-3.7173-2.788-4.639-1.26608z"/><path d="m15.8599 15.5401 3.206-3.735 1.3279 1.1398-3.206 3.735z"/><path d="m10.4597 19.7384-5.09318 6.3665-1.36652-1.0932 5.09322-6.3666z"/></g></svg>