<?xml version="1.0" encoding="UTF-8"?> <svg xmlns="http://www.w3.org/2000/svg" xmlns:xlink="http://www.w3.org/1999/xlink" id="logo-dark" width="183" height="32.663" viewBox="0 0 183 32.663"><defs><clipPath id="clip-path"><rect id="Rectangle_380" data-name="Rectangle 380" width="183" height="32.663"></rect></clipPath></defs><g id="O"><g id="Group_556" data-name="Group 556" clip-path="url(#clip-path)"><path id="Path_447" data-name="Path 447" d="M31.238,12.755a11.134,11.134,0,0,0-7.253,2.68,11.176,11.176,0,0,1,13.432,8.939c-.037-.2-.078-.4-.125-.6a11.174,11.174,0,0,1-13.824,8.207A11.145,11.145,0,0,0,33.663,34.86a11.268,11.268,0,0,0,2.3-2.7,11.219,11.219,0,0,1-.672.979,11.336,11.336,0,0,1-1.63,1.717,11.185,11.185,0,0,0-2.425-22.1m6.34,12.967c.012.209.019.42.019.632,0-.212-.007-.423-.019-.632m-.151-1.3q.048.272.082.55c-.023-.185-.05-.369-.082-.55m.1.654c.019.169.034.339.046.51-.012-.171-.026-.341-.046-.51" transform="translate(-12.968 -7.048)" fill="#a7cada"></path></g><g id="Group_557" data-name="Group 557" clip-path="url(#clip-path)"><path id="Path_448" data-name="Path 448" d="M5.349,20.382a11.224,11.224,0,0,0,7.937,8.2,11.162,11.162,0,0,1,.506-16.533A11.138,11.138,0,0,1,27.11,20.37a11.187,11.187,0,1,0-21.765,0" transform="translate(-2.785 -3.647)" fill="#a7cada"></path></g><g id="Group_558" data-name="Group 558" clip-path="url(#clip-path)"><path id="Path_449" data-name="Path 449" d="M27.415,29.664a11.169,11.169,0,0,0-.3-2.583,11.176,11.176,0,0,1-13.824,8.207q-.2-.191-.385-.391-.375-.4-.711-.836t-.628-.9c-.1-.156-.191-.314-.281-.476q-.269-.483-.492-.993-.111-.255-.209-.517A11.167,11.167,0,0,1,13.8,18.745c-.289.064-.574.142-.855.229-.093.029-.183.062-.276.093-.186.063-.37.128-.551.2-.107.043-.212.088-.317.133q-.243.105-.479.221c-.109.054-.218.107-.325.164-.149.079-.294.163-.439.249-.107.063-.215.124-.32.191-.144.092-.283.191-.423.289q-.312.219-.608.459c-.095.077-.192.151-.284.231-.133.115-.26.237-.387.358-.073.07-.147.137-.218.209-.132.132-.258.268-.383.406-.056.063-.112.125-.167.189q-.2.228-.383.466c-.033.042-.064.086-.1.128A11.145,11.145,0,0,0,5.568,26.3l-.014.045q-.115.368-.2.746A11.174,11.174,0,0,0,23.481,38.171a11.268,11.268,0,0,1-1.193.2,11.385,11.385,0,0,0,1.193-.2,11.164,11.164,0,0,0,3.934-8.507M13.286,35.289A11.294,11.294,0,0,0,14.492,36.3a11.3,11.3,0,0,1-1.205-1.013" transform="translate(-2.785 -10.358)" fill="#a7cada"></path></g><g id="Group_559" data-name="Group 559" clip-path="url(#clip-path)"><path id="Path_450" data-name="Path 450" d="M28.082,15.218q.42.039.831.109l.155.028c.277.051.552.11.822.181l.079.022q.4.108.788.246l.077.026c.264.1.523.2.778.316l.119.054q.379.176.742.377l.08.046A11.24,11.24,0,0,1,34,17.6l.053.042q.337.271.652.568l.047.044a11.258,11.258,0,0,1,1.723,2.087l.013.019a11.123,11.123,0,0,1,1.446,3.413,11.152,11.152,0,0,0-3.113-10.621,11.152,11.152,0,0,0-10.194,2.285c.1-.022.2-.038.294-.057s.182-.038.274-.053c.253-.043.51-.075.768-.1l.237-.02c.282-.022.566-.037.853-.037s.6.015.889.039l.144.011" transform="translate(-13.606 -7.049)" fill="#5097b6"></path></g><g id="Group_560" data-name="Group 560" clip-path="url(#clip-path)"><path id="Path_451" data-name="Path 451" d="M37.6,39.959a11.145,11.145,0,0,0-.3-2.583,11.176,11.176,0,0,1-13.824,8.207,11.146,11.146,0,0,0,10.2,2.882A11.163,11.163,0,0,0,37.6,39.959" transform="translate(-12.967 -20.653)" fill="#5097b6"></path></g><g id="Group_561" data-name="Group 561" clip-path="url(#clip-path)"><path id="Path_452" data-name="Path 452" d="M10.249,27.252a11.165,11.165,0,0,1,3.934-8.507,11.216,11.216,0,0,0-8.454,8.348,11.224,11.224,0,0,0,7.937,8.195,11.151,11.151,0,0,1-3.417-8.036" transform="translate(-3.166 -10.358)" fill="#5097b6"></path></g></g><g id="type" transform="translate(39.846 8.431)"><path id="L" d="M101.042,36.562H89.054V18.844h2.078V34.353l-.219.241h10.128Z" transform="translate(-89.054 -18.844)" fill="#3e6780"></path><path id="e" d="M132.24,35.184H121.105l.241.219a4.232,4.232,0,0,0,4.594,4.047,5.268,5.268,0,0,0,3.784-1.487l1.422,1.4a7.247,7.247,0,0,1-5.228,2.013c-4.55,0-6.65-3-6.65-7,0-4.222,2.406-7.218,6.562-7.218,4.353,0,6.453,3.062,6.453,7.218,0,.328-.021.525-.043.809m-1.794-1.838-.241-.218c-.328-2.362-1.684-4.047-4.375-4.047-2.756,0-4.112,1.75-4.462,4.047l-.241.218Z" transform="translate(-105.749 -23.437)" fill="#3e6780"></path><path id="v" d="M164.978,27.644l-5.863,13.781h-2.209l-5.863-13.781H153.3l4.112,9.865.59,1.75h.044l.569-1.75,4.112-9.865Z" transform="translate(-123.307 -23.707)" fill="#3e6780"></path><path id="e-2" data-name="e" d="M197.6,35.184H186.467l.241.219a4.232,4.232,0,0,0,4.594,4.047,5.268,5.268,0,0,0,3.784-1.487l1.422,1.4a7.248,7.248,0,0,1-5.228,2.013c-4.55,0-6.65-3-6.65-7,0-4.222,2.406-7.218,6.562-7.218,4.353,0,6.453,3.062,6.453,7.218,0,.328-.021.525-.043.809m-1.794-1.838-.241-.218c-.328-2.362-1.685-4.047-4.375-4.047-2.756,0-4.112,1.75-4.462,4.047l-.241.218Z" transform="translate(-141.866 -23.437)" fill="#3e6780"></path><path id="r" d="M227.7,29.445h-.656c-1.99,0-4.222,1.334-4.222,4.987v6.8h-2.012V27.454h2.012v2.384h.044a4.769,4.769,0,0,1,4.4-2.538h.438Z" transform="translate(-161.856 -23.517)" fill="#3e6780"></path><path id="a" d="M252.012,41.182H250V39.957h-.044a6.656,6.656,0,0,1-4.463,1.465c-2.778,0-5.622-1.072-5.622-4.243,0-4.332,5.469-4.484,8.816-4.484a13.581,13.581,0,0,1,1.531.087L250,32.541v-.306c0-2.363-1.728-3.128-3.784-3.128a6.394,6.394,0,0,0-4.332,1.379l-1.4-1.379a8.346,8.346,0,0,1,5.732-1.9c2.931,0,5.8,1.159,5.8,5.009Zm-1.794-6.65c-.263-.022-.962-.065-1.4-.065-2.406,0-6.934-.044-6.934,2.713,0,1.837,2.122,2.34,3.631,2.34,1.4,0,4.484-.393,4.484-2.362V34.729Z" transform="translate(-172.391 -23.463)" fill="#3e6780"></path><path id="g" d="M286.6,27.374V39.952c0,3.74-2.013,5.906-6.235,5.906A8.744,8.744,0,0,1,274.747,44l1.444-1.444a6.86,6.86,0,0,0,4.178,1.4c2.778,0,4.222-1.465,4.222-4.025V38.245h-.044a5.52,5.52,0,0,1-4.419,1.816c-4.2,0-6.278-2.559-6.278-6.409,0-3.566,2.144-6.5,6.278-6.5a5.551,5.551,0,0,1,4.419,1.9h.044V27.374H286.6Zm-6.388,1.706c-2.975,0-4.353,1.969-4.353,4.572,0,2.712,1.443,4.484,4.353,4.484,3.172,0,4.55-1.881,4.55-4.484a4.222,4.222,0,0,0-4.55-4.572" transform="translate(-191.166 -23.436)" fill="#3e6780"></path><path id="e-3" data-name="e" d="M322.411,35.184H311.277l.24.219a4.232,4.232,0,0,0,4.594,4.047,5.267,5.267,0,0,0,3.784-1.487l1.422,1.4a7.247,7.247,0,0,1-5.228,2.013c-4.55,0-6.65-3-6.65-7,0-4.222,2.406-7.218,6.562-7.218,4.353,0,6.453,3.062,6.453,7.218,0,.328-.022.525-.044.809m-1.794-1.838-.24-.218c-.328-2.362-1.685-4.047-4.375-4.047-2.756,0-4.112,1.75-4.463,4.047l-.24.218Z" transform="translate(-210.832 -23.437)" fill="#3e6780"></path><path id="R-2" data-name="R" d="M359.44,36.562H358.28l-2.122-4.637a4.829,4.829,0,0,0-4.944-3.128h-4.7l.087.109v7.656h-.984V18.844h7.218c3.041,0,5.381,1.6,5.381,4.987a4.645,4.645,0,0,1-3.981,4.725V28.6a5.187,5.187,0,0,1,2.822,2.91Zm-6.606-16.778H346.49l.109.131v7.809l-.109.131h6.1c3.215,0,4.593-1.947,4.593-4.025,0-2.887-1.925-4.047-4.353-4.047" transform="translate(-230.821 -18.844)" fill="#3e6780"></path><path id="x" d="M388.583,41.425H387.4l-3.609-5.184-.613-1.072h-.043l-.634,1.072-3.609,5.184h-1.16l4.856-6.934L377.8,27.645h1.16l3.522,5.074.656,1.094h.043l.656-1.094,3.544-5.074h1.159l-4.813,6.868Z" transform="translate(-248.569 -23.707)" fill="#3e6780"></path></g></svg> 