<?xml version="1.0" encoding="UTF-8"?> <svg xmlns="http://www.w3.org/2000/svg" xmlns:xlink="http://www.w3.org/1999/xlink" fill="none" height="47" viewBox="0 0 44 47" width="44"><clipPath id="a"><path d="m0 0h44v47h-44z"></path></clipPath><g clip-path="url(#a)" fill="#fff"><path d="m44 14.777v5.8446h-2.8538v17.4963c-.1055 0-.1899 0-.2726 0-7.9531-.013-15.9062-.0292-23.8593-.0373-4.6012-.0049-9.20073 0-13.80191-.0033-.11033 0-.21903-.0276-.34071-.0438v-17.4493h-2.87168c0-1.9758 0-3.9499 0-5.9241.564602-.3783 1.1292-.7565 1.69218-1.1364 1.05458-.7111 2.1059-1.4255 3.1621-2.1333 1.03348-.6932 2.07183-1.38 3.10693-2.07481 1.05619-.70947 2.10589-1.42542 3.16209-2.13327 1.0335-.69323 2.0718-1.37996 3.1069-2.07481 1.0189-.68349 2.0329-1.3751 3.0518-2.05859 1.4618-.97896 2.9268-1.95468 4.3903-2.932019.2336-.155855.4234-.1574785.6506-.004871.2904.194819.5759.396132.8663.589327 1.4781.990333 2.9561 1.979033 4.4325 2.972603.7074.47569 1.4082.95949 2.1156 1.43517 1.4764.99195 2.9561 1.98066 4.4325 2.97261.7447.50003 1.4829 1.00818 2.2259 1.50822 1.4342.96434 2.8701 1.92544 4.3059 2.88814 1.0351.6949 2.0686 1.3881 3.1005 2.0862.0778.052.1314.1396.1963.2111zm-7.5994 17.334c.0032-.052.0065-.0844.0065-.1169 0-4.8575 0-9.715-.0049-14.5724 0-.0698-.0584-.1656-.1184-.2062-1.1957-.8053-2.398-1.604-3.5969-2.406-2.4191-1.6203-4.8365-3.2421-7.2555-4.86075-1.1146-.74681-2.2308-1.48874-3.3454-2.23555-.0925-.06169-.1639-.06006-.2547.00325-.417.29061-.8372.57959-1.259.86207-.9913.66564-1.9859 1.32639-2.9788 1.99198-.9442.6332-1.8869 1.2729-2.8311 1.906-.9556.6413-1.9128 1.2777-2.8684 1.919-1.3515.9059-2.69975 1.8167-4.05447 2.7193-.1298.0861-.1736.1754-.1736.328.00324 4.8185.00324 9.637.00324 14.4555v.2127h28.72983z"></path><path d="m19.2727 45.2111v1.703h-.49v-3.8363c.0503-.0032.1071-.0097.1623-.0097.5191 0 1.0383-.0179 1.5575.0065.2823.013.5889.0438.8339.1672.2677.1347.4316.4172.4673.7387.0324.2955-.0228.5715-.198.8198-.1022.1445-.563.3653-.8339.3783.6279.4384.9037 1.1218 1.3336 1.7469-.2141 0-.3926.0065-.5694-.0049-.0406-.0032-.0893-.0568-.1169-.099-.2368-.3621-.464-.729-.7041-1.0877-.2336-.3491-.5273-.5942-.9913-.5261-.1395.0211-.2839.0033-.4526.0033zm.0113-.4676c.4965 0 .98.0114 1.4618-.0048.2467-.0082.4657-.2062.5143-.414.0958-.4027-.0843-.7371-.5029-.7793-.4835-.0487-.9751-.0114-1.4732-.0114v1.2079z"></path><path d="m32.7355 46.8946c-.3845.1331-.5905-.0406-.7706-.3458-.2645-.4481-.5662-.8734-.855-1.3069-.2856-.4286-.5727-.8556-.8843-1.3183v2.9872h-.4656v-3.8444c.1412 0 .2774-.0097.4105.0049.0487.0049.1038.0601.1346.1055.477.6981.9508 1.3978 1.4262 2.0976.1735.2548.3471.5081.5451.8003v-2.9937h.4575v3.8136z"></path><path d="m4.94681 46.9985c-.50457.0195-.941-.1315-1.26386-.5065-.43806-.5081-.63437-1.0942-.54189-1.7858.05516-.4092.19631-.7598.4413-1.0748.18982-.2451.43967-.3994.74469-.4951.23038-.0715.45265-.1137.69277-.1088.49808.0097.92802.1948 1.26062.5503.31475.3361.48024.7582.49646 1.2274.0146.4254-.01947.8345-.21091 1.2338-.20605.4303-.55163.6787-.96697.841-.20118.0796-.43318.0828-.65221.1202zm-1.28658-2.0001v.1753c.00325.9319.71549 1.5651 1.70679 1.3264.04867-.0113.10221-.0178.14115-.0438.31313-.2159.60678-.4497.68466-.8556.02109-.112.05841-.2208.06652-.3344.03569-.5358.01136-1.0602-.43156-1.4498-.63599-.5585-1.45045-.4627-1.94042.2127-.20767.2873-.23525.625-.22551.9692z"></path><path d="m16.2291 46.9548c-.5257.0844-.941-.1429-1.2882-.4952-.3083-.3133-.4316-.729-.4932-1.1559-.06-.414-.0179-.8248.1525-1.2095.2044-.4595.5224-.789 1.0221-.9563.3894-.1315.7626-.138 1.1438-.0308.6311.177 1.0384.5828 1.2217 1.2176.1574.5455.1363 1.0813-.0795 1.604-.1411.3426-.3521.6251-.6944.8085-.3131.1689-.6279.2793-.9848.2192zm-1.2768-1.9953c0 .1445-.0114.2435.0016.3393.0503.3507.1639.6608.4299.9221.2969.2907.6409.3215 1.0222.3215.3812 0 .6262-.2111.8517-.4643.2158-.2435.2775-.5553.3002-.8686.0227-.3214.0065-.6429-.1185-.9449-.1947-.4659-.5743-.7046-1.0464-.802-.4527-.0941-1.1179.2809-1.2639.6527-.1136.2873-.219.5747-.1768.8426z"></path><path d="m11.5288 45.3668v1.5456h-.498v-3.8802c.7268.039 1.4488.0487 2.161.1267.4624.0503.8485.7289.7317 1.1851-.0421.1624-.0941.3247-.1622.4773-.2012.4513-.6344.4968-1.0384.539-.3845.0406-.7771.0081-1.1941.0081zm.0114-1.867v1.4011c.3715 0 .7285-.0082 1.0854.0032.2028.0065.3683-.0519.5403-.1542.3066-.1851.2385-.4773.219-.7371-.0146-.1997-.1525-.3734-.3748-.3945-.4835-.0487-.9702-.0779-1.4699-.1169z"></path><path d="m7.94985 46.9156h-.50295v-3.8477h.18171c.46077 0 .92153-.0113 1.38068.0033.35693.0113.71386.0487.99781.3084.1979.1803.3358.3848.3553.6689.0292.4173-.0811.7744-.39102 1.0569-.07301.0666-.18333.1039-.28392.1283-.22714.0535-.4559.1136-.68791.1282-.34233.0211-.68466.0049-1.0497.0049zm.00162-2.0164c.37154 0 .72198-.0097 1.0708.0033.20118.0081.3764-.0374.54838-.1331.20929-.1169.29203-.2907.28067-.5244-.01135-.2371-.05029-.4676-.28879-.5812-.52079-.2484-1.07242-.0796-1.61106-.1364v1.3702z"></path><path d="m25.8938 43.0776h.5062v.2062c0 .7728.0032 1.544 0 2.3167-.0016.3848.1525.69.4948.8507.1753.0812.3975.0893.5971.0812.3585-.0162.6846-.1234.8161-.5081.0454-.1299.0746-.2712.0746-.4091.0065-.7728.0032-1.544.0032-2.3168 0-.0698 0-.1396 0-.2191h.4949c.0032.0535.0113.1087.0113.1656 0 .7662.0146 1.5309-.0065 2.2972-.0081.3117-.0324.6364-.2255.9108-.2336.3312-.5662.4903-.9572.5097-.2872.013-.5792-.0016-.8664-.0373-.4542-.0568-.7349-.3815-.8615-.8799-.1638-.6413-.0584-1.2988-.0795-1.9482-.0113-.3345-.0016-.6705-.0016-1.0163z"></path><path d="m8.96543 41.9982c.19469.0991.38127.1948.57109.2923-.04867.0974-.08923.1802-.14277.2889-.15575-.0763-.33098-.1217-.45428-.2289-.17846-.1542-.33746-.1299-.54026-.0649-.85015.2711-1.73437-.0779-1.98584-.9676-.14927-.5276-.12006-1.0569.12817-1.5537.20604-.4107.55811-.6478 1.00265-.75.54838-.1267 1.02375.0341 1.43097.3961.29204.2597.43319.625.47537.9984.05517.4806-.00486.9595-.30177 1.3735-.05191.0731-.11681.1364-.18333.2159zm-.29204-.2386c.08437-.1575.20281-.2987.23526-.4562.05678-.2728.0941-.5585.07787-.8361-.02433-.4416-.20442-.802-.64248-1.0001-.48185-.2159-1.07079-.0406-1.27684.2533-.33097.4708-.3472.9838-.22227 1.5358.1379.6056 1.00265.9514 1.47153.651-.14115-.0536-.27419-.1055-.40885-.1558.01461-.0374.0357-.0698.04219-.1072.03569-.211.1671-.2013.3115-.1282.13466.0681.25959.1542.41209.2451z"></path><path d="m36.9587 41.6345v-2.609h.4072v3.3022c-.1379 0-.2806.0146-.4169-.0065-.0568-.0097-.112-.0877-.1509-.1461-.4948-.7468-.9864-1.4969-1.478-2.2453-.0309-.0455-.0601-.0925-.1185-.1802v2.57h-.4169v-3.3022c.1233 0 .2514-.0081.378.0049.0438.0048.0941.0552.1217.0974.5191.7841 1.0335 1.5699 1.551 2.3557.0276.0405.06.0779.1217.1607z"></path><path d="m40.6124 41.0452h-.9589v-.3832h1.3872c0 .388.0016.7696-.0032 1.1511 0 .0373-.0455.0812-.0795.1104-.4884.4172-1.0757.5195-1.676.4302-.5403-.0812-.954-.3913-1.1519-.9384-.2077-.5731-.1704-1.1251.1087-1.6641.2271-.4383.5987-.664 1.0724-.7354.4478-.0682.8664.0065 1.2509.2663.2417.1639.3407.3993.4072.6851-.1006.0227-.2012.0308-.2904.0698-.0941.0406-.1282.0162-.146-.0747-.1201-.6348-1.0692-.7419-1.5657-.4172-.6797.4464-.6943 1.6803-.1427 2.1884.172.1575.378.2176.5857.2371.391.0357.7836.0194 1.1146-.2419.0357-.0276.0795-.0715.0811-.1088.0081-.1867.0032-.3734.0032-.5731z"></path><path d="m25.008 42.3633c-.649.0796-1.3515-.4692-1.5008-1.0747-.1427-.5861-.1006-1.156.2207-1.6592.2369-.3702.6295-.5471 1.0773-.6218.4818-.0796.8712.0925 1.2395.3588.2726.1964.3959.4886.4705.8036.0178.0747.026.1494.0389.2257.0941.5795-.0357 1.1153-.425 1.5423-.2888.3165-.6863.4821-1.1211.4253zm.0941-.3474c.3245-.0422.709-.1688.8793-.6169.0649-.1689.0763-.3572.1185-.5342.1233-.5211-.1801-1.3767-.9053-1.4725-.4689-.0617-.9264.1088-1.1341.5374-.1606.3328-.2012.6819-.159 1.0537.0665.5958.5046 1.0309 1.199 1.0309z"></path><path d="m3.44116 39.024h2.35251v.3734h-1.92581v1.0147h1.80413v.3912h-1.80738v1.1251h2.00369v.3864h-2.42714v-3.294z"></path><path d="m22.3927 40.7774h-1.6695v1.5374h-.4656v-3.2859h.4559v1.3394h1.6694v-1.3427h.4251v3.286h-.417v-1.5342z"></path><path d="m32.8459 39.9834h-.3667c-.1298-.1754-.2109-.3686-.3586-.4709-.3325-.2289-.9345-.2175-1.1973.1429-.206.2841-.0097.552.3099.6397.3342.0925.6846.138 1.0124.25.318.1088.5889.3312.6457.677.0584.3653-.026.7013-.378.9367-.3797.2533-.7901.2159-1.2022.1867-.1363-.0097-.2742-.0503-.4024-.1023-.3488-.1412-.4883-.4448-.5743-.7825-.0146-.0552-.0211-.112-.0341-.1851.1055 0 .2109-.0129.3083.0049.0535.0098.1346.065.1427.1104.0584.3409.2969.5114.5971.5585.2466.039.5143.0211.7593-.0308.2336-.0488.4056-.2192.4007-.4855-.0032-.211-.2515-.4367-.5175-.5081-.3424-.0909-.6928-.1575-1.0222-.2809-.5694-.2143-.7073-.8751-.3293-1.2825.3374-.3653.7917-.4319 1.2655-.3361.3731.0747.7057.2208.855.6104.0389.1039.0535.2176.086.3491z"></path><path d="m10.046 39.0238h.4673v.4124c0 .565-.0065 1.13.0049 1.6949.0032.1624.0389.3296.0908.4838.0779.2338.2872.3653.5403.3621.193-.0033.3926.0162.5759-.0309.3407-.086.4332-.3166.4559-.7517.0341-.6477.0081-1.2971.0081-1.9465v-.2208h.4478c.0049.0308.0179.0666.0179.1023 0 .6039.0243 1.2095-.0081 1.8102-.0179.3344.0081.6899-.2191.9903-.2076.2727-.4672.4286-.8095.4351-.2207.0032-.443.0162-.6604-.0146-.4542-.0617-.7219-.3475-.829-.7809-.0471-.19-.0747-.3897-.0779-.5861-.0097-.6039-.0032-1.2079-.0032-1.8118 0-.0439 0-.0893 0-.1494z"></path><path d="m16.0652 42.305c-.0146.0097-.0194.0162-.0227.0162-.3093.0227-.5137-.1109-.6132-.401-.0228-.0665-.052-.1299-.0763-.1948-.0519-.1347-.0665-.3247-.1639-.3896-.1054-.0698-.2871-.0228-.4364-.0228-.2531 0-.5062.0049-.7593-.0032-.1184-.0033-.1801.026-.2158.1526-.0665.237-.1703.4643-.2385.7013-.0389.1332-.1005.1786-.232.1624-.0892-.0098-.1817-.0016-.2904-.0016.4154-1.1089.8258-2.2064 1.2379-3.3055h.4981c.4364 1.0894.8745 2.1885 1.3125 3.2827zm-1.5656-2.8785c-.1898.5325-.3683 1.0277-.5484 1.531h1.0952c-.1801-.5049-.3586-1.0033-.5468-1.531z"></path><path d="m27.1398 39.0222h.4186c.0033.0666.0081.1283.0081.1916 0 .474-.0032.9481.0016 1.4222.0033.263.0146.5292.0406.7906.0227.2305.3083.578.6149.5504.1979-.0179.404.0113.5954-.0341.3407-.0812.4348-.341.4543-.7533.0292-.6478.0081-1.2988.0081-1.9482 0-.0698 0-.1396 0-.2192h.4283v.1851 2.104c0 .4205-.1995.729-.5565.9352-.1005.0584-.2238.1055-.339.1104-.2629.0097-.5322.0162-.7902-.0244-.5986-.0974-.8079-.5065-.8387-.9205-.039-.5082-.0341-1.0196-.0439-1.531-.0048-.2792 0-.5584 0-.8588z"></path><path d="m39.9504 46.9156h-.5062c0-.4822.0065-.9546-.0049-1.4255-.0016-.1071-.0389-.2272-.0957-.3182-.4251-.6558-.8599-1.3052-1.2914-1.9579-.026-.0406-.0487-.0844-.0747-.1299.0276-.0081.039-.0146.0503-.0146.5792-.0227.5841-.0146.9605.6462.1152.2045.2596.3929.3861.5909.1217.1916.2385.388.3472.565.3716-.5682.7447-1.1413 1.1228-1.7128.0292-.0438.0957-.0828.1476-.086.1476-.0114.2969-.0049.4867-.0049-.1525.2257-.2888.4302-.4283.6315-.3375.4936-.6782.9839-1.0091 1.4823-.0536.0795-.086.1867-.0877.2825-.0081.4789-.0032.9578-.0032 1.4514z"></path><path d="m24.1091 46.9174h-.5127v-3.3769h-1.2719v-.4594h3.0112v.4464h-1.2282v3.3915z"></path><path d="m36.0648 43.5325h-1.2428v-.4497h3.0112v.448h-1.2703v3.385h-.4981z"></path><path d="m18.4486 41.9316v.3832h-2.0459v-3.286h.4154v2.9028z"></path><path d="m34.1746 46.9158h-.4819v-3.833h.4819z"></path><path d="m33.5775 39.0239h.4429v3.2941h-.4429z"></path><path d="m29.6172 29.2846h-15.1615v-5.7846h15.1615z"></path><path d="m29.6027 21.6623h-15.1842v-5.7846h15.1258c.0194 1.9227.0389 3.8439.0584 5.7846z"></path></g></svg> 