<?xml version="1.0" encoding="UTF-8"?> <svg xmlns="http://www.w3.org/2000/svg" xmlns:xlink="http://www.w3.org/1999/xlink" width="176px" height="26px" viewBox="0 0 176 26" version="1.1"><!-- Generator: sketchtool 57.1 (101010) - https://sketch.com --><title>61C84466-DF41-490F-BF44-A3128EE8B7A6@1.5x</title><desc>Created with sketchtool.</desc><g id="Asset-Artboard-Page" stroke="none" stroke-width="1" fill="none" fill-rule="evenodd"><g id="logo-main-small-copy" transform="translate(0.133333, 0.000000)"><g id="College-Finance-Logo-Copy-8"><path d="M13.5951449,15.3387889 C12.5080546,15.6186579 11.337342,15.5155483 10.3505985,15.0294599 C10.3171496,15 10.2502517,15.01473 10.2168028,15.0441899 C10.2000783,15.0589198 10.2000783,15.0736498 10.2000783,15.0883797 C10.0161092,16.0458265 8.94574341,16.7234043 8.81194769,16.797054 L8.59452963,16.9296236 C8.52763177,16.9738134 8.42728497,16.9738134 8.34366265,16.9296236 L8.12624459,16.797054 C7.99244887,16.7234043 6.92208306,16.0458265 6.73811394,15.0883797 C6.73811394,15.0441899 6.704665,15 6.65449161,15 C6.63776714,15 6.62104268,15 6.60431821,15.01473 C5.5841258,15.5155483 4.37996427,15.6186579 3.27614953,15.309329 C3.1925272,15.294599 3.09218041,15.309329 3.02528255,15.3535188 C2.50682411,15.8101473 2.071988,16.3551555 1.73749869,16.9443535 C1.33611151,17.6808511 1.08524452,18.4762684 1.01834666,19.2864157 C0.884550936,20.9803601 1.4866317,22.6595745 2.69079323,24 C2.77441556,23.7348609 3.91167923,20.8330606 8.54435623,19.7430442 C12.5080546,18.8150573 14.3811948,17.3273322 15,16.7528642 C14.6989596,16.2520458 14.2975724,15.7806874 13.8460119,15.3829787 C13.779114,15.3387889 13.6787672,15.309329 13.5951449,15.3387889 Z" id="Path" fill="#ED565E" fill-rule="nonzero"></path><path d="M90.2822533,11.6105531 C87.3669679,11.6105531 85.36075,13.6840054 85.36075,16.7396192 C85.36075,19.7796432 87.4296622,21.8063259 90.4076419,21.8063259 C92.0533675,21.8063259 93.4483159,21.3386299 94.5611398,20.3408784 L93.0251293,18.6571728 C92.3354919,19.2339979 91.4734451,19.576975 90.5643777,19.5925648 C89.3261651,19.5925648 88.3387297,18.98456 88.0566053,17.581472 L94.9529793,17.581472 C94.9843264,17.2852646 95,16.9890571 95,16.7084395 C94.9843264,13.6840054 93.07215,11.6105531 90.2822533,11.6105531 Z M88.0566053,15.8042273 C88.291709,14.6038075 89.0126935,13.8710838 90.2509061,13.8710838 C91.3794037,13.8710838 92.1317354,14.5726278 92.366839,15.8042273 L88.0566053,15.8042273 Z M66.8659289,11.6105531 C63.9506436,11.6105531 61.9600993,13.6840054 61.9600993,16.7396192 C61.9600993,19.7796432 64.0290115,21.8063259 67.0069911,21.8063259 C68.6527167,21.8063259 70.0476651,21.3386299 71.1604891,20.3408784 L69.6244785,18.6571728 C68.9348411,19.2339979 68.0727944,19.576975 67.1637269,19.5925648 C65.9255143,19.5925648 64.938079,18.98456 64.6559546,17.581472 L71.5523285,17.581472 C71.5836757,17.2852646 71.5993493,16.9890571 71.5993493,16.7084395 C71.5836757,13.6840054 69.6714993,11.6105531 66.8659289,11.6105531 Z M64.6559546,15.8042273 L64.6559546,15.8042273 C64.8910582,14.6038075 65.6120428,13.8710838 66.8502554,13.8710838 C67.9787529,13.8710838 68.7310846,14.5726278 68.9818619,15.8042273 L64.6559546,15.8042273 Z M57.1639847,7.16744116 L59.7814721,7.16744116 L59.7814721,21.556888 L57.1639847,21.556888 L57.1639847,7.16744116 Z M80.6273297,12.9512817 C79.9690395,12.1250187 78.9659305,11.6105531 77.6180029,11.6105531 C75.2356192,11.6105531 73.1196862,13.5748763 73.1196862,16.5525408 C73.1196862,19.5146155 75.2356192,21.4945286 77.6023293,21.4945286 C78.950257,21.4945286 79.9376923,20.9956528 80.5959826,20.1849798 L80.5959826,20.8709339 C80.5959826,22.5390496 79.4518114,23.4432619 77.8217594,23.4432619 C76.6775883,23.4432619 75.5490907,23.1002848 74.6086761,22.4611003 L73.683935,24.596912 C74.7810854,25.3608155 76.4111375,25.766152 77.947148,25.766152 C81.1602313,25.766152 83.1977964,23.8797781 83.1977964,20.7773947 L83.1977964,11.8911707 L80.6273297,11.8911707 L80.6273297,12.9512817 L80.6273297,12.9512817 Z M78.2762931,19.109279 C76.7716297,19.109279 75.8312151,17.9712187 75.8312151,16.5681307 C75.8312151,15.1650427 76.7873033,14.0113926 78.2762931,14.0113926 C79.7339358,14.0113926 80.7213712,15.1182731 80.7213712,16.5681307 C80.7213712,18.0023984 79.7339358,19.109279 78.2762931,19.109279 Z M27.274473,14.5726278 C27.2901465,17.3788038 29.2336701,19.1560486 31.7100953,19.1560486 C33.1834116,19.1872283 34.5626864,18.4545046 35.3777124,17.238495 L37.6660546,18.875431 C36.4121685,20.6994454 34.2962355,21.8375056 31.7257689,21.8375056 C27.3998616,21.8375056 24.343514,18.7974816 24.343514,14.5882177 C24.343514,10.3789537 27.3998616,7.3389297 31.7257689,7.3389297 C34.3119091,7.3389297 36.615925,8.52375956 37.7600961,10.4724929 L35.3463652,11.9379403 C34.5470128,10.7063409 33.1834116,9.98920702 31.7100953,10.0203867 C29.1709758,9.98920702 27.274473,11.8444011 27.274473,14.5726278 Z M54.4054351,7.16744116 L54.4054351,21.556888 L51.7879477,21.556888 L51.7879477,7.16744116 L54.4054351,7.16744116 Z M44.3743457,11.6105531 C41.3493453,11.6105531 39.1236973,13.7931345 39.1236973,16.7084395 C39.1236973,19.6237446 41.3493453,21.8063259 44.3743457,21.8063259 C47.4150197,21.8063259 49.6563412,19.6237446 49.6563412,16.7084395 C49.6563412,13.7931345 47.3993461,11.6105531 44.3743457,11.6105531 Z M44.3743457,19.3898966 C42.9010294,19.3898966 41.7882054,18.283016 41.7882054,16.7240294 C41.7882054,15.1650427 42.9010294,14.0581622 44.3743457,14.0581622 C45.8476619,14.0581622 46.9604859,15.1494529 46.9604859,16.7240294 C46.9604859,18.2986059 45.8633355,19.3898966 44.3743457,19.3898966 Z M5.61358929,23.9109579 L5.61358929,25.8596912 C5.61358929,25.9376405 5.55089499,26 5.4725271,26 L4.59480678,26 C4.51643889,26 4.45374458,25.9376405 4.45374458,25.8596912 L4.45374458,23.9109579 C4.45374458,23.8330085 4.51643889,23.7706491 4.59480678,23.7706491 L5.4725271,23.7706491 C5.55089499,23.7706491 5.61358929,23.8330085 5.61358929,23.9109579 Z M14.1086681,2.66196972 C14.187036,2.66196972 14.2654039,2.72432919 14.2654039,2.80227852 L14.2654039,5.76435317 C14.2654039,5.82671264 14.2340567,5.87348224 14.1713624,5.90466197 C10.4723982,7.3856993 6.75776043,7.3856993 3.05879621,5.90466197 C2.9961019,5.87348224 2.96475475,5.82671264 2.96475475,5.76435317 L2.96475475,2.88022785 C2.96475475,2.86463799 2.96475475,2.86463799 2.96475475,2.84904812 C2.98042833,2.77109879 3.05879621,2.72432919 3.1371641,2.73991905 L8.3564653,3.90915905 C8.51320107,3.94033878 8.68561042,3.94033878 8.85801977,3.90915905 L14.077321,2.64637985 C14.0929946,2.66196972 14.1086681,2.66196972 14.1086681,2.66196972 Z M1.09959906,4.12741718 L1.09959906,1.74216759 C1.09959906,1.72657772 1.09959906,1.72657772 1.09959906,1.71098786 C1.09959906,1.63303852 1.16229337,1.57067906 1.24066126,1.55508919 L8.56022181,0.0116923999 C8.65426327,-0.00389746665 8.76397831,-0.00389746665 8.85801977,0.0116923999 L15.6760258,1.55508919 C15.7387202,1.57067906 15.8014145,1.61744866 15.817088,1.69539799 C15.8327616,1.78893719 15.7857409,1.88247639 15.6760258,1.91365612 L8.74830473,3.55059212 C8.63858969,3.58177185 8.52887465,3.58177185 8.41915961,3.55059212 L2.16540231,2.11632439 L2.16540231,4.12741718 C2.16540231,4.14300705 2.16540231,4.14300705 2.16540231,4.15859691 C2.14972874,4.18977665 2.11838158,4.18977665 2.08703443,4.17418678 L1.66384784,3.94033878 C1.64817427,3.92474891 1.63250069,3.92474891 1.60115353,3.94033878 L1.17796695,4.17418678 C1.16229337,4.17418678 1.16229337,4.17418678 1.1466198,4.17418678 C1.13094622,4.18977665 1.09959906,4.15859691 1.09959906,4.12741718 Z M11.334445,23.0379253 L11.334445,25.8596912 C11.334445,25.9376405 11.2717507,26 11.1933828,26 L10.3156625,26 C10.2372946,26 10.1746003,25.9376405 10.1746003,25.8596912 L10.1746003,23.0379253 C10.1746003,22.959976 10.2372946,22.8976165 10.3156625,22.8976165 L11.1933828,22.8976165 C11.2717507,22.9132064 11.334445,22.9755659 11.334445,23.0379253 Z M7.03988482,23.0379253 L7.03988482,25.8596912 C7.03988482,25.9376405 6.97719051,26 6.89882262,26 L6.0211023,26 C5.94273442,26 5.88004011,25.9376405 5.88004011,25.8596912 L5.88004011,23.0379253 C5.88004011,22.959976 5.94273442,22.8976165 6.0211023,22.8976165 L6.89882262,22.8976165 C6.97719051,22.9132064 7.03988482,22.9755659 7.03988482,23.0379253 Z M17.1023214,6.48148703 C17.1336685,6.5438465 17.117995,6.6373857 17.0396271,6.66856543 C16.0365181,7.1986209 14.9863885,7.65072703 13.9205852,8.00929396 C13.8422173,8.04047369 13.8422173,8.07165343 13.9205852,8.10283316 C13.9832795,8.13401289 14.0616474,8.16519262 14.1243417,8.19637236 C16.0678653,9.20971369 16.820197,11.5949633 15.8014145,13.5281067 C15.7700673,13.6060561 15.7700673,13.6840054 15.8014145,13.7619547 C16.3186425,14.6193974 16.6948084,15.5547894 16.8985649,16.536951 C17.117995,17.6126518 17.1336685,18.7039424 16.929912,19.7796432 C16.5694197,21.7595563 15.4879429,23.5523909 13.8735645,24.7684005 C13.8108702,24.8151701 13.7951966,24.7995803 13.8578909,24.7372208 C15.0177356,23.3185429 15.6133315,21.5101184 15.4879429,19.6705142 C15.4252486,18.8130715 15.2058185,17.9712187 14.8139791,17.1917254 C14.7826319,17.1293659 14.7512848,17.0670064 14.7042641,16.9890571 C14.4221397,16.4590016 14.0459738,15.9601259 13.6227872,15.5391995 C13.5600929,15.4768401 13.4660515,15.4612502 13.3876836,15.4768401 C12.3689011,15.7730475 11.2717507,15.6639185 10.3470096,15.1494529 C10.331336,15.133863 10.3156625,15.133863 10.2999889,15.133863 C10.2529681,15.133863 10.221621,15.1650427 10.221621,15.2118123 C10.0492116,16.2251537 9.0461027,16.9422875 8.92071408,17.0202368 L8.71695758,17.1605456 C8.65426327,17.2073152 8.56022181,17.2073152 8.48185392,17.1605456 L8.27809742,17.0202368 C8.1527088,16.9422875 7.14959986,16.2251537 6.97719051,15.2118123 C6.97719051,15.1962225 6.97719051,15.1806326 6.96151693,15.1650427 C6.93016978,15.133863 6.88314905,15.1182731 6.83612832,15.1494529 C5.88004011,15.6795083 4.75154255,15.7886374 3.71708645,15.4612502 C3.63871857,15.4456603 3.54467711,15.4612502 3.4819828,15.5080198 C2.9961019,15.9913057 2.5885889,16.5681307 2.27511735,17.1917254 C1.8989515,17.9712187 1.66384784,18.8130715 1.60115353,19.6705142 C1.47576492,21.4633488 2.0400137,23.2405936 3.16851125,24.6592715 L3.23120556,24.7372208 C3.27822629,24.7995803 3.26255272,24.7995803 3.21553198,24.7684005 C1.60115353,23.5523909 0.504003131,21.7595563 0.143510856,19.7796432 C-0.0602456477,18.7039424 -0.0445720706,17.5970619 0.17485801,16.5213611 C0.394288091,15.5080198 0.770453943,14.5414481 1.31902914,13.6684155 C1.36604988,13.5904662 1.36604988,13.5125169 1.33470272,13.4345675 C1.31902914,13.4033878 1.30335557,13.3566182 1.28768199,13.3254385 C0.362940936,11.3611153 1.25633484,9.00704542 3.24687914,8.10283316 C3.32524702,8.07165343 3.32524702,8.02488383 3.24687914,8.00929396 C2.16540231,7.65072703 1.13094622,7.1986209 0.127837279,6.66856543 L0.127837279,6.66856543 C0.0651429698,6.6373857 0.0337958154,6.5438465 0.080816547,6.48148703 L0.504003131,5.71758357 C0.535350285,5.6552241 0.629391749,5.62404437 0.692086057,5.6552241 C5.94273442,8.43022036 11.2560771,8.43022036 16.5067254,5.6552241 C16.5694197,5.62404437 16.6634612,5.63963424 16.6948084,5.71758357 L17.1023214,6.48148703 L17.1023214,6.48148703 Z M12.7607405,23.9109579 L12.7607405,25.8596912 C12.7607405,25.9376405 12.6980462,26 12.6196783,26 L11.741958,26 C11.6635901,26 11.6008958,25.9376405 11.6008958,25.8596912 L11.6008958,23.9109579 C11.6008958,23.8330085 11.6635901,23.7706491 11.741958,23.7706491 L12.6196783,23.7706491 C12.6980462,23.7706491 12.7607405,23.8330085 12.7607405,23.9109579 Z" id="Shape" fill="#554759" fill-rule="nonzero"></path><path d="M9.52289157,15.1746032 C9.52289157,15.4444444 9.32048193,15.7301587 9.10120482,15.952381 C9.08433735,15.984127 9.03373494,16 9,16 C8.88192771,15.3809524 8.89879518,14.7301587 9.03373494,14.1111111 C9.21927711,14.1746032 9.52289157,14.5555556 9.52289157,15.1746032 Z M8.07228916,11.8730159 C8.07228916,13.4444444 6.7060241,14.7301587 5.03614458,14.7301587 C3.36626506,14.7301587 2,13.4444444 2,11.8730159 C2,10.3015873 3.36626506,9.01587302 5.03614458,9.01587302 C6.7060241,9.01587302 8.07228916,10.3015873 8.07228916,11.8730159 Z M7.17831325,11.8888889 C7.17831325,11.5714286 7.11084337,11.2698413 6.95903614,10.984127 C6.9253012,10.9206349 6.90843373,10.9206349 6.9253012,11 C6.94216867,11.0634921 6.94216867,11.1269841 6.94216867,11.1904762 C6.94216867,11.8253968 6.38554217,12.3492063 5.71084337,12.3492063 C5.03614458,12.3492063 4.47951807,11.8253968 4.47951807,11.1904762 C4.47951807,10.5555556 5.03614458,10.031746 5.71084337,10.031746 C5.81204819,10.031746 5.89638554,10.047619 5.98072289,10.0634921 C6.06506024,10.0793651 6.06506024,10.0634921 5.99759036,10.031746 C4.91807229,9.47619048 3.5686747,9.84126984 2.96144578,10.8571429 C2.35421687,11.8730159 2.75903614,13.1428571 3.83855422,13.7142857 C4.15903614,13.8888889 4.53012048,13.968254 4.90120482,13.968254 C6.16626506,13.984127 7.16144578,13.047619 7.17831325,11.8888889 Z M16,11.8730159 C16,13.4444444 14.6337349,14.7301587 12.9638554,14.7301587 C11.2939759,14.7301587 9.92771084,13.4444444 9.92771084,11.8730159 C9.92771084,10.3015873 11.2939759,9.01587302 12.9638554,9.01587302 C14.6337349,9.01587302 16,10.3015873 16,11.8730159 Z M15.0891566,11.8888889 C15.0891566,11.5714286 15.0216867,11.2698413 14.8698795,10.984127 C14.8361446,10.9206349 14.8192771,10.9206349 14.8361446,11 C14.853012,11.0634921 14.853012,11.1269841 14.853012,11.1904762 C14.853012,11.8253968 14.2963855,12.3492063 13.6216867,12.3492063 C12.946988,12.3492063 12.3903614,11.8253968 12.3903614,11.1904762 C12.3903614,10.5555556 12.946988,10.031746 13.6216867,10.031746 C13.7228916,10.031746 13.8072289,10.047619 13.8915663,10.0634921 C13.9759036,10.0793651 13.9759036,10.0634921 13.9084337,10.031746 C12.8289157,9.47619048 11.4795181,9.84126984 10.8722892,10.8571429 C10.686747,11.1746032 10.5855422,11.5238095 10.5855422,11.8730159 C10.5855422,13.031746 11.5807229,13.968254 12.8120482,13.984127 C14.0939759,13.984127 15.0891566,13.047619 15.0891566,11.8888889 Z M8.98313253,9.01587302 C8.71325301,9.01587302 8.42650602,9.01587302 8.15662651,9 C8.07228916,9 8.05542169,9.03174603 8.1060241,9.0952381 C8.44337349,9.42857143 8.71325301,9.80952381 8.91566265,10.2222222 C8.94939759,10.2857143 9,10.3015873 9.03373494,10.2222222 C9.23614458,9.80952381 9.5060241,9.42857143 9.84337349,9.0952381 C9.8939759,9.04761905 9.87710843,9 9.79277108,9 C9.53975904,9.01587302 9.26987952,9.01587302 8.98313253,9.01587302 Z" id="Shape" fill="#FFFFFF" fill-rule="nonzero"></path><g id="Group" transform="translate(96.000000, 7.000000)" fill="#ED565E"><path d="M11.6972638,4.44183314 L10.0543108,4.44183314 C10.0069179,4.44183314 9.97532266,4.47356052 9.97532266,4.52115159 L9.97532266,14.3407756 C9.97532266,14.3883666 10.0069179,14.420094 10.0543108,14.420094 L11.6972638,14.420094 C11.7446567,14.420094 11.7762519,14.3883666 11.7762519,14.3407756 L11.7762519,4.52115159 C11.7762519,4.47356052 11.7446567,4.44183314 11.6972638,4.44183314 Z" id="Path" fill-rule="nonzero"></path><ellipse id="Oval" cx="10.7884615" cy="2.60869565" rx="1" ry="1"></ellipse><path d="M42.7711926,4.37837838 C42.0129066,4.37837838 40.6385132,4.55287897 39.7064533,5.69506463 L39.7064533,4.66392479 C39.7064533,4.61633373 39.674858,4.58460635 39.6274652,4.58460635 L37.9845121,4.58460635 C37.9371193,4.58460635 37.905524,4.61633373 37.905524,4.66392479 L37.905524,14.3249119 C37.905524,14.3725029 37.9371193,14.4042303 37.9845121,14.4042303 L39.6432628,14.4042303 C39.6906557,14.4042303 39.7222509,14.3725029 39.7222509,14.3249119 L39.7222509,8.89952996 C39.7222509,7.24970623 40.8596799,6.10752056 42.4868353,6.10752056 C44.1139907,6.10752056 45.0460506,7.10693302 45.0460506,8.8519389 L45.0460506,14.3090482 C45.0460506,14.3566392 45.0776458,14.3883666 45.1250387,14.3883666 L46.7837894,14.3883666 C46.8311822,14.3883666 46.8627775,14.3566392 46.8627775,14.3090482 L46.8627775,8.31257344 C46.8627775,5.96474736 45.2198245,4.37837838 42.7711926,4.37837838 Z" id="Path" fill-rule="nonzero"></path><path d="M53.7821373,6.10752056 C54.7299948,6.10752056 55.5356737,6.45652174 56.2781621,7.17038778 C56.2939597,7.18625147 56.3097574,7.18625147 56.3413526,7.18625147 C56.3571502,7.18625147 56.3887455,7.17038778 56.4045431,7.15452409 L57.462984,6.02820212 C57.4945792,5.99647474 57.4945792,5.94888367 57.462984,5.91715629 C56.5941146,4.91774383 55.314507,4.36251469 53.8295302,4.36251469 C50.8911719,4.36251469 48.7584925,6.5199765 48.7584925,9.4706228 C48.7584925,12.4371328 50.8911719,14.5787309 53.8295302,14.5787309 C55.2987093,14.5787309 56.5941146,14.0235018 57.462984,13.039953 C57.4945792,13.0082256 57.4945792,12.9606345 57.462984,12.9289072 L56.4361384,11.7867215 C56.4203407,11.7708578 56.4045431,11.7549941 56.3729479,11.7549941 C56.3571502,11.7549941 56.325555,11.7549941 56.3097574,11.7708578 C55.6304595,12.4529965 54.7299948,12.8495887 53.7663397,12.8654524 C51.9180176,12.8654524 50.591017,11.4377203 50.591017,9.4706228 C50.6068147,7.53525264 51.9338152,6.10752056 53.7821373,6.10752056 Z" id="Path" fill-rule="nonzero"></path><path d="M19.0431595,4.37837838 C18.2848735,4.37837838 16.9104801,4.55287897 15.9784202,5.69506463 L15.9784202,4.66392479 C15.9784202,4.61633373 15.946825,4.58460635 15.8994321,4.58460635 L14.2564791,4.58460635 C14.2090862,4.58460635 14.177491,4.61633373 14.177491,4.66392479 L14.177491,14.3249119 C14.177491,14.3725029 14.2090862,14.4042303 14.2564791,14.4042303 L15.9152297,14.4042303 C15.9626226,14.4042303 15.9942179,14.3725029 15.9942179,14.3249119 L15.9942179,8.89952996 C15.9942179,7.24970623 17.1316469,6.10752056 18.7588023,6.10752056 C20.3859577,6.10752056 21.3180176,7.10693302 21.3180176,8.8519389 L21.3180176,14.3090482 C21.3180176,14.3566392 21.3496128,14.3883666 21.3970057,14.3883666 L23.0557563,14.3883666 C23.1031492,14.3883666 23.1347445,14.3566392 23.1347445,14.3090482 L23.1347445,8.31257344 C23.1347445,5.96474736 21.4917914,4.37837838 19.0431595,4.37837838 Z" id="Path" fill-rule="nonzero"></path><path d="M9.50139391,1.74500588 L8.22178627,0.0475910693 C8.20598864,0.0317273796 8.19019102,0.0158636898 8.15859577,0.0158636898 L0.180795044,0.0158636898 C0.133402168,0.0158636898 0.101806918,0.0475910693 0.101806918,0.0951821387 L0.101806918,14.3407756 C0.101806918,14.3883666 0.133402168,14.420094 0.180795044,14.420094 L1.96592669,14.420094 C2.01331957,14.420094 2.04491482,14.3883666 2.04491482,14.3407756 L2.04491482,8.09048179 L8.09540527,8.09048179 C8.14279814,8.09048179 8.17439339,8.05875441 8.17439339,8.01116334 L8.17439339,6.31374853 C8.17439339,6.26615746 8.14279814,6.23443008 8.09540527,6.23443008 L2.04491482,6.23443008 L2.04491482,1.87191539 L9.45400103,1.87191539 C9.48559628,1.87191539 9.51719153,1.8560517 9.51719153,1.82432432 C9.51719153,1.79259694 9.53298916,1.76086957 9.50139391,1.74500588 Z" id="Path" fill-rule="nonzero"></path><path d="M35.2831182,4.58460635 L33.6243676,4.58460635 C33.5769747,4.58460635 33.5453795,4.61633373 33.5453795,4.66392479 L33.5453795,5.75851939 C32.7239029,4.85428907 31.5864739,4.37837838 30.2278782,4.37837838 C27.4474961,4.37837838 25.346412,6.58343126 25.346412,9.48648649 C25.346412,12.3895417 27.4474961,14.5945946 30.2278782,14.5945946 C31.5706763,14.5945946 32.7081053,14.1186839 33.5453795,13.2303173 L33.5453795,14.3090482 C33.5453795,14.3566392 33.5769747,14.3883666 33.6243676,14.3883666 L35.2831182,14.3883666 C35.3305111,14.3883666 35.3621064,14.3566392 35.3621064,14.3090482 L35.3621064,4.66392479 C35.3621064,4.61633373 35.3147135,4.58460635 35.2831182,4.58460635 Z M30.4174497,13.0558167 C28.4743418,13.0558167 27.0209602,11.5329025 27.0209602,9.50235018 C27.0209602,7.44007051 28.4585441,5.94888367 30.4174497,5.94888367 C32.3763552,5.94888367 33.7981415,7.44007051 33.7981415,9.50235018 C33.7981415,11.5646298 32.3763552,13.0558167 30.4174497,13.0558167 Z" id="Shape" fill-rule="nonzero"></path><path d="M63.3397006,4.37837838 C60.5277233,4.37837838 58.474032,6.53584019 58.474032,9.48648649 C58.474032,12.5005875 60.5119257,14.5945946 63.4344863,14.5945946 C65.0774393,14.5945946 66.357047,14.1186839 67.4312855,13.1034078 C67.4628807,13.0716804 67.4628807,13.0240893 67.4470831,12.9923619 L66.5624161,11.8501763 C66.5466185,11.8343126 66.5308209,11.8184489 66.5150232,11.8184489 C66.4992256,11.8184489 66.4676304,11.8184489 66.4518327,11.8343126 C65.6461538,12.5481786 64.6193082,12.9606345 63.5450697,12.9606345 C61.8073309,12.9606345 60.6067114,11.8819036 60.369747,10.1368978 L67.8420237,10.1368978 C67.8894166,10.1368978 67.9210119,10.1051704 67.9210119,10.0575793 C67.9210119,10.0099882 67.9210119,9.94653349 67.9368095,9.88307873 C67.9526071,9.74030552 67.9526071,9.58166863 67.9526071,9.42303173 C67.9210119,6.47238543 66.0252969,4.37837838 63.3397006,4.37837838 Z M66.230666,8.78848414 C66.2148684,8.80434783 66.1832731,8.82021152 66.1674755,8.82021152 L60.2907589,8.82021152 C60.243366,8.82021152 60.2117708,8.78848414 60.2117708,8.75675676 C60.2117708,8.74089307 60.2275684,8.72502938 60.2275684,8.70916569 C60.5119257,6.93243243 61.6651523,5.86956522 63.3081053,5.86956522 C64.8878678,5.86956522 66.0410945,6.99588719 66.2464636,8.74089307 C66.2464636,8.75675676 66.2464636,8.77262045 66.230666,8.78848414 Z" id="Shape" fill-rule="nonzero"></path></g></g></g></g></svg> 