<?xml version="1.0" encoding="UTF-8"?> <svg xmlns="http://www.w3.org/2000/svg" xmlns:xlink="http://www.w3.org/1999/xlink" width="417px" height="72px" viewBox="0 0 417 72" version="1.1"><title>Icon/Logo/Harris</title><g id="Symbols" stroke="none" stroke-width="1" fill="none" fill-rule="evenodd"><g id="Icon/Logo/Harris" transform="translate(-0.500000, 0.000000)"><g id="BMOHB_2"><path d="M19.2066454,44.3667945 C19.2066454,48.3652603 17.8679078,50.2806575 13.2059858,50.2806575 L10.2998014,50.2806575 L10.2998014,39.0772603 L13.3962482,39.0772603 C17.6322979,39.0772603 19.2066454,40.5754521 19.2066454,44.3667945 Z M25.452773,44.7830137 C25.452773,40.1247123 21.6603404,38.4509589 17.0555957,38.3444384 L17.0555957,38.1718356 C20.9692837,37.8591781 24.186,36.2100822 24.186,32.2481096 C24.186,27.8482192 20.5473546,27.0246575 16.4788936,27.0246575 C11.5843191,27.0246575 5.83898582,27.1587945 0.95722695,27.0246575 L0.95722695,28.2555616 C1.99529078,28.1865205 4.49531915,28.325589 4.49531915,29.621589 L4.49531915,48.9590137 C4.49531915,50.2116164 1.92036879,50.4207123 0.95722695,50.4207123 L0.95722695,51.6170959 C5.68717021,51.4750685 11.2767447,51.6170959 16.0145745,51.6170959 C21.0037872,51.6170959 25.452773,49.8950137 25.452773,44.7830137 Z M18.2149149,32.9848767 C18.2149149,36.0690411 16.8633617,37.7881644 13.3193546,37.7881644 L10.2998014,37.7881644 L10.2998014,28.325589 C10.6852553,28.2890959 11.9717447,28.2555616 12.3542411,28.2555616 L13.3962482,28.2555616 C17.0161631,28.2555616 18.2149149,29.8681644 18.2149149,32.9848767 L18.2149149,32.9848767 Z" id="Fill-1" fill="#006FAC"></path><path d="M57.0205603,51.5766575 C54.8310638,51.5766575 52.6405816,51.5460822 50.4510851,51.6151233 L50.4510851,50.3842192 C51.4497163,50.3842192 54.2109858,50.3151781 54.2109858,48.9550685 L54.2109858,30.9412603 L54.1360638,30.9412603 L44.0748298,51.8952329 L43.0377518,51.8952329 L33.247617,30.9412603 L33.1697376,30.9412603 L33.1697376,48.9550685 C33.1697376,50.3536438 36.0522624,50.3842192 37.0883546,50.3842192 L37.1277872,51.6151233 C34.397078,51.5036712 30.6647801,51.4366027 27.9735035,51.6151233 L27.9735035,50.3842192 C29.0155106,50.3842192 31.5125816,50.2826301 31.5125816,48.9550685 L31.5125816,29.6482192 C31.5125816,28.358137 28.938617,28.253589 27.9735035,28.253589 L27.939,27.0246575 C31.0522057,27.1587945 34.397078,27.1587945 37.5102837,27.0246575 L45.8818298,44.5896986 L54.4032199,27.0611507 C57.4050284,27.1913425 60.6345603,27.1587945 63.6304539,27.0246575 L63.6304539,28.253589 C62.6308369,28.253589 60.0203972,28.325589 60.0203972,29.6482192 L60.0203972,48.9550685 C60.0203972,50.3151781 62.5943617,50.3842192 63.6304539,50.3842192 L63.6304539,51.6151233 C61.4389858,51.5460822 59.2110426,51.5766575 57.0205603,51.5766575" id="Fill-2" fill="#006FAC"></path><path d="M93.2039362,39.2755068 C93.2039362,31.1513425 88.2413404,26.5956164 79.294078,26.5956164 C70.3438582,26.5956164 65.3438014,31.1148493 65.3438014,39.2755068 C65.3438014,47.4371507 70.3014681,51.9909041 79.294078,51.9909041 C88.2778156,51.9909041 93.2039362,47.4371507 93.2039362,39.2755068 Z M86.7044539,39.2755068 C86.7044539,44.0778082 86.2401348,50.7639452 79.294078,50.7639452 C72.3430922,50.7639452 71.8422979,44.0778082 71.8422979,39.2755068 C71.8422979,34.4810959 72.3430922,27.8245479 79.294078,27.8245479 C86.2036596,27.8245479 86.7044539,34.5126575 86.7044539,39.2755068 L86.7044539,39.2755068 Z" id="Fill-3" fill="#006FAC"></path><path d="M143.725014,0.61939726 C124.135872,0.61939726 108.239596,16.5185753 108.239596,36.124274 C108.239596,55.7319452 124.135872,71.6232329 143.725014,71.6232329 C163.331901,71.6232329 179.219305,55.7319452 179.219305,36.124274 C179.219305,16.5185753 163.331901,0.61939726 143.725014,0.61939726" id="Fill-4" fill="#DA322A"></path><path d="M142.64456,25.2877808 L136.483213,17.2513973 C136.232816,16.9209863 135.836518,16.7069589 135.389943,16.7069589 C134.956184,16.7069589 134.569745,16.9091507 134.317376,17.2247671 L126.984879,26.4723288 L126.984879,40.9650411 L134.275972,31.6139178 C134.535241,31.2844932 134.937454,31.0724384 135.389943,31.0724384 C135.848348,31.0724384 136.254504,31.2894247 136.514759,31.6257534 L142.704695,39.7262466 C142.939319,40.0359452 143.310972,40.2361644 143.728957,40.2361644 C144.146943,40.2361644 144.518596,40.0359452 144.75322,39.7262466 L150.943156,31.6257534 C151.203411,31.2894247 151.609567,31.0724384 152.067972,31.0724384 C152.520461,31.0724384 152.922674,31.2844932 153.181943,31.6139178 L160.473035,40.9650411 L160.473035,26.4723288 L153.140539,17.2247671 C152.88817,16.9091507 152.500745,16.7069589 152.067972,16.7069589 C151.621397,16.7069589 151.224113,16.9209863 150.973716,17.2513973 L144.812369,25.2877808 C144.562957,25.6112877 144.169617,25.8193973 143.728957,25.8193973 C143.288298,25.8193973 142.894957,25.6112877 142.64456,25.2877808 Z M126.984879,51.5963836 L160.473035,51.5963836 L160.473035,40.9650411 L126.984879,40.9650411 L126.984879,51.5963836 Z" id="Fill-5" fill="#FFFFFE"></path><path d="M211.448574,51.6289315 L211.448574,50.452274 C212.428475,50.452274 215.095106,50.452274 215.095106,49.1326027 L215.095106,39.2518356 L203.016894,39.2518356 L203.016894,49.1326027 C203.016894,50.452274 205.683525,50.452274 206.663426,50.452274 L206.663426,51.6289315 C202.781284,51.4869041 198.271177,51.4869041 194.390021,51.6289315 L194.390021,50.452274 C195.369922,50.452274 198.036553,50.452274 198.036553,49.1326027 L198.036553,28.9804932 C198.036553,27.6608219 195.330489,27.6608219 194.390021,27.6608219 L194.390021,26.4831781 C198.23273,26.6261918 202.820716,26.6261918 206.663426,26.4831781 L206.663426,27.6608219 C205.683525,27.6608219 203.016894,27.6608219 203.016894,28.9804932 L203.016894,37.9686575 L215.095106,37.9686575 L215.095106,28.9804932 C215.095106,27.6953425 212.390021,27.6608219 211.448574,27.6608219 L211.448574,26.4831781 C215.291284,26.6261918 219.87927,26.6261918 223.722965,26.4831781 L223.722965,27.6608219 C222.743064,27.6608219 220.036014,27.6608219 220.036014,28.9804932 L220.036014,49.1326027 C220.036014,50.452274 222.743064,50.452274 223.722965,50.452274 L223.722965,51.6289315 C219.838851,51.4869041 215.32973,51.4869041 211.448574,51.6289315" id="Fill-6" fill="#006FAC"></path><path d="M237.405099,42.1781918 C233.679702,42.4977534 230.660149,42.748274 230.660149,46.9578082 C230.660149,48.6680548 231.247695,50.380274 233.482539,50.380274 C236.580957,50.380274 237.405099,47.8129315 237.405099,45.4586301 L237.405099,42.1781918 Z M240.306355,51.6999452 C238.855234,51.6999452 237.443546,51.4869041 237.443546,49.8821918 C235.718369,51.3803836 233.993191,51.9849863 231.599631,51.9849863 C227.79734,51.9849863 225.875,50.2382466 225.875,46.7783014 C225.875,40.8930411 233.051738,41.2865753 237.405099,40.9995616 L237.405099,38.2892055 C237.405099,36.3629589 236.425199,35.2928219 234.227816,35.2928219 C231.718915,35.2928219 230.973638,36.4339726 230.973638,38.539726 C230.973638,39.465863 230.187943,39.6453699 229.366759,39.6453699 C228.11083,39.6798904 227.207823,39.6088767 227.207823,38.1826849 C227.207823,34.8292603 231.091936,34.1161644 234.031638,34.1161644 C238.619624,34.1161644 241.91422,34.7227397 241.91422,39.5368767 L241.91422,47.7054247 C241.91422,50.1307397 242.148844,50.452274 244.855894,50.4887671 L244.855894,51.6289315 C243.325908,51.6289315 241.796908,51.6999452 240.306355,51.6999452 L240.306355,51.6999452 Z" id="Fill-7" fill="#006FAC"></path><path d="M259.990135,39.6453699 C256.53978,39.6453699 259.283305,35.8629041 256.930163,35.8629041 C254.382816,35.8629041 253.755837,40.2154521 253.755837,41.8911781 L253.755837,49.1326027 C253.755837,50.4887671 256.029128,50.4887671 257.050433,50.4887671 L257.050433,51.6289315 C253.441362,51.5233973 249.715965,51.4869041 246.107879,51.6289315 L246.107879,50.4887671 C247.08778,50.4887671 249.206298,50.4177534 249.206298,49.1326027 L249.206298,36.9685479 C249.206298,35.6863562 247.128199,35.6143562 246.107879,35.577863 L246.069433,34.5087123 C248.578333,34.5087123 251.127652,34.5432329 253.638525,34.4376986 L253.638525,37.1480548 L253.715418,37.1115616 C254.656872,35.4358356 256.264738,34.1161644 258.420716,34.1161644 C260.696965,34.1161644 262.06922,35.3638356 262.06922,37.4330959 C262.06922,38.7892603 261.676865,39.6453699 259.990135,39.6453699" id="Fill-8" fill="#006FAC"></path><path d="M278.300674,39.6453699 C274.850319,39.6453699 277.593844,35.8629041 275.241688,35.8629041 C272.69434,35.8629041 272.066376,40.2154521 272.066376,41.8911781 L272.066376,49.1326027 C272.066376,50.4887671 274.340652,50.4887671 275.360972,50.4887671 L275.360972,51.6289315 C271.752887,51.5233973 268.026504,51.4869041 264.418418,51.6289315 L264.418418,50.4887671 C265.398319,50.4887671 267.516837,50.4177534 267.516837,49.1326027 L267.516837,36.9685479 C267.516837,35.6863562 265.438738,35.6143562 264.418418,35.577863 L264.379972,34.5087123 C266.888872,34.5087123 269.438191,34.5432329 271.949064,34.4376986 L271.949064,37.1480548 L272.025957,37.1115616 C272.967411,35.4358356 274.575277,34.1161644 276.731255,34.1161644 C279.007504,34.1161644 280.380745,35.3638356 280.380745,37.4330959 C280.380745,38.7892603 279.987404,39.6453699 278.300674,39.6453699" id="Fill-9" fill="#006FAC"></path><path d="M288.023773,31.1552877 C286.416894,31.1552877 285.436007,30.0151233 285.436007,28.6234521 C285.436007,27.2317808 286.457312,26.126137 288.023773,26.126137 C289.593191,26.126137 290.613511,27.2672877 290.613511,28.6234521 C290.613511,30.0151233 289.593191,31.1552877 288.023773,31.1552877 Z M282.652064,51.6289315 L282.652064,50.4887671 C283.631965,50.4887671 285.750482,50.380274 285.750482,49.1326027 L285.750482,36.8975342 C285.750482,35.7208767 283.553099,35.6863562 282.652064,35.6488767 L282.652064,34.5087123 C285.162936,34.5087123 287.789149,34.6152329 290.300021,34.4722192 L290.300021,49.1326027 C290.300021,50.380274 292.456986,50.4887671 293.436887,50.4887671 L293.436887,51.6289315 C289.907667,51.4869041 286.181284,51.4869041 282.652064,51.6289315 L282.652064,51.6289315 Z" id="Fill-10" fill="#006FAC"></path><path d="M302.610887,51.9849863 C300.454908,51.9849863 298.219078,51.6289315 296.180411,50.9878356 L296.180411,45.6726575 L297.944035,45.6726575 C298.022901,48.4195068 299.277844,50.8793425 302.689752,50.8793425 C304.688986,50.8793425 306.806518,50.0242192 306.806518,47.9549589 C306.806518,43.746411 296.493901,45.7091507 296.493901,39.5733699 C296.493901,35.6488767 299.786525,34.1161644 303.670638,34.1161644 C305.591993,34.1161644 307.434482,34.4722192 309.238525,35.0787945 L309.238525,39.5733699 L307.63066,39.5733699 C307.355617,37.0770411 306.414163,35.2928219 303.356163,35.2928219 C301.473255,35.2928219 300.140433,36.0069041 300.140433,37.8266301 C300.140433,41.9986849 310.493468,39.5023562 310.493468,46.4222466 C310.493468,50.452274 306.414163,51.9849863 302.610887,51.9849863" id="Fill-11" fill="#006FAC"></path><path d="M334.449773,38.7892603 L331.078284,38.7892603 L331.078284,50.3457534 L333.587184,50.3457534 C338.057858,50.3457534 340.332135,48.5260274 340.332135,44.3875068 C340.332135,40.5369863 338.803135,38.7892603 334.449773,38.7892603 Z M334.176702,27.6953425 C333.156383,27.6953425 332.096631,27.6953425 331.078284,27.8028493 L331.078284,37.5050959 L334.332461,37.5050959 C337.902099,37.5050959 339.11761,35.7573699 339.11761,32.6534795 C339.11761,29.3365479 337.978993,27.6953425 334.176702,27.6953425 Z M335.901879,51.6289315 C331.431206,51.6289315 326.921099,51.4869041 322.450426,51.6289315 L322.450426,50.452274 C323.351461,50.452274 326.097943,50.3457534 326.097943,49.1326027 L326.097943,28.9804932 C326.097943,27.7318356 323.391879,27.6243288 322.450426,27.6608219 L322.411979,26.4831781 C327.077844,26.6261918 331.783142,26.4831781 336.450979,26.4831781 C340.881234,26.4831781 344.33356,27.5178082 344.33356,32.1179178 C344.33356,35.8629041 341.587078,37.5050959 337.823234,37.9686575 L337.823234,38.1116712 C342.490085,38.3967123 345.705816,40.0724384 345.705816,44.6745205 C345.705816,49.8821918 340.881234,51.6289315 335.901879,51.6289315 L335.901879,51.6289315 Z" id="Fill-12" fill="#006FAC"></path><path d="M361.309305,42.1781918 C357.583908,42.4977534 354.56534,42.748274 354.56534,46.9578082 C354.56534,48.6680548 355.153872,50.380274 357.389702,50.380274 C360.487135,50.380274 361.309305,47.8129315 361.309305,45.4586301 L361.309305,42.1781918 Z M364.211546,51.6999452 C362.761411,51.6999452 361.349723,51.4869041 361.349723,49.8821918 C359.624546,51.3803836 357.897397,51.9849863 355.506794,51.9849863 C351.701546,51.9849863 349.780191,50.2382466 349.780191,46.7783014 C349.780191,40.8930411 356.957915,41.2865753 361.309305,40.9995616 L361.309305,38.2892055 C361.309305,36.3629589 360.329404,35.2928219 358.134979,35.2928219 C355.624106,35.2928219 354.87883,36.4339726 354.87883,38.539726 C354.87883,39.465863 354.095106,39.6453699 353.270965,39.6453699 C352.016021,39.6798904 351.114986,39.6088767 351.114986,38.1826849 C351.114986,34.8292603 354.996142,34.1161644 357.937816,34.1161644 C362.526787,34.1161644 365.820397,34.7227397 365.820397,39.5368767 L365.820397,47.7054247 C365.820397,50.1307397 366.056007,50.452274 368.761085,50.4887671 L368.761085,51.6289315 C367.232085,51.6289315 365.701113,51.6999452 364.211546,51.6999452 L364.211546,51.6999452 Z" id="Fill-13" fill="#006FAC"></path><path d="M382.797128,51.6289315 L382.797128,50.5232877 C383.777028,50.4887671 385.659936,50.380274 385.659936,49.1326027 L385.659936,39.9669041 C385.659936,37.7556164 385.229135,35.8993973 382.366326,35.8993973 C379.07173,35.8993973 377.895652,38.467726 377.895652,41.0725479 L377.895652,49.1326027 C377.895652,50.2747397 379.855454,50.4887671 380.758461,50.4887671 L380.796908,51.594411 C377.385,51.4513973 373.659603,51.4869041 370.247695,51.6289315 L370.247695,50.5232877 C371.268014,50.4887671 373.345128,50.452274 373.345128,49.1326027 L373.345128,37.0050411 C373.345128,35.7208767 371.268014,35.6488767 370.247695,35.6143562 L370.247695,34.5087123 C372.758567,34.5087123 375.267468,34.5432329 377.777355,34.4376986 L377.777355,36.9685479 L377.85622,36.9685479 C379.661248,35.0077808 381.463319,34.1161644 384.326128,34.1161644 C388.600624,34.1161644 390.208489,36.0069041 390.208489,39.7509041 L390.208489,49.1326027 C390.208489,50.380274 392.287574,50.4887671 393.267475,50.4887671 L393.267475,51.6289315 C389.855567,51.5233973 386.209035,51.4869041 382.797128,51.6289315" id="Fill-14" fill="#006FAC"></path><path d="M407.421816,51.594411 L407.421816,50.4887671 C407.735305,50.4887671 408.832518,50.5232877 408.715206,50.0242192 C408.597894,49.5251507 407.773752,48.8110685 407.34295,48.2409863 C406.244752,46.8858082 405.185986,45.5296438 404.048355,44.2109589 C404.009908,44.1734795 403.537702,43.4613699 403.537702,43.4613699 L401.970255,44.8520548 L401.970255,49.2401096 C401.970255,50.6663014 403.971461,50.4887671 405.028255,50.4887671 L405.028255,51.6289315 C401.539454,51.4869041 397.852504,51.4869041 394.363702,51.6289315 L394.363702,50.4887671 C395.303184,50.4887671 397.420716,50.3457534 397.420716,49.1326027 L397.420716,28.0523836 C397.420716,26.7692055 395.420496,26.6972055 394.402149,26.6607123 L394.363702,25.5550685 C396.872603,25.5550685 399.460369,25.6260822 401.970255,25.4840548 L401.929837,43.2108493 C401.929837,43.2108493 408.205539,36.5414795 408.205539,35.8993973 C408.205539,35.6143562 406.755404,35.5433425 406.480362,35.5433425 L406.480362,34.5087123 L414.245631,34.5087123 L414.245631,35.5068493 L413.773426,35.5068493 C412.910837,35.5068493 411.147213,35.5433425 410.519248,36.0779178 C408.94983,37.3966027 406.362064,40.5004932 406.362064,40.5004932 L413.538801,49.061589 C414.322525,49.987726 415.577468,50.4887671 416.79495,50.5232877 L416.79495,51.6289315 C413.696532,51.4513973 410.47883,51.594411 407.421816,51.594411" id="Fill-15" fill="#006FAC"></path></g></g></g></svg> 