<?xml version="1.0" encoding="UTF-8"?> <svg xmlns="http://www.w3.org/2000/svg" viewBox="0 0 620.5 178.23"><g data-name="Layer 1"><rect width="161.14" height="24.9" x="13.45" y="48.17" fill="#091047" rx="12.45" ry="12.45" transform="rotate(-135 94.027 60.619)"></rect><path fill="#091047" d="M184.41 108.55a4.9 4.9 0 0 1 6.86-.66c4.14 3.39 11.28 7.33 18 7.24a20.26 20.26 0 0 0 11.73-3.48c2.82-2.07 4-4.42 4-6.77a5.37 5.37 0 0 0-.85-3 8.87 8.87 0 0 0-2.82-2.82c-2.73-1.79-7.33-3.39-12.88-4.42h-.19a50.92 50.92 0 0 1-12.1-3.64 20.21 20.21 0 0 1-8.74-7.33 14.42 14.42 0 0 1-2.16-7.71c0-5.64 3.2-10.53 7.52-13.73a27.8 27.8 0 0 1 16.26-5c9 0 15.7 4.42 20.49 7.52a4.84 4.84 0 0 1 1.32 6.68 4.75 4.75 0 0 1-6.68 1.41c-4.79-3.2-9.4-6-15.14-6A18 18 0 0 0 198.51 70c-2.54 1.88-3.57 3.95-3.57 5.92a4.57 4.57 0 0 0 .66 2.63 9.06 9.06 0 0 0 2.53 2.45c2.44 1.69 6.68 3.2 11.75 4.14h.19a55.33 55.33 0 0 1 13 3.95c3.85 1.88 7.24 4.33 9.4 7.8a15.24 15.24 0 0 1 2.26 8c0 6-3.38 11.19-8.09 14.57a29.4 29.4 0 0 1-17.39 5.36c-10.15-.09-18.71-5.17-24.07-9.4a5 5 0 0 1-.77-6.87zM240.25 101.5c0-13.07 10.91-23.5 23.88-23.6a24.78 24.78 0 0 1 14.95 5.17 5.17 5.17 0 0 1 1 7 5 5 0 0 1-7.05.94 15 15 0 0 0-8.93-3c-7.61 0-13.91 6.3-13.91 13.54s6.3 13.44 13.91 13.44a15.23 15.23 0 0 0 8.93-3 5.12 5.12 0 0 1 7.05 1 5.19 5.19 0 0 1-1 7 25.9 25.9 0 0 1-14.95 5c-12.98-.08-23.88-10.61-23.88-23.49zM297.4 119.74a5.18 5.18 0 0 1-5.27 5.17 5.33 5.33 0 0 1-5-3.86 5.55 5.55 0 0 1-.19-1.32V64.27a5.22 5.22 0 0 1 10.44 0v16.36a21.44 21.44 0 0 1 10.06-2.73A20.56 20.56 0 0 1 328 98.49v21.25a5.17 5.17 0 1 1-10.34 0V98.49a10.11 10.11 0 1 0-20.21 0zM338.67 118a23.46 23.46 0 0 1-6.49-16.55A24.25 24.25 0 0 1 338.67 85a22 22 0 0 1 16.17-7.15 20.78 20.78 0 0 1 15.7 7.15 23.48 23.48 0 0 1 6.58 16.45 22.75 22.75 0 0 1-6.58 16.55 20.79 20.79 0 0 1-15.7 7.15 22 22 0 0 1-16.17-7.15zm3.76-16.55a15.2 15.2 0 0 0 3.39 10 12.73 12.73 0 0 0 9 3.48 12.31 12.31 0 0 0 8.65-3.48 14.45 14.45 0 0 0 3.67-10 14.14 14.14 0 0 0-3.67-9.78 13.28 13.28 0 0 0-8.65-3.57 13.67 13.67 0 0 0-9 3.57 14.87 14.87 0 0 0-3.39 9.83zM386.8 59.1a5.24 5.24 0 0 1 5.26 5.17v55.47a5.22 5.22 0 0 1-10.44 0V64.27a5.22 5.22 0 0 1 5.18-5.17zM443.3 101.5v18.43a5 5 0 0 1-5 5 5.12 5.12 0 0 1-4.89-4 21.35 21.35 0 0 1-12.5 4 21.84 21.84 0 0 1-16-6.86 24.06 24.06 0 0 1-6.39-16.55A23.72 23.72 0 0 1 404.95 85a21.65 21.65 0 0 1 16-7.05A21.43 21.43 0 0 1 433.43 82a5.11 5.11 0 0 1 4.89-4.14 5 5 0 0 1 5 5.08zm-10 0a13.82 13.82 0 0 0-3.67-9.68 11.62 11.62 0 0 0-8.7-3.82 11.33 11.33 0 0 0-8.74 3.85 13.77 13.77 0 0 0-3.57 9.68 14.1 14.1 0 0 0 3.57 9.68 11.83 11.83 0 0 0 8.74 3.67 12.15 12.15 0 0 0 8.74-3.67 14.16 14.16 0 0 0 3.67-9.71zM480.43 82.88a5 5 0 0 1-5 5 9 9 0 0 0-5.64 1.79 14.16 14.16 0 0 0-4.33 4.51 28.86 28.86 0 0 0-3.85 7.9v17.86a5.12 5.12 0 0 1-5.17 5 5 5 0 0 1-5-5v-37a4.94 4.94 0 0 1 5-4.89 5 5 0 0 1 5.17 4.89v.66a12.34 12.34 0 0 1 2-1.88A20.61 20.61 0 0 1 475.45 78a4.88 4.88 0 0 1 4.98 4.88zM497.63 119.74a5.12 5.12 0 1 1-10.25 0V65a5.08 5.08 0 0 1 2.07-4.32 5.18 5.18 0 0 1 7.14 1.13l30.37 42v-38.7A5.12 5.12 0 0 1 532 60a5.2 5.2 0 0 1 5.17 5.08v54.62a5.22 5.22 0 0 1-5.17 5.17 5.1 5.1 0 0 1-3.86-1.88 2.47 2.47 0 0 1-.47-.56l-30.04-41.71zM543.32 101.4c.09-12.79 10.06-23.5 22.94-23.5 12.22 0 21.9 9.12 22.66 21.81v.47a2.58 2.58 0 0 1-.09.85c-.28 2.26-2.26 3.76-4.89 3.76H554a12.32 12.32 0 0 0 3.2 6.21 14.54 14.54 0 0 0 9 4.23c3.38.28 7.43-.56 9.78-2.35 2-2.07 5.83-1.79 7.05-.28 1.22 1.32 2.16 4.14 0 6.11-4.61 4.23-10.15 6.21-16.83 6.21-12.82-.11-22.78-10.73-22.88-23.52zm10.25-4.61h26.61c-.94-3.76-5.74-9.31-13.91-10-8 .42-11.95 6.15-12.7 10.01zM620.5 83.07a5.3 5.3 0 0 1-5.27 5.17h-9.39v26.23a5.18 5.18 0 0 1 5.17 5.26 5.1 5.1 0 0 1-5.17 5.17 10.47 10.47 0 0 1-10.44-10.44V64.27a5.18 5.18 0 0 1 5.27-5.17 5.1 5.1 0 0 1 5.17 5.17V77.9h9.39a5.24 5.24 0 0 1 5.27 5.17z"></path><rect width="161.14" height="24.9" x="-19.95" y="71.83" fill="#ff8f0b" rx="12.45" ry="12.45" transform="rotate(-45 60.62 84.28)"></rect><rect width="161.14" height="24.9" x="36.79" y="78.61" fill="#d5e0e8" rx="12.45" ry="12.45" transform="rotate(-45 117.361 91.067)"></rect><rect width="161.14" height="24.9" x="7.07" y="105.16" fill="#3d9796" rx="12.45" ry="12.45" transform="rotate(-135 87.642 117.613)"></rect><path fill="#d5e0e8" d="M93.87 96.94l-29.53 29.54a12.41 12.41 0 0 0 .05 17.52 12.41 12.41 0 0 0 17.55.05l29.53-29.53z"></path><path fill="#091047" d="M102.51 86.71l30.89 30.89a12.45 12.45 0 0 0 17.61 0A12.45 12.45 0 0 0 151 100l-30.88-30.9z"></path><path fill="#3c8480" d="M71.62 119.2l17.6-17.6-21.61 13.59 4.01 4.01z"></path><path fill="#d9790a" d="M57.47 69.83l17.6 17.6L61.3 66.01l-3.83 3.82z"></path><path fill="#b3bdc4" d="M120.89 105.11l-17.59-17.6 13.74 21.46 3.85-3.86z"></path><path fill="#070d39" d="M106.81 55.73L89.22 73.32l21.42-13.77-3.83-3.82z"></path></g></svg> 