<?xml version="1.0" encoding="UTF-8"?> <svg xmlns="http://www.w3.org/2000/svg" fill="none" height="33" viewBox="0 0 132 33" width="132"><g fill="#dfe1e5"><path d="m37.8824 12.5352v4.9574h-2.4571v14.8407c-.0908 0-.1634 0-.2347 0-6.8473-.011-13.6946-.0248-20.5419-.0316-3.9615-.0042-7.92151 0-11.88295-.0028-.09499 0-.18858-.0234-.29334-.0372v-14.8008h-2.47241c0-1.6759 0-3.3504 0-5.0249.486101-.3208.972202-.6417 1.45691-.9639.90794-.6032 1.8131-1.2091 2.72244-1.80951.88979-.58801 1.78377-1.17052 2.67495-1.7599.90935-.60178 1.8131-1.20907 2.72245-1.80948.88975-.58801 1.78375-1.17051 2.67495-1.7599.8772-.57974 1.7502-1.16638 2.6275-1.74612 1.2585-.83038 2.5199-1.657999 3.7798-2.486997.2012-.1321991.3646-.1335761.5601-.0041313.2501.1652483.4959.3360053.746.4998773 1.2725.840011 2.545 1.678651 3.8161 2.521421.6091.40348 1.2125.81385 1.8215 1.21733 1.2711.84139 2.5451 1.68003 3.8162 2.52142.6411.42414 1.2767.85516 1.9165 1.2793 1.2348.81798 2.471 1.63321 3.7072 2.44979.8912.5894 1.7809 1.1774 2.6693 1.7696.0671.044.1132.1184.1691.179zm-6.5429 14.703c.0028-.0441.0056-.0716.0056-.0992 0-4.1202 0-8.2404-.0042-12.3606 0-.0592-.0502-.1405-.1019-.1749-1.0295-.683-2.0646-1.3605-3.0968-2.0408-2.0827-1.3743-4.164-2.75001-6.2467-4.12296-.9596-.63345-1.9207-1.26277-2.8803-1.89622-.0796-.05233-.1411-.05096-.2193.00275-.359.2465-.7208.49161-1.0839.73123-.8535.5646-1.7098 1.12506-2.5646 1.68966-.813.53706-1.6246 1.07964-2.4375 1.61664-.8228.544-1.6469 1.0838-2.4697 1.6277-1.16352.7685-2.3243 1.541-3.49066 2.3066-.11175.073-.14946.1488-.14946.2782.00279 4.0872.00279 8.1743.00279 12.2615v.1804h24.73523z"></path><path d="m25.7059 24.2499h-13.5294v-4.0416h13.5294z"></path><path d="m25.7059 17.5138h-13.5294v-4.0416h13.4774c.0173 1.3433.0347 2.6857.052 4.0416z"></path><path d="m80.2839 24.7212v3.8762h-1.1251v-8.7315c.1155-.0074.2459-.0222.3725-.0222 1.1921 0 2.3842-.0406 3.5763.0148.6482.0296 1.3523.0998 1.9148.3806.6147.3067.9909.9496 1.0729 1.6813.0745.6725-.0522 1.3006-.4545 1.866-.2347.3288-1.2927.8314-1.9148.8609 1.4417.9977 2.075 2.5533 3.0622 3.9759-.4917 0-.9015.0148-1.3076-.011-.0931-.0074-.2049-.1294-.2682-.2254-.5439-.824-1.0654-1.6591-1.6168-2.4757-.5364-.7945-1.2107-1.3525-2.2761-1.1973-.3204.0481-.6519.0074-1.0394.0074zm.026-1.0642c1.14 0 2.2501.0259 3.3565-.011.5663-.0185 1.0692-.4693 1.1809-.9423.2198-.9164-.1937-1.6776-1.1548-1.7736-1.1101-.1109-2.2389-.0259-3.3826-.0259v2.7491z"></path><path d="m111.197 28.553c-.883.303-1.357-.0924-1.77-.787-.607-1.0199-1.3-1.988-1.963-2.9746-.656-.9755-1.315-1.9473-2.031-3.0004v6.799h-1.069v-8.75c.324 0 .637-.0222.943.0111.112.0111.238.1367.309.2402 1.095 1.5889 2.183 3.1814 3.275 4.774.398.5802.797 1.1566 1.251 1.8217v-6.8137h1.051v8.6797z"></path><path d="m47.3897 28.789c-1.1586.0444-2.1607-.2993-2.902-1.1528-1.0058-1.1566-1.4566-2.4905-1.2442-4.0646.1266-.9312.4507-1.7293 1.0132-2.4462.4359-.5579 1.0096-.9089 1.71-1.127.5289-.1625 1.0393-.2586 1.5907-.2475 1.1436.0221 2.1308.4434 2.8945 1.2526.7227.7649 1.1027 1.7256 1.1399 2.7935.0336.9681-.0447 1.8993-.4842 2.8082-.4732.9792-1.2666 1.5446-2.2203 1.9141-.462.1811-.9947.1885-1.4976.2734zm-2.9541-4.5523v.3991c.0074 2.121 1.6428 3.562 3.919 3.0189.1117-.0259.2347-.0407.3241-.0998.7189-.4915 1.3932-1.0235 1.572-1.9473.0485-.255.1341-.5025.1528-.7612.0819-1.2194.026-2.4129-.991-3.2997-1.4603-1.2711-3.3304-1.0531-4.4554.484-.4768.6541-.5402 1.4226-.5178 2.206z"></path><path d="m73.2954 28.6899c-1.207.1921-2.1607-.3252-2.9579-1.127-.7078-.7132-.9909-1.6591-1.1325-2.6309-.1378-.9423-.0409-1.8771.3502-2.7528.4694-1.0458 1.1996-1.7959 2.3469-2.1765.8941-.2993 1.7509-.314 2.6264-.0702 1.4491.4028 2.3842 1.3266 2.8051 2.7713.3614 1.2416.3129 2.461-.1825 3.6508-.3241.7797-.8084 1.4226-1.5944 1.8402-.719.3842-1.4417.6355-2.2613.4988zm-2.9318-4.5413c0 .3289-.0261.5543.0037.7723.1155.7981.3763 1.5039.9872 2.0988.6818.6614 1.4715.7316 2.347.7316.8754 0 1.4379-.4803 1.9557-1.0568.4955-.5542.6371-1.2637.6892-1.9768.0522-.7317.0149-1.4633-.2719-2.1506-.4471-1.0605-1.3188-1.6036-2.4028-1.8253-1.0394-.2144-2.5668.6392-2.902 1.4854-.2608.654-.503 1.3081-.4061 1.9177z"></path><path d="m62.5032 25.0757v3.5178h-1.1437v-8.8313c1.6689.0887 3.3267.1109 4.9621.2882 1.0617.1146 1.9483 1.6591 1.6801 2.6974-.0969.3696-.2161.7391-.3725 1.0864-.462 1.0272-1.4566 1.1307-2.3842 1.2268-.8829.0923-1.7844.0184-2.7418.0184zm.026-4.2493v3.1889c.8531 0 1.6727-.0185 2.4923.0073.4656.0148.8456-.1182 1.2405-.351.7041-.4212.5476-1.0863.5029-1.6776-.0335-.4545-.3502-.8498-.8605-.8979-1.1102-.1108-2.2278-.1773-3.3752-.266z"></path><path d="m54.2851 28.6009h-1.1549v-8.7573h.4173c1.058 0 2.1159-.0259 3.1702.0074.8196.0258 1.6391.1108 2.2911.702.4544.4102.7711.8758.8158 1.5224.067.9496-.1863 1.7626-.8978 2.4055-.1676.1515-.421.2365-.6519.2919-.5216.122-1.0468.2587-1.5795.2919-.7861.0481-1.5721.0111-2.4103.0111zm.0037-4.5893c.8531 0 1.6578-.0221 2.4587.0074.4619.0185.8643-.085 1.2592-.303.4805-.266.6705-.6614.6444-1.1935-.026-.5395-.1155-1.0642-.6631-1.3228-1.1958-.5654-2.4624-.1811-3.6992-.3104v3.1186z"></path><path d="m95.4869 19.8655h1.1623v.4693c0 1.7588.0074 3.514 0 5.2728-.0037.8758.3502 1.5705 1.1362 1.9363.4023.1847.9127.2032 1.3709.1847.8233-.0369 1.5717-.2808 1.8737-1.1565.104-.2956.171-.6171.171-.9312.015-1.7589.008-3.514.008-5.2729 0-.1589 0-.3178 0-.4988h1.136c.008.1219.026.2475.026.3769 0 1.7441.034 3.4844-.015 5.2285-.018.7095-.074 1.4485-.517 2.073-.537.7538-1.301 1.1159-2.1984 1.1602-.6594.0296-1.3299-.0037-1.9893-.085-1.0431-.1293-1.6876-.8683-1.9781-2.0027-.3763-1.4596-.1342-2.9561-.1826-4.4341-.0261-.7612-.0037-1.5261-.0037-2.3131z"></path><path d="m56.6173 17.4086c.4471.2254.8755.4434 1.3113.6651-.1117.2217-.2049.4101-.3278.6577-.3576-.1737-.76-.2771-1.0431-.521-.4098-.351-.7748-.2956-1.2405-.1478-1.9521.6171-3.9823-.1774-4.5598-2.2023-.3427-1.2009-.2756-2.4055.2943-3.5362.4732-.9348 1.2815-1.4743 2.3023-1.7071 1.2591-.2882 2.3506.0776 3.2857.9016.6705.5912.9946 1.4226 1.0915 2.2725.1266 1.0937-.0112 2.1838-.6929 3.126-.1192.1663-.2682.3104-.421.4915zm-.6705-.5432c.1937-.3584.4656-.6799.5401-1.0383.1304-.6208.2161-1.2711.1789-1.903-.0559-1.0051-.4694-1.8254-1.4753-2.2762-1.1064-.4914-2.4587-.0924-2.9318.5765-.7599 1.0715-.7972 2.2392-.5103 3.4955.3166 1.3783 2.3022 2.1653 3.3788 1.4817-.3241-.1219-.6296-.2401-.9388-.3547.0336-.085.082-.1589.0969-.2439.082-.4803.3837-.4582.7152-.2919.3092.1552.5961.3511.9463.558z"></path><path d="m120.893 16.5808v-5.938h.935v7.5158c-.316 0-.644.0333-.957-.0147-.13-.0222-.257-.1996-.347-.3326-1.136-1.6997-2.265-3.4069-3.393-5.1103-.071-.1035-.138-.2106-.272-.4102v5.8494h-.958v-7.5158c.283 0 .578-.0185.868.011.101.0111.216.1257.28.2217 1.192 1.7848 2.373 3.5732 3.561 5.3616.063.0924.138.1774.28.3658z"></path><path d="m129.283 15.2393h-2.202v-.872h3.185c0 .8831.004 1.7515-.007 2.6198 0 .085-.105.1848-.183.2513-1.121.9496-2.47 1.1824-3.848.9792-1.241-.1848-2.191-.8905-2.645-2.1358-.477-1.3044-.391-2.5607.25-3.7875.521-.9976 1.374-1.5112 2.462-1.6738 1.028-.1552 1.989.0148 2.872.606.555.3732.782.909.935 1.5593-.231.0517-.462.0702-.667.1589-.216.0924-.294.0369-.335-.17-.276-1.4448-2.455-1.6886-3.595-.9496-1.561 1.0161-1.594 3.8244-.328 4.9809.395.3585.868.4952 1.345.5395.898.0813 1.8.0444 2.559-.5505.082-.0629.183-.1626.187-.2476.018-.4249.007-.8499.007-1.3044z"></path><path d="m93.4529 18.2398c-1.4901.1811-3.1031-1.0679-3.4459-2.4461-.3278-1.3339-.2309-2.6309.5067-3.7764.5439-.8425 1.4454-1.2452 2.4736-1.4152 1.1064-.1811 2.0004.2106 2.8461.8166.6258.4471.909 1.1122 1.0803 1.8291.041.1699.0596.3399.0894.5136.2161 1.3191-.0819 2.5385-.976 3.5103-.6631.7206-1.5758 1.0975-2.5742.9681zm.2161-.7907c.745-.0961 1.6279-.3843 2.0191-1.4042.149-.3842.1751-.8129.2719-1.2156.2832-1.1862-.4135-3.1335-2.0787-3.3515-1.0766-.1404-2.1271.2476-2.6039 1.2231-.3688.7575-.462 1.5519-.3651 2.3981.1527 1.3561 1.1585 2.3464 2.753 2.3464z"></path><path d="m43.9326 10.639h5.4017v.8498h-4.4219v2.3095h4.1425v.8905h-4.15v2.5607h4.6008v.8794h-5.5731v-7.4973z"></path><path d="m87.4478 14.6298h-3.8334v3.4993h-1.0691v-7.4789h1.0468v3.0485h3.8333v-3.0559h.976v7.4789h-.9574v-3.4919z"></path><path d="m111.45 12.8228h-.842c-.298-.3991-.484-.8388-.823-1.0716-.764-.521-2.146-.4951-2.75.3252-.473.6466-.022 1.2563.712 1.4558.767.2107 1.572.3141 2.324.5691.731.2475 1.353.7538 1.483 1.5408.134.8314-.06 1.5963-.868 2.1321-.872.5764-1.814.4914-2.76.4249-.313-.0221-.63-.1145-.924-.2328-.801-.3214-1.122-1.0124-1.319-1.781-.033-.1256-.048-.255-.078-.4212.242 0 .484-.0296.708.0111.123.0221.309.1478.327.2512.135.776.682 1.164 1.371 1.2711.567.0887 1.181.0481 1.744-.0702.536-.1108.931-.4988.92-1.1048-.008-.4804-.578-.994-1.188-1.1566-.786-.2069-1.591-.3584-2.347-.6392-1.308-.4878-1.625-1.9917-.757-2.9191.775-.8314 1.818-.9829 2.906-.7649.857.1699 1.621.5025 1.963 1.3893.09.2365.123.4952.198.7945z"></path><path d="m59.0982 10.6389h1.0729v.9386c0 1.2859-.0149 2.5718.0111 3.8577.0075.3695.0895.7501.2087 1.1011.1788.5321.6593.8314 1.2405.824.4433-.0074.9015.037 1.3225-.0702.7823-.1958.9946-.7205 1.0468-1.7108.0782-1.4744.0186-2.9524.0186-4.4304v-.5026h1.0282c.0112.0702.041.1515.041.2328 0 1.3746.0558 2.7529-.0187 4.1201-.041.7611.0187 1.5704-.5029 2.254-.4768.6207-1.0729.9755-1.8589.9902-.5066.0074-1.017.037-1.5162-.0332-1.0431-.1404-1.6578-.7908-1.9036-1.7774-.1081-.4323-.1714-.8868-.1788-1.3339-.0224-1.3746-.0075-2.7491-.0075-4.1237 0-.0998 0-.2032 0-.3399z"></path><path d="m72.9191 18.107c-.0335.0222-.0447.037-.0521.037-.7103.0517-1.1797-.2525-1.4082-.9127-.0521-.1515-.1192-.2956-.1751-.4434-.1192-.3067-.1527-.739-.3762-.8868-.2422-.1589-.6594-.0518-1.0021-.0518-.5812 0-1.1623.0111-1.7435-.0074-.2719-.0073-.4135.0592-.4954.3474-.1528.5395-.3912 1.0568-.5476 1.5963-.0895.303-.231.4064-.5328.3695-.2049-.0222-.4172-.0037-.6668-.0037.9537-2.5238 1.8962-5.0217 2.8424-7.5232h1.1437c1.0021 2.4794 2.0079 4.981 3.0137 7.4714zm-3.5949-6.5514c-.4358 1.212-.8456 2.339-1.2591 3.4845h2.5145c-.4135-1.1492-.8232-2.2836-1.2554-3.4845z"></path><path d="m98.3478 10.6353h.9611c.0075.1515.0187.2919.0187.436 0 1.0789-.0075 2.1579.0037 3.2369.0074.5986.0335 1.2046.0931 1.7995.0522.5247.7076 1.3154 1.4116 1.2526.455-.0406.928.0259 1.367-.0776.783-.1847.999-.7759 1.044-1.7145.067-1.4743.018-2.9561.018-4.4341 0-.1589 0-.3178 0-.4988h.984v.4212 4.7888c0 .9571-.459 1.6591-1.278 2.1284-.231.133-.514.2402-.779.2513-.603.0221-1.222.0369-1.814-.0555-1.3745-.2217-1.8551-1.1528-1.9259-2.0951-.0894-1.1565-.0782-2.3205-.1006-3.4844-.0112-.6356 0-1.2712 0-1.9547z"></path><path d="m127.763 28.6007h-1.162c0-1.0975.014-2.1727-.012-3.2443-.003-.2439-.089-.5173-.219-.7242-.976-1.4929-1.975-2.9709-2.966-4.4563-.059-.0924-.112-.1922-.171-.2956.063-.0185.089-.0333.115-.0333 1.33-.0517 1.341-.0332 2.206 1.4707.264.4655.596.8942.886 1.345.28.436.548.8831.798 1.2859.853-1.2933 1.709-2.5977 2.577-3.8984.067-.0997.22-.1884.339-.1958.339-.0259.682-.0111 1.118-.0111-.35.5136-.663.9792-.983 1.4374-.775 1.1233-1.558 2.2392-2.318 3.3736-.123.1811-.197.425-.201.643-.018 1.09-.007 2.1801-.007 3.3034z"></path><path d="m91.389 28.6045h-1.1772v-7.6857h-2.9207v-1.0458h6.9142v1.0162h-2.8201v7.719z"></path><path d="m118.841 20.9005h-2.854v-1.0235h6.914v1.0198h-2.917v7.7043h-1.143z"></path><path d="m78.3916 17.257v.872h-4.6976v-7.4789h.9536v6.6069z"></path><path d="m114.501 28.6011h-1.107v-8.7241h1.107z"></path><path d="m113.13 10.6392h1.017v7.4973h-1.017z"></path></g></svg> 