<?xml version="1.0" encoding="UTF-8"?> <!-- Generator: Adobe Illustrator 24.1.0, SVG Export Plug-In . SVG Version: 6.00 Build 0) --> <svg xmlns="http://www.w3.org/2000/svg" xmlns:xlink="http://www.w3.org/1999/xlink" version="1.1" id="Layer_1" x="0px" y="0px" viewBox="0 0 184.8 105" style="enable-background:new 0 0 184.8 105;" xml:space="preserve"> <style type="text/css"> .st0{fill:#00B8C3;} </style> <g> <path class="st0" d="M5.6,17.1v61.6h61.6V17.1H5.6z M61.5,73H11.3V22.8h50.2V73z"></path> <polygon class="st0" points="41.8,47.1 31.4,33 22.1,33 22.1,62.8 31.1,62.8 31.1,47.7 42.1,62.8 50.8,62.8 50.8,33 41.8,33 "></polygon> </g> <g> <path class="st0" d="M161.2,50.9c3.2-0.7,6.1-3.4,6.1-8.5c0-5.5-3.8-9.2-9.5-9.2h-12.6v28.9h6V52h4.1l6.2,10.2l6.5-0.4L161.2,50.9z M157.6,46.8L157.6,46.8l-6.5,0v-8.6h6.5c2.8,0,4.6,1.6,4.6,4.3S160.3,47.1,157.6,46.8z"></path> <polygon class="st0" points="96.7,51.4 83.2,33.3 77.5,33.3 77.5,62.2 83.5,62.2 83.5,43.5 97.2,62.2 102.7,62.2 102.7,33.3 96.7,33.3 "></polygon> <path class="st0" d="M108.7,62.2h6V33.3h-6V62.2z"></path> <path class="st0" d="M118.6,38.7h8.4v23.5h6V38.7h8.4v-5.4h-22.7V38.7z"></path> <path class="st0" d="M186.9,33c-0.3,0-0.6,0-0.9,0c-8.7,0-14.8,6.1-14.8,14.8c0,8.7,6.1,14.8,14.8,14.8c8.7,0,14.8-6.1,14.8-14.7 C201.1,39.9,194.8,33.2,186.9,33z M192,55.1c-1.6,1.5-3.6,2.2-5.9,2.1l0,0c-5.1,0-8.7-3.9-8.7-9.4s3.7-9.4,8.7-9.4 c5.2,0,8.8,3.8,8.8,9.4C194.8,50.7,193.8,53.3,192,55.1z"></path> </g> </svg> 