<?xml version="1.0" encoding="UTF-8"?> <svg xmlns="http://www.w3.org/2000/svg" viewBox="0 0 613.72 193.41"><g fill="#00467f" transform="translate(-3 -5)"><path d="m72.84 151.57a15.77 15.77 0 0 0 -9.84 3.15 2.33 2.33 0 0 0 -2.34-2.33h-3.28a2.33 2.33 0 0 0 -2.33 2.33v33.83a2.34 2.34 0 0 0 2.33 2.34h3.25a2.34 2.34 0 0 0 2.37-2.36v-19.53c0-5.64 4-9.74 9.4-9.74s8.41 3.27 8.41 9.21v20.1a2.35 2.35 0 0 0 2.35 2.34h3.25a2.33 2.33 0 0 0 2.33-2.34v-20.73c0-9.74-6.37-16.27-15.87-16.27"></path><path d="m101.5 152.36h-3.26a2.34 2.34 0 0 0 -2.34 2.34v33.83a2.34 2.34 0 0 0 2.34 2.34h3.26a2.33 2.33 0 0 0 2.33-2.34v-33.83a2.33 2.33 0 0 0 -2.33-2.34m.39-14.38h-4a2.33 2.33 0 0 0 -2.33 2.33v4.44a2.34 2.34 0 0 0 2.33 2.34h4a2.33 2.33 0 0 0 2.33-2.34v-4.44a2.33 2.33 0 0 0 -2.33-2.33"></path><path d="m141.17 171.75c0 6.95-4.93 12.19-11.46 12.19s-11.6-5.48-11.6-12.46 4.92-12.19 11.46-12.19 11.6 5.47 11.6 12.46m-11.46-20.18c-11.1 0-19.79 8.86-19.79 20.18a19.58 19.58 0 0 0 19.65 19.92c11.1 0 19.79-8.87 19.79-20.19a19.57 19.57 0 0 0 -19.65-19.91"></path><path d="m287.3 171.48v.52c-.12 6.8-5 11.93-11.44 11.93s-11.6-5.48-11.6-12.46 4.93-12.19 11.47-12.19 11.45 5.24 11.57 12.19m5.59-19.12h-3.25a2.34 2.34 0 0 0 -2.34 2.34v.55a19.4 19.4 0 0 0 -11.44-3.69c-11.1 0-19.78 8.87-19.78 20.19a19.66 19.66 0 0 0 31.22 16.16v.63a2.34 2.34 0 0 0 2.34 2.34h3.25a2.34 2.34 0 0 0 2.34-2.34v-33.83a2.34 2.34 0 0 0 -2.34-2.34"></path><path d="m172.15 151.57a15.77 15.77 0 0 0 -9.87 3.15 2.33 2.33 0 0 0 -2.34-2.33h-3.25a2.33 2.33 0 0 0 -2.33 2.33v33.83a2.33 2.33 0 0 0 2.33 2.34h3.25a2.34 2.34 0 0 0 2.34-2.34v-19.55c0-5.64 4-9.74 9.41-9.74s8.41 3.27 8.41 9.21v20.1a2.34 2.34 0 0 0 2.34 2.34h3.26a2.33 2.33 0 0 0 2.33-2.34v-20.73c0-9.74-6.38-16.27-15.88-16.27"></path><path d="m320.65 151.57a15.8 15.8 0 0 0 -9.88 3.15 2.33 2.33 0 0 0 -2.33-2.33h-3.25a2.33 2.33 0 0 0 -2.34 2.33v33.83a2.34 2.34 0 0 0 2.34 2.34h3.25a2.34 2.34 0 0 0 2.33-2.34v-19.55c0-5.64 4-9.74 9.41-9.74s8.42 3.27 8.42 9.21v20.1a2.34 2.34 0 0 0 2.33 2.34h3.25a2.34 2.34 0 0 0 2.34-2.34v-20.73c0-9.74-6.38-16.27-15.87-16.27"></path><path d="m377.54 187.06-13.94-17.21 13.33-13.51a2.34 2.34 0 0 0 -1.67-4h-4.26a2.36 2.36 0 0 0 -1.68.71l-16.95 17.54v-30.49a2.33 2.33 0 0 0 -2.34-2.33h-3.25a2.33 2.33 0 0 0 -2.34 2.33v48.43a2.34 2.34 0 0 0 2.34 2.34h3.22a2.34 2.34 0 0 0 2.34-2.34v-7.26l5.71-5.76 11.75 14.49a2.34 2.34 0 0 0 1.82.86h4.11a2.34 2.34 0 0 0 1.81-3.81"></path><path d="m490.7 151.83a17.56 17.56 0 0 0 -12.75 5v-2.13a2.34 2.34 0 0 0 -2.33-2.34h-3.26a2.33 2.33 0 0 0 -2.36 2.34v33.83a2.33 2.33 0 0 0 2.33 2.34h3.26a2.34 2.34 0 0 0 2.33-2.34v-13.86c0-10.08 6.19-14.59 12.33-14.59h.33a2.33 2.33 0 0 0 2.34-2.33v-3.58a2.34 2.34 0 0 0 -2.25-2.34"></path><path d="m530.67 152.36h-3.24a2.34 2.34 0 0 0 -2.34 2.34v19.57c0 5.64-4 9.74-9.41 9.74s-8.42-3.27-8.42-9.21v-20.1a2.34 2.34 0 0 0 -2.34-2.34h-3.24a2.34 2.34 0 0 0 -2.34 2.34v20.7c0 9.73 6.38 16.26 15.88 16.26a15.85 15.85 0 0 0 9.87-3.15 2.34 2.34 0 0 0 2.34 2.34h3.24a2.34 2.34 0 0 0 2.34-2.34v-33.81a2.34 2.34 0 0 0 -2.34-2.34"></path><path d="m556.55 167.44c-4.53-1.29-7.73-2.37-7.73-4.45s2.15-3.57 5.35-3.57a17 17 0 0 1 9.14 3 2.31 2.31 0 0 0 1.77.33 2.39 2.39 0 0 0 1.49-1l1.73-2.75a2.32 2.32 0 0 0 -.69-3.19 25.32 25.32 0 0 0 -13.3-4.1c-7.82 0-13.49 5-13.49 11.82 0 7.69 7.22 9.78 13 11.45l.3.09c4.82 1.35 7.26 2.44 7.26 4.65 0 2.82-3 4.1-5.83 4.1a17.49 17.49 0 0 1 -10.72-4 2.33 2.33 0 0 0 -3.3.45l-1.92 2.59a2.35 2.35 0 0 0 .39 3.21 25.43 25.43 0 0 0 15.35 5.43c8.12 0 14-5.19 14-12.35 0-8.14-8-10.39-12.83-11.74"></path><path d="m45.16 138h-4.4a1.91 1.91 0 0 0 -1.91 1.9v30.33c0 8.59-4.72 13.71-12.63 13.71s-12.63-5.12-12.63-13.71v-30.35a1.91 1.91 0 0 0 -1.91-1.9h-4.41a1.91 1.91 0 0 0 -1.91 1.9v31.12c0 12.43 8.13 20.76 20.23 20.76h1.26c12.09 0 20.22-8.33 20.22-20.76v-31.12a1.91 1.91 0 0 0 -1.91-1.9"></path><path d="m409.11 158.23a3.09 3.09 0 0 1 3.17 3.22c0 .7 0 2.79-4.46 4.56-2-2.27-2.37-3.28-2.37-4.51a3.37 3.37 0 0 1 3.66-3.27m3.89 23.14a9.74 9.74 0 0 1 -6.79 3.09c-3.38 0-5.74-2.14-5.74-5.2 0-2.3 1.76-4.32 5-5.7l7.55 7.81zm14.05 4.49-5-5.13a55.58 55.58 0 0 0 4.2-7.88 2.23 2.23 0 0 0 0-1.72 2.26 2.26 0 0 0 -1.21-1.22l-2.27-.92a2.24 2.24 0 0 0 -2.86 1.18 48.53 48.53 0 0 1 -2.74 5.58l-4.73-4.86c4.45-2.26 6.71-5.5 6.71-9.63a9.67 9.67 0 0 0 -10-9.55c-6.07 0-10.66 4.29-10.66 10a11.1 11.1 0 0 0 2.43 6.9c-6.11 3.15-7.42 7.63-7.42 10.86 0 6.72 5.31 11.59 12.61 11.59a16.24 16.24 0 0 0 11.48-4.88l4.27 4.4a2.16 2.16 0 0 0 1.57.68 2.24 2.24 0 0 0 1.41-.51l2-1.64a2.22 2.22 0 0 0 .18-3.23"></path><path d="m243.27 174c0 2.83-1.1 10-11.28 10-12.57 0-12.57-7.38-12.57-9.81v-9.32h12.58c4.52 0 11.26 2.44 11.26 9.17m-12.26-17.18h-11.6v-10.67h11.94c3.58 0 7.38 1.87 7.38 5.32 0 4.42-4.2 5.35-7.72 5.35m12.59 3.62a13 13 0 0 0 3.44-9.28 11.43 11.43 0 0 0 -3.82-8.61c-3.72-3.3-7.82-4.58-14.63-4.58h-15a2.34 2.34 0 0 0 -2.34 2.34v33.13c0 8.84 5.44 18.29 20.72 18.29 6.43 0 11.84-2 15.23-5.71 2.9-3.34 4.38-6.88 4.38-10.52 0-9-4.7-13.22-7.94-15.06"></path><path d="m458.62 184.34a2.5 2.5 0 0 1 1.59 3.38l-1 2.3a2.4 2.4 0 0 1 -2.78 1.52 15.07 15.07 0 0 1 -3.59-1.14c-3.71-1.88-5.75-5.52-5.75-10.25v-34.3h-9.59a2.33 2.33 0 0 1 -2.33-2.34v-3.25a2.33 2.33 0 0 1 2.33-2.33h27.76a2.35 2.35 0 0 1 2.34 2.34v3.25a2.34 2.34 0 0 1 -2.34 2.33h-9.91v33.94a4.75 4.75 0 0 0 3.27 4.55z"></path><path d="m596.35 152.37h-6.41v-8.49a2.33 2.33 0 0 0 -2.33-2.33h-3.25a2.33 2.33 0 0 0 -2.34 2.33v8.49h-5.71a2.33 2.33 0 0 0 -2.31 2.33v3a2.33 2.33 0 0 0 2.33 2.34h5.67v20.55c0 4.56 2 8.06 5.53 9.87a14.25 14.25 0 0 0 3.47 1.1 2.3 2.3 0 0 0 2.67-1.46l.93-2.22a2.41 2.41 0 0 0 -1.53-3.25 4.59 4.59 0 0 1 -3.15-4.39v-20.24h6.4a2.34 2.34 0 0 0 2.34-2.34v-3a2.33 2.33 0 0 0 -2.34-2.33z"></path><path d="m85.35 5h-18.69a2.65 2.65 0 0 0 -2.66 2.6v65.45c0 9.75-8.25 17.66-18.42 17.66s-18.46-7.91-18.46-17.66h-.06v-65.45a2.65 2.65 0 0 0 -2.69-2.6h-18.7a2.64 2.64 0 0 0 -2.67 2.6v66.2a.62.62 0 0 0 0 .2c.55 22.08 19.33 39.83 42.47 39.83s41.98-17.72 42.53-39.83c0-.07 0-.16 0-.23v-66.17a2.63 2.63 0 0 0 -2.65-2.6"></path><path d="m260 5h-71.2a2.65 2.65 0 0 0 -2.6 2.7v18.86a2.64 2.64 0 0 0 2.6 2.69h20.2v47.32c0 16.32 11.44 31.2 26.91 37.13a2.69 2.69 0 0 0 3.44-1.43l7.32-16.84a2.4 2.4 0 0 0 -1.44-3.21 17.8 17.8 0 0 1 -12-16.62v-46.35h26.77a2.66 2.66 0 0 0 2.61-2.7v-18.86a2.65 2.65 0 0 0 -2.61-2.69"></path><path d="m145.41 90.79c-15.53 0-19.83-7.75-19.83-12.85 0-2.29 0-14.91 0-14.91h18.69c5.34 0 18.92 1.46 18.92 13 0 5.44-3.59 14.71-17.8 14.71m-1.09-63.74c5.36 0 11 3.32 11 8.17 0 7.26-5.35 9.26-11.05 9.26h-18.65v-17.43zm30.87 22.7c2.11-4.28 4.09-8.8 4.09-14.07a27.8 27.8 0 0 0 -9.26-20.73c-7.92-7-16.77-9.9-30.54-9.9h-35.22a2.65 2.65 0 0 0 -2.7 2.58v69.21c0 17.93 11.56 37.07 43.8 37.07 13.36 0 24.75-4.41 32.28-12.59 6.3-7.24 9.49-15.09 9.49-23.33 0-13.89-5.12-23.61-11.92-28.25"></path><path d="m616.15 188.21a7.35 7.35 0 0 0 -1.54-2.32 7 7 0 0 0 -2.31-1.57 7.58 7.58 0 0 0 -5.75 0 7.3 7.3 0 0 0 -4.44 6.76 7.37 7.37 0 0 0 2.12 5.19 7.43 7.43 0 0 0 8.07 1.57 7 7 0 0 0 2.31-1.57 7.28 7.28 0 0 0 1.54-2.33 7.19 7.19 0 0 0 .57-2.86 7.28 7.28 0 0 0 -.57-2.87m-9 8.19a5.57 5.57 0 0 1 -1.77-1.23 5.44 5.44 0 0 1 -1.16-1.83 6.18 6.18 0 0 1 0-4.48 5.61 5.61 0 0 1 7.4-3.05 5.34 5.34 0 0 1 1.76 1.22 5.66 5.66 0 0 1 1.16 1.83 6.32 6.32 0 0 1 0 4.48 5.66 5.66 0 0 1 -1.16 1.83 5.52 5.52 0 0 1 -1.76 1.23 5.87 5.87 0 0 1 -4.47 0"></path><path d="m612.62 194.93a.33.33 0 0 0 0-.36l-1.62-2.68a2.54 2.54 0 0 0 .94-.8 2.68 2.68 0 0 0 .45-1.54 2.45 2.45 0 0 0 -.68-1.73 2.74 2.74 0 0 0 -2.06-.72h-2.43a.37.37 0 0 0 -.36.37v7.28a.37.37 0 0 0 .36.37h.86a.37.37 0 0 0 .36-.37v-2.57h.91l1.63 2.76a.35.35 0 0 0 .31.18h1a.34.34 0 0 0 .31-.19m-1.79-5.37a1.21 1.21 0 0 1 -.29.86 1.12 1.12 0 0 1 -.86.3h-1.2v-2.15h1c1.19 0 1.35.5 1.35 1"></path></g></svg> 