<svg enable-background="new 0 0 64 64" viewBox="0 0 64 64" xmlns="http://www.w3.org/2000/svg"><g fill="#212121"><path d="m55.1 61.6h-46.2c-2.2-.1-4.1-.8-5.6-2.3s-2.4-3.5-2.4-5.6c0-1.3.3-2.6.9-3.7l23.1-43.7c2.1-3.9 6.9-5.4 10.8-3.3 1.4.8 2.6 1.9 3.3 3.3l23.1 43.6c1 1.9 1.2 4 .6 6.1-.6 2-2 3.7-3.9 4.7-1.1.6-2.4.9-3.7.9zm-48.7-9.3c-.2.4-.3.9-.3 1.3 0 .7.3 1.4.8 2 .5.5 1.3.8 2 .8h46.2c.5 0 .9-.1 1.3-.3.7-.3 1.1-.9 1.4-1.6.2-.7.1-1.5-.2-2.1l-23.1-43.7c-.3-.5-.7-.9-1.2-1.2-1.4-.7-3.1-.2-3.8 1.2z"/><path d="m32 40.9c-1.4 0-2.6-1.2-2.6-2.6v-15.6c0-1.4 1.2-2.6 2.6-2.6s2.6 1.2 2.6 2.6v15.5c0 1.5-1.2 2.7-2.6 2.7z"/><circle cx="32" cy="47.3" r="3.9"/></g></svg>